<svg width="395" height="395" viewBox="0 0 395 395" fill="none" xmlns="http://www.w3.org/2000/svg">
<path d="M395 302.094H0V302.292H395V302.094Z" fill="#EBEBEB"/>
<path d="M355.422 314.81H329.255V315.008H355.422V314.81Z" fill="#EBEBEB"/>
<path d="M261.664 316.954H254.796V317.152H261.664V316.954Z" fill="#EBEBEB"/>
<path d="M328.464 307.474H313.303V307.672H328.464V307.474Z" fill="#EBEBEB"/>
<path d="M75.5649 308.802H41.4424V309H75.5649V308.802Z" fill="#EBEBEB"/>
<path d="M87.6022 308.802H82.5991V309H87.6022V308.802Z" fill="#EBEBEB"/>
<path d="M177.866 312.137H103.862V312.334H177.866V312.137Z" fill="#EBEBEB"/>
<path d="M187.241 266.862H34.6929C32.2068 266.862 30.1836 264.839 30.1836 262.353V47.9214C30.1836 45.4353 32.2068 43.4121 34.6929 43.4121H187.241C189.726 43.4121 191.75 45.4353 191.75 47.9214V262.353C191.75 264.839 189.726 266.862 187.241 266.862ZM34.6929 43.6104C32.315 43.6104 30.3811 45.5443 30.3811 47.9222V262.353C30.3811 264.731 32.315 266.665 34.6929 266.665H187.241C189.618 266.665 191.552 264.731 191.552 262.353V47.9214C191.552 45.5443 189.618 43.6096 187.241 43.6096H34.6929V43.6104Z" fill="#EBEBEB"/>
<path d="M358.116 266.862H205.568C203.082 266.862 201.059 264.839 201.059 262.353V47.9214C201.059 45.4353 203.082 43.4121 205.568 43.4121H358.116C360.602 43.4121 362.625 45.4353 362.625 47.9214V262.353C362.625 264.839 360.602 266.862 358.116 266.862ZM205.568 43.6104C203.191 43.6104 201.257 45.5443 201.257 47.9222V262.353C201.257 264.731 203.191 266.665 205.568 266.665H358.116C360.494 266.665 362.428 264.731 362.428 262.353V47.9214C362.428 45.5443 360.494 43.6096 358.116 43.6096H205.568V43.6104Z" fill="#EBEBEB"/>
<path d="M325.069 274.772C325.069 274.772 318.998 262.891 325.935 251.179C332.871 239.467 334.883 236.709 330.461 234.308C326.039 231.909 324.011 243.678 324.011 243.678C324.011 243.678 320.283 235.581 323.361 227.108C326.439 218.634 328.369 204.834 324.165 203.353C319.963 201.873 323.363 220.57 319.716 226.943C319.716 226.943 316.653 219.848 316.149 213.042C315.645 206.236 316.432 195.369 313.113 192.582C309.794 189.794 307.668 191.722 310.93 206.741C314.192 221.761 314.168 233.97 314.168 233.97C314.168 233.97 306.964 214.269 302.129 213.693C297.294 213.118 297.3 219.5 301.439 225.033C305.578 230.566 313.559 240.482 314.868 245.583C314.868 245.583 306.96 230.756 299.847 235.3C292.734 239.844 306.038 248.799 311.968 252.036C317.898 255.272 322.016 275.556 322.016 275.556L325.069 274.772Z" fill="#E0E0E0"/>
<path d="M320.277 279.644C320.277 279.644 326.189 267.683 319.096 256.064C312.004 244.446 309.957 241.714 314.346 239.255C318.735 236.798 320.92 248.538 320.92 248.538C320.92 248.538 324.539 240.392 321.348 231.961C318.158 223.531 316.044 209.756 320.227 208.219C324.41 206.681 321.259 225.423 324.991 231.747C324.991 231.747 327.959 224.612 328.372 217.8C328.785 210.988 327.853 200.132 331.134 197.3C334.416 194.469 336.568 196.369 333.507 211.431C330.446 226.491 330.633 238.7 330.633 238.7C330.633 238.7 337.573 218.903 342.4 218.264C347.227 217.625 347.306 224.005 343.242 229.595C339.177 235.183 331.329 245.203 330.089 250.321C330.089 250.321 337.798 235.391 344.971 239.838C352.145 244.287 338.961 253.419 333.074 256.735C327.188 260.05 323.342 280.388 323.342 280.388L320.277 279.644Z" fill="#E6E6E6"/>
<path d="M347.543 271.119H298.707L302.659 302.463H343.591L347.543 271.119Z" fill="#F0F0F0"/>
<path d="M260.432 72.7306H171.466V171.177H260.432V72.7306Z" fill="#E9E9E9"/>
<path d="M256.75 76.63H175.38V167.48H256.75V76.63Z" fill="#F4F4F4"/>
<path d="M198.377 76.63L175.38 162.756V116.13L185.903 76.63H198.377Z" fill="white"/>
<path d="M208.655 76.63L184.402 167.48H179.828L204.081 76.63H208.655Z" fill="white"/>
<path d="M256.75 101.404V148.038L251.6 167.48H239.125L256.75 101.404Z" fill="white"/>
<path d="M217.529 72.7306H214.369V171.177H217.529V72.7306Z" fill="#E9E9E9"/>
<path d="M258.725 92.7065H173.01V95.8665H258.725V92.7065Z" fill="#E9E9E9"/>
<path d="M138.772 72.7306H49.8057V171.177H138.772V72.7306Z" fill="#E9E9E9"/>
<path d="M135.09 76.63H53.7202V167.48H135.09V76.63Z" fill="#F4F4F4"/>
<path d="M76.7171 76.63L53.7202 162.756V116.13L64.243 76.63H76.7171Z" fill="white"/>
<path d="M86.9951 76.63L62.7421 167.48H58.168L82.421 76.63H86.9951Z" fill="white"/>
<path d="M135.09 101.404V148.038L129.939 167.48H117.465L135.09 101.404Z" fill="white"/>
<path d="M95.869 72.7306H92.709V171.177H95.869V72.7306Z" fill="#E9E9E9"/>
<path d="M137.065 92.7065H51.3501V95.8665H137.065V92.7065Z" fill="#E9E9E9"/>
<path d="M197.5 337.773C282.095 337.773 350.672 333.768 350.672 328.828C350.672 323.888 282.095 319.883 197.5 319.883C112.905 319.883 44.3276 323.888 44.3276 328.828C44.3276 333.768 112.905 337.773 197.5 337.773Z" fill="#F5F5F5"/>
<path d="M301.511 302.463H180.257C177.137 302.463 174.805 299.932 175.048 296.809L190.335 100.698C190.578 97.5753 193.305 95.0433 196.426 95.0433H317.679C320.799 95.0433 323.131 97.5753 322.888 100.698L307.602 296.809C307.358 299.932 304.631 302.463 301.511 302.463Z" fill="#2E353A"/>
<path opacity="0.2" d="M301.511 302.463H180.257C177.137 302.463 174.805 299.932 175.048 296.809L190.335 100.698C190.578 97.5753 193.305 95.0433 196.426 95.0433H317.679C320.799 95.0433 323.131 97.5753 322.888 100.698L307.602 296.809C307.358 299.932 304.631 302.463 301.511 302.463Z" fill="white"/>
<path d="M285.085 107.867H227.02C225.929 107.867 225.114 106.981 225.199 105.89L226.092 94.4263C226.178 93.3345 227.131 92.4497 228.222 92.4497H286.287C287.378 92.4497 288.193 93.3345 288.107 94.4263L287.214 105.89C287.129 106.981 286.175 107.867 285.085 107.867Z" fill="#407BFF"/>
<path opacity="0.2" d="M285.085 107.867H227.02C225.929 107.867 225.114 106.981 225.199 105.89L226.092 94.4263C226.178 93.3345 227.131 92.4497 228.222 92.4497H286.287C287.378 92.4497 288.193 93.3345 288.107 94.4263L287.214 105.89C287.129 106.981 286.175 107.867 285.085 107.867Z" fill="black"/>
<path d="M261.519 96.0071H252.434L252.788 91.4614C252.984 88.9508 255.176 86.9158 257.684 86.9158C260.193 86.9158 262.068 88.9508 261.873 91.4614L261.519 96.0071Z" fill="#407BFF"/>
<path opacity="0.4" d="M261.519 96.0071H252.434L252.788 91.4614C252.984 88.9508 255.176 86.9158 257.684 86.9158C260.193 86.9158 262.068 88.9508 261.873 91.4614L261.519 96.0071Z" fill="white"/>
<path d="M299.879 294.279H183.165L198.057 103.228H314.77L299.879 294.279Z" fill="white"/>
<path d="M274.285 113.228H236.983C234.417 113.228 232.492 111.139 232.692 108.57L233.165 102.501C233.365 99.9326 235.616 97.843 238.182 97.843H275.484C278.051 97.843 279.975 99.9326 279.775 102.501L279.302 108.57C279.102 111.139 276.852 113.228 274.285 113.228ZM238.06 99.4254C236.364 99.4254 234.878 100.806 234.746 102.502L234.272 108.571C234.14 110.267 235.411 111.647 237.107 111.647H274.409C276.104 111.647 277.59 110.267 277.722 108.571L278.196 102.502C278.328 100.806 277.057 99.4254 275.362 99.4254H238.06V99.4254Z" fill="#407BFF"/>
<g opacity="0.4">
<path opacity="0.4" d="M274.285 113.228H236.983C234.417 113.228 232.492 111.139 232.692 108.57L233.165 102.501C233.365 99.9326 235.616 97.843 238.182 97.843H275.484C278.051 97.843 279.975 99.9326 279.775 102.501L279.302 108.57C279.102 111.139 276.852 113.228 274.285 113.228ZM238.06 99.4254C236.364 99.4254 234.878 100.806 234.746 102.502L234.272 108.571C234.14 110.267 235.411 111.647 237.107 111.647H274.409C276.104 111.647 277.59 110.267 277.722 108.571L278.196 102.502C278.328 100.806 277.057 99.4254 275.362 99.4254H238.06V99.4254Z" fill="white"/>
</g>
<path d="M272.36 101.344H240.76C240.161 101.344 239.712 100.857 239.759 100.256L240.006 97.0941C240.053 96.4937 240.577 96.0071 241.177 96.0071H272.777C273.376 96.0071 273.825 96.4937 273.778 97.0941L273.531 100.256C273.485 100.857 272.961 101.344 272.36 101.344Z" fill="#407BFF"/>
<path d="M299.118 131.142H210.638L211.391 121.484H299.871L299.118 131.142Z" fill="#407BFF"/>
<path d="M263.31 144.58H204.408L204.602 142.087H263.504L263.31 144.58Z" fill="#407BFF"/>
<path d="M262.75 151.766H203.848L204.042 149.274H262.944L262.75 151.766Z" fill="#407BFF"/>
<path d="M262.19 158.953H203.288L203.482 156.459H262.384L262.19 158.953Z" fill="#407BFF"/>
<path d="M261.63 166.139H202.728L202.922 163.645H261.824L261.63 166.139Z" fill="#407BFF"/>
<path d="M300.282 166.139H276.249L278.124 142.087H302.156L300.282 166.139Z" fill="#407BFF"/>
<path d="M288.229 161.783C288.288 161.023 288.443 160.346 288.694 159.753C288.945 159.16 289.235 158.65 289.566 158.224C289.898 157.779 290.349 157.242 290.919 156.611C291.733 155.703 292.299 154.999 292.617 154.498C292.955 153.979 293.152 153.368 293.207 152.663C293.279 151.736 293.027 151.032 292.451 150.55C291.895 150.05 291.199 149.799 290.362 149.799C289.154 149.799 287.927 150.152 286.682 150.856L286.607 148.604C287.952 147.807 289.479 147.408 291.19 147.408C292.305 147.408 293.245 147.631 294.01 148.075C294.794 148.52 295.36 149.123 295.71 149.883C296.061 150.624 296.202 151.44 296.133 152.33C296.081 152.997 295.922 153.608 295.655 154.165C295.409 154.702 295.141 155.156 294.852 155.527C294.564 155.879 294.074 156.445 293.381 157.223C292.547 158.15 291.929 158.919 291.528 159.531C291.147 160.124 290.925 160.819 290.863 161.616L290.796 162.478H288.175L288.229 161.783ZM287.836 164.313H290.848L290.619 167.26H287.607L287.836 164.313Z" fill="white"/>
<path d="M260.473 180.972H201.571L201.765 178.478H260.668L260.473 180.972Z" fill="#407BFF"/>
<path d="M259.913 188.158H201.011L201.205 185.665H260.107L259.913 188.158Z" fill="#407BFF"/>
<path d="M259.353 195.344H200.451L200.645 192.851H259.548L259.353 195.344Z" fill="#407BFF"/>
<path d="M258.793 202.53H199.891L200.085 200.037H258.988L258.793 202.53Z" fill="#407BFF"/>
<path d="M297.445 202.53H273.413L275.288 178.478H299.32L297.445 202.53Z" fill="#407BFF"/>
<path d="M285.393 198.174C285.452 197.414 285.607 196.738 285.858 196.144C286.109 195.551 286.399 195.042 286.73 194.615C287.062 194.17 287.513 193.633 288.083 193.003C288.897 192.094 289.463 191.39 289.781 190.889C290.119 190.37 290.316 189.759 290.371 189.054C290.443 188.128 290.191 187.423 289.615 186.941C289.059 186.441 288.363 186.191 287.526 186.191C286.318 186.191 285.091 186.543 283.846 187.247L283.771 184.995C285.116 184.198 286.643 183.799 288.354 183.799C289.469 183.799 290.41 184.022 291.174 184.467C291.958 184.912 292.524 185.514 292.874 186.274C293.225 187.015 293.366 187.831 293.297 188.721C293.245 189.388 293.086 190 292.819 190.556C292.573 191.093 292.305 191.547 292.016 191.918C291.728 192.27 291.238 192.836 290.545 193.614C289.711 194.541 289.093 195.31 288.692 195.922C288.311 196.515 288.09 197.21 288.027 198.007L287.96 198.869H285.339L285.393 198.174ZM285.001 200.704H288.012L287.783 203.652H284.771L285.001 200.704Z" fill="white"/>
<path d="M257.637 217.364H198.735L198.929 214.87H257.832L257.637 217.364Z" fill="#407BFF"/>
<path d="M257.077 224.55H198.175L198.369 222.056H257.272L257.077 224.55Z" fill="#407BFF"/>
<path d="M256.517 231.735H197.615L197.809 229.243H256.711L256.517 231.735Z" fill="#407BFF"/>
<path d="M255.957 238.922H197.055L197.249 236.428H256.151L255.957 238.922Z" fill="#407BFF"/>
<path d="M294.608 238.922H270.576L272.451 214.87H296.483L294.608 238.922Z" fill="#407BFF"/>
<path d="M282.556 234.567C282.615 233.807 282.77 233.13 283.021 232.537C283.272 231.944 283.562 231.434 283.893 231.008C284.225 230.563 284.676 230.025 285.246 229.395C286.06 228.487 286.627 227.782 286.944 227.282C287.282 226.763 287.479 226.151 287.534 225.447C287.606 224.52 287.354 223.816 286.778 223.334C286.222 222.833 285.526 222.583 284.689 222.583C283.481 222.583 282.254 222.935 281.009 223.64L280.934 221.387C282.279 220.59 283.806 220.192 285.517 220.192C286.632 220.192 287.573 220.414 288.337 220.859C289.121 221.304 289.687 221.906 290.037 222.666C290.388 223.408 290.529 224.223 290.46 225.113C290.408 225.78 290.249 226.392 289.982 226.948C289.736 227.486 289.468 227.94 289.179 228.311C288.891 228.663 288.401 229.228 287.708 230.007C286.874 230.934 286.256 231.703 285.855 232.314C285.474 232.908 285.253 233.603 285.191 234.4L285.123 235.262H282.502L282.556 234.567ZM282.164 237.097H285.176L284.946 240.044H281.934L282.164 237.097Z" fill="white"/>
<path d="M254.801 253.755H195.899L196.093 251.262H254.995L254.801 253.755Z" fill="#407BFF"/>
<path d="M254.24 260.941H195.339L195.533 258.448H254.435L254.24 260.941Z" fill="#407BFF"/>
<path d="M253.68 268.127H194.779L194.972 265.634H253.875L253.68 268.127Z" fill="#407BFF"/>
<path d="M253.12 275.313H194.218L194.412 272.82H253.315L253.12 275.313Z" fill="#407BFF"/>
<path d="M291.772 275.312H267.739L269.614 251.262H293.647L291.772 275.312Z" fill="#407BFF"/>
<path d="M279.719 270.958C279.778 270.198 279.933 269.522 280.184 268.928C280.435 268.335 280.726 267.826 281.056 267.399C281.388 266.954 281.839 266.417 282.409 265.787C283.223 264.878 283.79 264.174 284.108 263.674C284.445 263.155 284.642 262.543 284.697 261.838C284.769 260.912 284.517 260.207 283.941 259.725C283.385 259.225 282.689 258.975 281.852 258.975C280.644 258.975 279.417 259.327 278.172 260.031L278.097 257.779C279.442 256.982 280.97 256.583 282.68 256.583C283.796 256.583 284.736 256.806 285.501 257.251C286.284 257.696 286.85 258.298 287.2 259.058C287.552 259.799 287.693 260.615 287.623 261.505C287.571 262.172 287.412 262.784 287.145 263.34C286.899 263.877 286.631 264.332 286.342 264.702C286.054 265.054 285.564 265.62 284.871 266.398C284.037 267.325 283.419 268.094 283.018 268.706C282.637 269.299 282.416 269.994 282.354 270.791L282.286 271.653H279.665L279.719 270.958ZM279.327 273.488H282.339L282.109 276.436H279.097L279.327 273.488Z" fill="white"/>
<path opacity="0.7" d="M299.118 131.142H210.638L211.391 121.484H299.871L299.118 131.142Z" fill="white"/>
<path opacity="0.7" d="M263.31 144.58H204.408L204.602 142.087H263.504L263.31 144.58Z" fill="white"/>
<path opacity="0.7" d="M262.75 151.766H203.848L204.042 149.274H262.944L262.75 151.766Z" fill="white"/>
<path opacity="0.7" d="M262.19 158.953H203.288L203.482 156.459H262.384L262.19 158.953Z" fill="white"/>
<path opacity="0.7" d="M261.63 166.139H202.728L202.922 163.645H261.824L261.63 166.139Z" fill="white"/>
<path opacity="0.7" d="M300.282 166.138H276.249L278.124 142.087H302.156L300.282 166.138Z" fill="white"/>
<path opacity="0.7" d="M260.473 180.972H201.571L201.765 178.478H260.668L260.473 180.972Z" fill="white"/>
<path opacity="0.7" d="M259.913 188.158H201.011L201.205 185.665H260.107L259.913 188.158Z" fill="white"/>
<path opacity="0.7" d="M259.353 195.344H200.451L200.645 192.851H259.548L259.353 195.344Z" fill="white"/>
<path opacity="0.7" d="M258.793 202.53H199.891L200.085 200.037H258.988L258.793 202.53Z" fill="white"/>
<path opacity="0.7" d="M297.445 202.53H273.413L275.288 178.478H299.32L297.445 202.53Z" fill="white"/>
<path opacity="0.7" d="M257.637 217.364H198.735L198.929 214.87H257.832L257.637 217.364Z" fill="white"/>
<path opacity="0.7" d="M257.077 224.55H198.175L198.369 222.056H257.272L257.077 224.55Z" fill="white"/>
<path opacity="0.7" d="M256.517 231.735H197.615L197.809 229.243H256.711L256.517 231.735Z" fill="white"/>
<path opacity="0.7" d="M255.957 238.922H197.055L197.249 236.428H256.151L255.957 238.922Z" fill="white"/>
<path opacity="0.7" d="M294.608 238.922H270.576L272.451 214.87H296.483L294.608 238.922Z" fill="white"/>
<path opacity="0.7" d="M254.801 253.755H195.899L196.093 251.262H254.995L254.801 253.755Z" fill="white"/>
<path opacity="0.7" d="M254.24 260.941H195.339L195.533 258.448H254.435L254.24 260.941Z" fill="white"/>
<path opacity="0.7" d="M253.68 268.127H194.779L194.972 265.634H253.875L253.68 268.127Z" fill="white"/>
<path opacity="0.7" d="M253.12 275.313H194.218L194.412 272.82H253.315L253.12 275.313Z" fill="white"/>
<path opacity="0.7" d="M291.772 275.313H267.739L269.614 251.262H293.647L291.772 275.313Z" fill="white"/>
<path d="M158 203.03V224.787C158 229.076 156.346 233.2 153.381 236.3L133.072 257.54H144.57L165.666 236.781C168.848 233.65 170.64 229.372 170.64 224.907V203.03H158Z" fill="#407BFF"/>
<path opacity="0.4" d="M170.64 203.03V224.905C170.64 226.145 170.506 227.361 170.229 228.546C169.542 231.652 167.97 234.519 165.663 236.778L144.57 257.54H133.076L153.379 236.297C156.349 233.2 158 229.076 158 224.787V203.03H170.64Z" fill="white"/>
<path opacity="0.2" d="M170.64 203.03V224.905C170.64 226.145 170.506 227.361 170.229 228.546L158 223.61V203.03H170.64Z" fill="black"/>
<path d="M125.087 259.91L108.076 324.741C107.759 325.951 106.663 326.797 105.411 326.797H75.0052C74.494 326.797 74.0216 326.565 73.7096 326.16C73.3967 325.755 73.2924 325.239 73.422 324.745L90.4449 259.91H87.1775L70.3655 323.943C69.9855 325.392 70.292 326.904 71.2076 328.09C72.1224 329.277 73.5065 329.957 75.0052 329.957H105.411C108.098 329.957 110.451 328.142 111.133 325.543L128.355 259.91H125.087Z" fill="#407BFF"/>
<g opacity="0.4">
<path opacity="0.4" d="M125.087 259.91L108.076 324.741C107.759 325.951 106.663 326.797 105.411 326.797H75.0052C74.494 326.797 74.0216 326.565 73.7096 326.16C73.3967 325.755 73.2924 325.239 73.422 324.745L90.4449 259.91H87.1775L70.3655 323.943C69.9855 325.392 70.292 326.904 71.2076 328.09C72.1224 329.277 73.5065 329.957 75.0052 329.957H105.411C108.098 329.957 110.451 328.142 111.133 325.543L128.355 259.91H125.087Z" fill="white"/>
</g>
<path d="M132.048 329.957L113.445 259.015L110.388 259.816L128.782 329.957H132.048Z" fill="#407BFF"/>
<path d="M169.968 329.957L151.365 259.015L148.308 259.816L166.702 329.957H169.968Z" fill="#407BFF"/>
<g opacity="0.5">
<path opacity="0.5" d="M132.048 329.957L113.445 259.015L110.388 259.816L128.782 329.957H132.048Z" fill="white"/>
</g>
<g opacity="0.5">
<path opacity="0.5" d="M169.968 329.957L151.365 259.015L148.308 259.816L166.702 329.957H169.968Z" fill="white"/>
</g>
<path opacity="0.2" d="M87.1766 259.91H90.4472L87.8797 269.682L84.854 268.758L87.1766 259.91Z" fill="black"/>
<path opacity="0.2" d="M113.444 259.017L117.671 275.141L114.123 274.067L110.387 259.815L113.444 259.017Z" fill="black"/>
<path opacity="0.2" d="M125.089 259.91H128.351L122.995 280.371L119.961 279.447L125.089 259.91Z" fill="black"/>
<path opacity="0.2" d="M158.829 287.678L155.267 286.588L148.307 260.013L151.364 259.144L158.829 287.678Z" fill="black"/>
<path d="M84.2954 260.995L69.4877 181.025L69.2886 179.816C69.005 178.266 69.3921 176.697 70.3567 175.54C71.2912 174.418 72.6414 173.8 74.1582 173.8H106.137C109.084 173.8 111.939 176.254 112.502 179.269L112.739 180.619L127.504 260.405L124.397 260.981L109.585 180.95L109.391 179.829C109.108 178.311 107.585 176.961 106.137 176.961H74.1574C73.587 176.961 73.1114 177.169 72.7828 177.564C72.4209 177.998 72.2819 178.622 72.4012 179.276L72.6256 180.6L87.4033 260.421L84.2954 260.995Z" fill="#407BFF"/>
<g opacity="0.5">
<path opacity="0.5" d="M84.2954 260.995L69.4877 181.025L69.2886 179.816C69.005 178.266 69.3921 176.697 70.3567 175.54C71.2912 174.418 72.6414 173.8 74.1582 173.8H106.137C109.084 173.8 111.939 176.254 112.502 179.269L112.739 180.619L127.504 260.405L124.397 260.981L109.585 180.95L109.391 179.829C109.108 178.311 107.585 176.961 106.137 176.961H74.1574C73.587 176.961 73.1114 177.169 72.7828 177.564C72.4209 177.998 72.2819 178.622 72.4012 179.276L72.6256 180.6L87.4033 260.421L84.2954 260.995Z" fill="white"/>
</g>
<path d="M151.531 253.063H90.7527C88.5715 253.063 86.8027 254.832 86.8027 257.013V262.297H155.481V257.013C155.481 254.832 153.712 253.063 151.531 253.063Z" fill="#407BFF"/>
<path d="M156.425 257.681H85.8587C84.981 257.681 84.27 258.392 84.27 259.27V260.71C84.27 261.586 84.981 262.298 85.8587 262.298H156.425C157.302 262.298 158.013 261.587 158.013 260.71V259.27C158.013 258.392 157.302 257.681 156.425 257.681Z" fill="#407BFF"/>
<path opacity="0.6" d="M156.425 257.681H85.8587C84.981 257.681 84.27 258.392 84.27 259.27V260.71C84.27 261.586 84.981 262.298 85.8587 262.298H156.425C157.302 262.298 158.013 261.587 158.013 260.71V259.27C158.013 258.392 157.302 257.681 156.425 257.681Z" fill="white"/>
<path d="M117.181 213.3H77.0248L71.0366 180.91H111.184L117.125 213L117.181 213.3Z" fill="#407BFF"/>
<path d="M156.682 144.277C156.682 144.277 151.635 132.551 151.195 131.296C150.754 130.043 151.274 123.695 150.891 122.565C150.509 121.436 144.638 120.693 143.397 120.837C142.157 120.981 143.254 130.788 143.763 131.567C144.273 132.347 146.018 133.717 146.018 133.717L150.48 147.177L156.682 144.277Z" fill="#B97964"/>
<path d="M131.116 166.409C134.563 166.954 148.662 168.987 151.812 166.888C154.358 165.191 147.189 137.69 147.189 137.69L153.568 135.094C153.568 135.094 168.712 168.441 160.622 176.059C156.51 179.93 144.965 180.91 128.35 180.91L131.116 166.409Z" fill="#407BFF"/>
<path opacity="0.8" d="M131.116 166.409C134.563 166.954 148.662 168.987 151.812 166.888C154.358 165.191 147.189 137.69 147.189 137.69L153.568 135.094C153.568 135.094 168.712 168.441 160.622 176.059C156.51 179.93 144.965 180.91 128.35 180.91L131.116 166.409Z" fill="white"/>
<path opacity="0.1" d="M136.978 180.799C134.529 180.871 131.914 180.902 129.165 180.902L131.535 171.825C131.535 171.825 135.548 175.412 136.978 180.799Z" fill="black"/>
<path d="M151.021 185.641L167.743 203.32" stroke="#2E353A" stroke-width="2" stroke-miterlimit="10"/>
<path d="M139.04 196.052C139.04 196.052 151.8 195.657 153.122 195.525C154.445 195.393 159.975 192.233 161.16 192.102C162.345 191.97 165.505 196.973 165.9 198.158C166.295 199.343 156.946 202.503 156.025 202.372C155.103 202.24 153.122 201.239 153.122 201.239L139.04 202.898V196.052Z" fill="#B97964"/>
<path d="M131.538 323.764L137.831 322.901L138.703 307.941L132.419 308.811L131.538 323.764Z" fill="#B97964"/>
<path d="M138.305 322.142L131.195 321.698C130.948 321.672 130.726 321.85 130.7 322.098C130.7 322.1 130.7 322.103 130.699 322.105L130.001 327.715C129.963 328.328 130.425 328.857 131.038 328.904C133.521 329.018 134.713 328.949 137.843 329.119C139.763 329.234 143.548 329.642 146.198 329.385C148.848 329.129 148.524 326.516 147.379 326.392C144.665 326.082 141.071 324.088 139.373 322.575C139.074 322.317 138.699 322.164 138.305 322.142Z" fill="#2E353A"/>
<path d="M140.486 323.36C139.917 323.311 139.354 323.199 138.808 323.027C138.752 323.014 138.71 322.967 138.703 322.909C138.698 322.852 138.723 322.795 138.77 322.761C138.981 322.632 140.853 321.522 141.611 321.87C141.785 321.952 141.904 322.119 141.927 322.311C142.013 322.604 141.923 322.92 141.694 323.123C141.336 323.351 140.904 323.436 140.486 323.36ZM141.487 322.166C141.082 321.979 139.996 322.444 139.231 322.865C140.351 323.159 141.184 323.176 141.502 322.902C141.637 322.766 141.689 322.569 141.641 322.384C141.63 322.288 141.573 322.206 141.487 322.166Z" fill="#407BFF"/>
<path d="M138.841 323.033C138.821 323.042 138.798 323.044 138.778 323.038C138.736 323.01 138.71 322.966 138.704 322.917C138.707 322.862 138.677 321.009 139.349 320.429C139.529 320.282 139.764 320.221 139.993 320.264C140.252 320.288 140.462 320.486 140.501 320.743C140.6 321.441 139.574 322.709 138.921 323.042C138.894 323.051 138.864 323.048 138.841 323.033ZM139.869 320.567C139.75 320.557 139.632 320.599 139.545 320.681C139.139 321.026 139.029 322.066 139.007 322.662C139.582 322.232 140.245 321.272 140.206 320.808C140.199 320.722 140.15 320.614 139.94 320.576L139.869 320.567Z" fill="#407BFF"/>
<path opacity="0.2" d="M132.419 308.811L138.704 307.949L138.203 316.5L131.927 317.051L132.419 308.811Z" fill="black"/>
<path d="M131.791 235.823L130.255 226.204L94.9737 224.093C94.9737 224.093 91.222 244.11 94.1047 249.443C99.2508 258.963 126.983 254.158 135.098 255.093C130.247 274.93 130.721 313.696 130.721 313.696L142.311 314.581C142.311 314.581 151.228 272.808 153.031 252.961C154.247 239.568 143.15 239.901 131.791 235.823Z" fill="#2E353A"/>
<path d="M129.362 314.241L143.29 315.158L144.483 309.193L129.181 308.482L129.362 314.241Z" fill="#407BFF"/>
<path d="M146.056 318.178L152.39 318.644L156.36 304.194L150.032 303.737L146.056 318.178Z" fill="#B97964"/>
<path d="M153.013 318.001L146.151 316.086C145.915 316.009 145.661 316.137 145.583 316.374C145.582 316.376 145.581 316.378 145.58 316.381L143.73 321.721C143.565 322.313 143.906 322.927 144.496 323.1C146.901 323.729 148.081 323.909 151.106 324.729C152.961 325.241 156.578 326.428 159.223 326.729C161.868 327.031 162.095 324.408 161.002 324.047C158.411 323.179 155.311 320.479 153.966 318.646C153.729 318.331 153.393 318.104 153.013 318.001Z" fill="#2E353A"/>
<path d="M154.891 319.647C154.344 319.48 153.817 319.253 153.32 318.972C153.267 318.948 153.235 318.892 153.242 318.835C153.249 318.777 153.285 318.727 153.338 318.703C153.571 318.621 155.633 317.925 156.303 318.424C156.455 318.541 156.537 318.729 156.519 318.921C156.543 319.226 156.388 319.516 156.123 319.667C155.724 319.814 155.284 319.807 154.891 319.647ZM156.119 318.687C155.762 318.419 154.603 318.647 153.767 318.901C154.8 319.421 155.612 319.61 155.98 319.41C156.139 319.305 156.232 319.123 156.223 318.932C156.235 318.837 156.195 318.744 156.119 318.687Z" fill="#407BFF"/>
<path d="M153.351 318.983C153.329 318.989 153.307 318.985 153.288 318.975C153.254 318.94 153.236 318.891 153.241 318.842C153.256 318.788 153.612 316.969 154.39 316.542C154.597 316.435 154.84 316.426 155.055 316.514C155.303 316.593 155.467 316.83 155.452 317.09C155.403 317.793 154.135 318.819 153.427 319.009C153.4 319.012 153.371 319.003 153.351 318.983ZM154.87 316.786C154.755 316.752 154.632 316.769 154.53 316.831C154.06 317.082 153.736 318.076 153.592 318.656C154.243 318.356 155.092 317.554 155.15 317.093C155.161 317.007 155.135 316.892 154.939 316.811L154.87 316.786Z" fill="#407BFF"/>
<path opacity="0.2" d="M150.032 303.737L156.359 304.201L154.089 312.462L147.835 311.693L150.032 303.737Z" fill="black"/>
<path d="M158.505 311.442L147.351 308.163C147.351 308.163 154.01 270.575 160.765 257.54C160.259 257.374 159.588 257.161 158.758 256.916C157.265 256.466 155.282 255.905 152.952 255.257C136.741 250.762 103.885 242.333 103.885 242.333L118.895 228.326C118.895 228.326 178.682 237.442 179.922 253.195C180.515 260.771 158.505 311.442 158.505 311.442Z" fill="#2E353A"/>
<path d="M145.911 308.41L159.343 312.207L161.752 306.623L146.933 302.74L145.911 308.41Z" fill="#407BFF"/>
<path opacity="0.2" d="M158.758 256.916C157.265 256.466 155.282 255.905 152.952 255.257C153.418 251.432 153.426 247.048 151.585 244.812C147.927 240.357 138.518 237.743 133.162 236.795C128.683 236.005 113.633 234.432 113.633 234.432C113.633 234.432 133.162 232.56 153.125 238.382C162.993 241.266 161.073 250.912 158.758 256.916Z" fill="black"/>
<path d="M131.116 166.409C131.116 166.409 136.235 185.369 130.255 226.204C119.108 225.966 100.377 225.532 94.9498 225.414C94.8155 219.726 99.0104 191.855 94.1045 164.971C97.6366 164.358 101.209 164.004 104.793 163.912C110.038 163.723 115.29 163.836 120.522 164.252C124.104 164.693 127.646 165.414 131.116 166.409Z" fill="#407BFF"/>
<path opacity="0.7" d="M131.116 166.409C131.116 166.409 136.235 185.369 130.255 226.204C119.108 225.966 100.377 225.532 94.9498 225.414C94.8155 219.726 99.0104 191.855 94.1045 164.971C97.6366 164.358 101.209 164.004 104.793 163.912C110.038 163.723 115.29 163.836 120.522 164.252C124.104 164.693 127.646 165.414 131.116 166.409Z" fill="white"/>
<path opacity="0.1" d="M106.515 199.609C103.379 198.914 99.5871 195.873 96.4824 192.871C96.4587 187.53 96.2217 181.85 95.645 176.059C100.037 182.561 111.935 200.802 106.515 199.609Z" fill="black"/>
<path d="M94.1046 164.971C82.0279 169.324 103.227 202.03 109.81 205.4C116.393 208.77 149.837 201.713 149.837 201.713L148.52 194.948C148.52 194.948 118.929 195.703 116.201 195.014C113.473 194.325 106.995 180.383 103.267 173.8C99.5398 167.217 94.1046 164.971 94.1046 164.971Z" fill="#407BFF"/>
<path opacity="0.8" d="M94.1046 164.971C82.0279 169.324 103.227 202.03 109.81 205.4C116.393 208.77 149.837 201.713 149.837 201.713L148.52 194.948C148.52 194.948 118.929 195.703 116.201 195.014C113.473 194.325 106.995 180.383 103.267 173.8C99.5398 167.217 94.1046 164.971 94.1046 164.971Z" fill="white"/>
<path d="M146.15 194.34L147.862 203.32L151.022 202.24L149.837 194.34H146.15Z" fill="#407BFF"/>
<path opacity="0.7" d="M146.15 194.34L147.862 203.32L151.022 202.24L149.837 194.34H146.15Z" fill="white"/>
<path d="M147.002 139.654L155.502 136.29L153.849 133.388L146.311 136.032L147.002 139.654Z" fill="#407BFF"/>
<path opacity="0.7" d="M147.002 139.654L155.502 136.29L153.849 133.388L146.311 136.032L147.002 139.654Z" fill="white"/>
<path opacity="0.1" d="M102.89 163.987C102.89 163.987 103.114 167.677 110.363 171.233L115.375 167.61C115.375 167.61 116.803 176.861 117.701 183.774C117.701 183.774 117.641 172.714 116.688 168.467L120.522 169.827C120.522 169.827 117.256 164.221 111.707 162.937C106.157 161.654 102.89 163.987 102.89 163.987Z" fill="black"/>
<path d="M106.729 146.28C107.614 151.359 108.404 160.65 104.793 163.952L115.376 166.887L120.522 164.292C114.906 162.822 115.142 158.635 116.209 154.725L106.729 146.28Z" fill="#B97964"/>
<path opacity="0.2" d="M110.592 149.723L116.201 154.724C115.94 155.634 115.758 156.565 115.656 157.505C113.507 157.149 110.6 154.716 110.418 152.457C110.306 151.543 110.365 150.616 110.592 149.723Z" fill="black"/>
<path d="M114.21 132.162C111.911 134.659 113.894 137.511 121.233 140.979C122.979 137.131 121.913 130.709 119.543 129.587C117.173 128.465 116.217 129.998 114.21 132.162Z" fill="#2E353A"/>
<path d="M103.648 140.015C105.511 146.627 106.27 150.585 110.394 153.295C116.603 157.363 124.211 152.505 124.361 145.466C124.488 139.146 121.423 129.389 114.289 128.149C109.196 127.237 104.327 130.626 103.414 135.719C103.158 137.15 103.238 138.621 103.648 140.015Z" fill="#B97964"/>
<path d="M114.052 139.682C114.171 140.227 114.558 140.607 114.913 140.528C115.269 140.449 115.458 139.951 115.34 139.406C115.221 138.861 114.842 138.482 114.487 138.553C114.131 138.624 113.973 139.138 114.052 139.682Z" fill="#2E353A"/>
<path d="M120.254 138.348C120.372 138.893 120.759 139.272 121.115 139.193C121.47 139.114 121.668 138.617 121.549 138.064C121.431 137.511 121.044 137.139 120.688 137.218C120.333 137.297 120.135 137.803 120.254 138.348Z" fill="#2E353A"/>
<path d="M118.287 139.043C119.299 140.569 120.516 141.95 121.905 143.143C121.115 144.257 119.401 144.194 119.401 144.194L118.287 139.043Z" fill="#A24E3F"/>
<path d="M111.935 138.095C111.866 138.119 111.79 138.119 111.722 138.095C111.557 138.02 111.483 137.827 111.556 137.661C111.975 136.69 112.842 135.985 113.878 135.773C114.05 135.741 114.215 135.855 114.246 136.026C114.247 136.034 114.249 136.042 114.25 136.049C114.269 136.226 114.148 136.388 113.973 136.42C113.159 136.601 112.483 137.162 112.156 137.929C112.11 138.013 112.029 138.073 111.935 138.095Z" fill="#2E353A"/>
<path d="M122.623 135.646C122.499 135.672 122.371 135.626 122.292 135.528C121.796 134.856 121.009 134.463 120.174 134.469C119.994 134.483 119.836 134.349 119.819 134.169C119.805 133.991 119.934 133.834 120.111 133.813C121.168 133.79 122.172 134.278 122.805 135.125C122.917 135.265 122.894 135.468 122.754 135.58C122.752 135.581 122.751 135.581 122.75 135.582C122.712 135.611 122.669 135.634 122.623 135.646Z" fill="#2E353A"/>
<path d="M105.03 133.497C108.396 133.892 108.743 137.353 105.425 144.755C101.593 142.97 98.2204 137.392 99.3027 135.006C100.385 132.621 102.091 133.158 105.03 133.497Z" fill="#2E353A"/>
<path d="M101.618 146.066C102.437 147.589 103.826 148.726 105.481 149.226C107.677 149.866 108.799 147.907 108.214 145.821C107.685 143.941 105.899 141.342 103.687 141.619C101.475 141.895 100.622 144.193 101.618 146.066Z" fill="#B97964"/>
<path d="M99.6029 134.453C99.6029 134.453 97.9328 132.3 101.205 128.001C104.477 123.701 112.382 122.384 118.47 123.569C124.557 124.754 120.935 131.469 118.763 132.589L119.027 131.536C119.027 131.536 115.287 133.576 111.528 133.576L112.722 132.457C112.722 132.457 103.155 134.936 99.6029 134.453Z" fill="#2E353A"/>
<path d="M118.995 146.01C118.804 146.89 118.77 148.466 118.77 148.466C118.626 148.489 118.483 148.512 118.339 148.527C116.387 148.786 115.394 148.262 114.887 147.601C114.611 147.239 114.484 146.83 114.425 146.491C114.353 146.099 114.392 145.803 114.392 145.803C115.51 146.284 117.349 146.183 118.328 146.088C118.739 146.051 118.995 146.01 118.995 146.01Z" fill="#2E353A"/>
<path d="M118.328 146.087L118.243 146.81C116.403 147.05 115.075 146.972 114.425 146.49C114.353 146.098 114.392 145.802 114.392 145.802C115.509 146.283 117.348 146.182 118.328 146.087Z" fill="white"/>
<path d="M118.339 148.526C116.386 148.785 115.393 148.261 114.886 147.6C115.555 147.537 116.369 147.536 117.112 147.743C117.681 147.897 118.067 148.202 118.339 148.526Z" fill="#A24E3F"/>
<path d="M106.642 160.826C106.642 160.826 112.349 165.11 115.374 166.097C115.374 166.097 116.775 163.455 116.2 161.281L120.521 164.292C120.521 164.292 121.359 167.04 120.521 169.827L115.374 166.887L110.502 170.442C110.502 170.442 103.304 168.358 102.889 163.987L106.642 160.826Z" fill="#407BFF"/>
<path opacity="0.8" d="M106.642 160.826C106.642 160.826 112.349 165.11 115.374 166.097C115.374 166.097 116.775 163.455 116.2 161.281L120.521 164.292C120.521 164.292 121.359 167.04 120.521 169.827L115.374 166.887L110.502 170.442C110.502 170.442 103.304 168.358 102.889 163.987L106.642 160.826Z" fill="white"/>
<path d="M200.799 205.504H122.051C121.542 205.504 121.129 205.092 121.129 204.582V202.265C121.129 201.756 121.542 201.343 122.051 201.343H200.799C201.307 201.343 201.72 201.756 201.72 202.265V204.582C201.72 205.091 201.307 205.504 200.799 205.504Z" fill="#407BFF"/>
<path opacity="0.5" d="M201.45 202.161V204.476C201.45 204.989 201.307 205.4 200.802 205.4H122.055C121.541 205.4 120.87 204.989 120.87 204.476V202.161C120.87 201.655 121.541 201.45 122.055 201.45H200.802C201.307 201.45 201.45 201.655 201.45 202.161Z" fill="white"/>
<path opacity="0.2" d="M154.05 202.161V204.476C154.05 204.989 153.876 205.4 153.37 205.4H122.055C121.541 205.4 120.87 204.989 120.87 204.476V202.161C120.87 201.655 121.541 201.45 122.055 201.45H153.37C153.876 201.45 154.05 201.655 154.05 202.161Z" fill="black"/>
<path d="M136.161 86.2135C133.834 77.6728 124.63 72.8491 116.147 76.0865C109.532 78.6114 105.518 85.6036 106.666 92.5904C107.553 97.9885 111.135 102.193 115.699 104.144C116.705 104.574 117.531 105.339 117.975 106.339L118.494 107.506L133.034 103.544L132.889 102.28C132.764 101.183 133.098 100.1 133.751 99.2098C136.392 95.6114 137.424 90.8469 136.161 86.2135Z" fill="#407BFF"/>
<path d="M123.242 107.537C123.242 107.537 121.054 100.667 117.185 97.6275L119.329 97.0437L119.498 93.7517L122.992 98.814L122.709 92.6528L126.161 98.2705L126.511 95.086L129.57 94.2526C129.57 94.2526 126.867 99.3963 128.719 106.194" stroke="white" stroke-miterlimit="10" stroke-linecap="round" stroke-linejoin="round"/>
<path d="M132.103 110.457C131.3 107.51 128.563 105.69 125.989 106.391C123.416 107.092 121.98 110.05 122.783 112.997C123.586 115.944 126.324 117.764 128.897 117.063C131.471 116.362 132.906 113.404 132.103 110.457Z" fill="#2E353A"/>
<path d="M130.949 114.347L125.769 115.759C123.2 116.459 120.525 115.06 119.636 112.55L117.937 107.758C117.795 107.356 118.023 106.918 118.435 106.806L132.728 102.911C133.139 102.799 133.559 103.06 133.639 103.479L134.606 108.471C135.113 111.084 133.519 113.647 130.949 114.347Z" fill="#407BFF"/>
<path opacity="0.4" d="M130.949 114.347L125.769 115.759C123.2 116.459 120.525 115.06 119.636 112.55L117.937 107.758C117.795 107.356 118.023 106.918 118.435 106.806L132.728 102.911C133.139 102.799 133.559 103.06 133.639 103.479L134.606 108.471C135.113 111.084 133.519 113.647 130.949 114.347Z" fill="white"/>
<path d="M101.422 101.317C100.003 101.059 98.5626 100.924 97.1272 100.915C96.4107 100.918 95.6942 100.944 94.9871 101.032C94.6363 101.087 94.2809 101.128 93.9388 101.218C93.7674 101.262 93.5912 101.288 93.4261 101.349L92.9244 101.51L92.3556 101.692L92.6945 101.194C93.6528 99.7873 94.423 98.2215 94.9626 96.6083C95.2312 95.7994 95.4366 94.9714 95.5567 94.1356C95.6128 93.7177 95.6602 93.2982 95.6712 92.8795C95.6878 92.4608 95.6886 92.0405 95.6507 91.6266C95.627 91.2102 95.5559 90.8002 95.4793 90.3926L95.3315 89.7898L95.134 89.2021C94.9816 88.8197 94.8331 88.4318 94.6213 88.0779C94.4357 87.709 94.1947 87.3724 93.9617 87.0311C93.6978 86.7128 93.46 86.3731 93.1567 86.0863L92.7198 85.6423L92.245 85.2355C91.9409 84.9519 91.5806 84.7291 91.2496 84.4755C90.9044 84.2377 90.5386 84.0291 90.1847 83.8032L89.3623 83.2786L90.2376 82.8592C90.6579 82.6577 91.1011 82.4112 91.5222 82.1624C91.9448 81.908 92.3619 81.6433 92.768 81.3637C93.5825 80.8067 94.3567 80.1937 95.0811 79.5325C95.4429 79.2007 95.789 78.8554 96.1247 78.5007C96.4549 78.1413 96.7709 77.7716 97.0695 77.3884C97.3611 77.0013 97.6439 76.6087 97.8943 76.1971C98.1424 75.7855 98.392 75.3731 98.5863 74.9362C98.802 74.5089 98.9663 74.0601 99.1243 73.6122L99.329 72.9296L99.4767 72.2337C99.5494 71.7668 99.6315 71.2967 99.6323 70.8219C99.6663 70.3479 99.6323 69.8731 99.6054 69.3991C99.5407 68.9275 99.5043 68.4503 99.3827 67.9858L99.2207 67.2859L99.0003 66.5986C98.8715 66.1349 98.6543 65.6964 98.4805 65.2469C98.2861 64.8029 98.0515 64.3747 97.8398 63.9379L96.7125 61.6074L98.8739 62.9986C99.2563 63.245 99.6916 63.4963 100.117 63.723C100.547 63.9521 100.983 64.1725 101.426 64.3739C102.312 64.7808 103.22 65.1347 104.146 65.4167C104.609 65.5574 105.075 65.683 105.544 65.7825C106.012 65.8836 106.485 65.9713 106.957 66.0195C107.43 66.0819 107.903 66.1056 108.372 66.104C108.843 66.1096 109.308 66.0701 109.769 66.0116L110.451 65.8915L111.118 65.7162C111.551 65.5668 111.98 65.4081 112.382 65.1916C112.593 65.1023 112.778 64.9672 112.973 64.8487C113.171 64.7342 113.359 64.6054 113.533 64.4561C113.905 64.1907 114.224 63.8565 114.559 63.5413C114.856 63.1842 115.183 62.8548 115.435 62.4558C115.717 62.0814 115.955 61.6729 116.183 61.2558C116.43 60.8529 116.595 60.3963 116.808 59.9689C116.991 59.5257 117.147 59.0675 117.32 58.6172L118.312 56.0292L118.798 58.7318C118.87 59.1315 118.998 59.6039 119.137 60.0345C119.277 60.4737 119.442 60.9066 119.63 61.3277C120.004 62.1714 120.462 62.9764 121.017 63.7024C121.569 64.4292 122.211 65.081 122.935 65.6214C123.294 65.8955 123.678 66.1341 124.076 66.3482C124.472 66.5662 124.892 66.736 125.314 66.9012C125.747 67.0378 126.179 67.1761 126.631 67.2582C127.075 67.3625 127.535 67.4052 127.992 67.4518C128.452 67.4786 128.914 67.5055 129.38 67.4794C129.844 67.4834 130.31 67.4194 130.776 67.3775C131.241 67.3278 131.704 67.229 132.168 67.1579L133.549 66.8293L134.915 66.4177L136.263 65.9358L138.14 65.2651L137.062 66.9296C136.871 67.2251 136.666 67.5758 136.486 67.9139C136.306 68.2584 136.137 68.6076 135.982 68.9646C135.67 69.6764 135.422 70.4143 135.246 71.1624C135.071 71.9105 134.975 72.6729 134.986 73.4281C134.998 74.1826 135.121 74.9283 135.372 75.6307L135.582 76.1481L135.842 76.6434C136.042 76.9586 136.243 77.2762 136.495 77.559C136.722 77.8592 137.013 78.1113 137.288 78.3727C137.583 78.6169 137.875 78.8641 138.205 79.0695C138.516 79.2986 138.865 79.4764 139.203 79.6699C139.544 79.8587 139.91 80.0065 140.263 80.1779L141.37 80.6005L142.506 80.9529L143.324 81.2065L142.656 81.7176C142.228 82.0462 141.793 82.446 141.404 82.8576C141.005 83.266 140.644 83.7116 140.307 84.1706C140.126 84.3933 139.984 84.6398 139.831 84.8792C139.668 85.1154 139.543 85.3698 139.416 85.6242C139.278 85.8738 139.162 86.1329 139.072 86.4015C138.976 86.6677 138.857 86.9284 138.808 87.2081C138.752 87.4846 138.658 87.7564 138.629 88.0376L138.552 88.8837C138.549 89.1657 138.583 89.4493 138.597 89.7329C138.595 90.0197 138.672 90.2954 138.737 90.5735C138.814 90.8476 138.834 91.1399 138.957 91.4006L139.281 92.2001C139.37 92.4766 139.548 92.7105 139.688 92.9625L140.131 93.7114L140.293 93.9847L139.991 93.9863C138.834 93.9918 137.657 94.1404 136.531 94.4445C135.971 94.6065 135.415 94.8016 134.901 95.0852C134.769 95.1492 134.652 95.2377 134.526 95.3135C134.399 95.387 134.281 95.4754 134.17 95.571C134.061 95.6682 133.932 95.7464 133.839 95.8602L133.537 96.1833L133.822 95.8436C133.91 95.7235 134.034 95.6382 134.14 95.5347C134.247 95.4312 134.361 95.3364 134.486 95.255C134.609 95.1721 134.724 95.0749 134.854 95.003C135.359 94.687 135.913 94.4587 136.476 94.2628C137.609 93.8836 138.79 93.6972 139.991 93.6395L139.85 93.9144L139.361 93.1592C139.206 92.9024 139.013 92.6662 138.906 92.3818L138.532 91.5555C138.392 91.2853 138.355 90.9764 138.262 90.688C138.181 90.3942 138.09 90.1019 138.077 89.7946C138.049 89.4912 138.003 89.1863 137.993 88.8813L138.04 87.9626C138.059 87.6568 138.146 87.3598 138.196 87.0572C138.24 86.7507 138.354 86.4663 138.447 86.1748C138.533 85.8793 138.647 85.5957 138.784 85.3224C138.909 85.0427 139.034 84.7638 139.196 84.5047C139.35 84.2417 139.494 83.9715 139.675 83.7266C140.012 83.2186 140.392 82.7422 140.804 82.2951C141.216 81.8408 141.639 81.4253 142.137 81.024L142.286 81.7887L141.091 81.4498L139.914 81.0335C139.532 80.8612 139.14 80.7135 138.767 80.5184C138.395 80.3193 138.015 80.1352 137.665 79.8927C137.3 79.6755 136.965 79.4092 136.629 79.143C136.31 78.8562 135.977 78.5781 135.704 78.2392C135.408 77.9209 135.162 77.559 134.921 77.1941L134.602 76.6197L134.339 76.017C134.023 75.1977 133.858 74.3264 133.824 73.4613C133.789 72.5947 133.878 71.7328 134.051 70.8986C134.226 70.0635 134.478 69.2514 134.798 68.4685C134.956 68.0767 135.132 67.6927 135.318 67.3135C135.512 66.9312 135.701 66.5725 135.951 66.1862L136.75 67.18L135.344 67.6951L133.91 68.1399C133.425 68.2694 132.933 68.3808 132.445 68.5009C131.946 68.5831 131.452 68.6913 130.948 68.749C130.442 68.7995 129.939 68.8714 129.426 68.873C128.915 68.9046 128.402 68.8809 127.887 68.854C127.376 68.8066 126.858 68.7616 126.351 68.6486C125.84 68.5586 125.34 68.4061 124.841 68.2513C124.351 68.0664 123.866 67.8721 123.402 67.624C122.939 67.3791 122.489 67.105 122.069 66.7906C121.224 66.1696 120.477 65.4231 119.843 64.6007C119.205 63.7791 118.684 62.8801 118.261 61.9431C118.046 61.4754 117.859 60.9959 117.698 60.5069C117.536 60.0092 117.398 59.5407 117.292 58.9806L118.77 59.0944C118.588 59.585 118.423 60.0795 118.227 60.5654C117.997 61.0409 117.82 61.5363 117.547 61.9945C117.297 62.4621 117.031 62.9227 116.713 63.358C116.429 63.8115 116.052 64.2088 115.706 64.6228C115.319 65.0052 114.934 65.3923 114.485 65.7098C114.273 65.8844 114.047 66.0377 113.808 66.1751C113.573 66.3166 113.347 66.473 113.093 66.582C112.605 66.8372 112.091 67.026 111.571 67.1982L110.778 67.4004C110.512 67.4534 110.244 67.4905 109.977 67.5347C109.44 67.5995 108.902 67.639 108.367 67.6295C107.833 67.6264 107.299 67.594 106.776 67.5213C106.249 67.4621 105.732 67.3625 105.22 67.2472C104.707 67.1342 104.203 66.9936 103.706 66.838C102.711 66.5251 101.746 66.1404 100.809 65.7011C100.339 65.4831 99.8804 65.2461 99.4253 64.9988C98.9663 64.7484 98.5326 64.4948 98.0721 64.193L99.1062 63.2537C99.3329 63.7277 99.5802 64.1907 99.7879 64.6749C99.976 65.1687 100.203 65.6443 100.344 66.1578L100.58 66.917L100.755 67.6967C100.884 68.2133 100.926 68.7513 100.991 69.2798C101.019 69.8155 101.05 70.3503 101.009 70.8883C101.001 71.4255 100.907 71.9587 100.819 72.4865L100.644 73.2733L100.408 74.042C100.227 74.5452 100.037 75.0468 99.7935 75.5216C99.5691 76.0051 99.2966 76.4641 99.0082 76.9081C98.7214 77.3544 98.4023 77.7755 98.0744 78.1879C97.741 78.5955 97.3903 78.9858 97.0269 79.3626C96.658 79.7339 96.2795 80.0934 95.8869 80.4362C95.1009 81.1204 94.269 81.7453 93.4 82.3093C92.9663 82.5929 92.5231 82.8599 92.072 83.1159C91.6146 83.3695 91.1682 83.6065 90.6713 83.8309L90.7243 82.8876C91.0979 83.1364 91.4803 83.3687 91.8437 83.6326C92.1953 83.9138 92.5713 84.1611 92.8968 84.4771L93.3992 84.9313L93.8653 85.4267C94.1853 85.7466 94.4436 86.1266 94.7217 86.4837C94.9705 86.8652 95.2249 87.2429 95.4216 87.6552C95.6444 88.0526 95.8 88.4847 95.9572 88.9105L96.1579 89.5631L96.304 90.2283C96.3783 90.6754 96.4439 91.1249 96.4589 91.576C96.5474 93.3843 96.1626 95.1642 95.5425 96.8145C95.232 97.6416 94.8599 98.4427 94.4381 99.2145C94.0138 99.9871 93.5572 100.731 93.02 101.442L92.7901 101.126L93.325 100.978C93.5019 100.922 93.6852 100.901 93.8653 100.862C94.2248 100.783 94.5905 100.756 94.9531 100.713C95.6815 100.654 96.4099 100.651 97.1343 100.685C98.5824 100.771 100.017 100.984 101.422 101.317Z" fill="#407BFF"/>
<path opacity="0.7" d="M101.422 101.317C100.003 101.059 98.5626 100.924 97.1272 100.915C96.4107 100.918 95.6942 100.944 94.9871 101.032C94.6363 101.087 94.2809 101.128 93.9388 101.218C93.7674 101.262 93.5912 101.288 93.4261 101.349L92.9244 101.51L92.3556 101.692L92.6945 101.194C93.6528 99.7873 94.423 98.2215 94.9626 96.6083C95.2312 95.7994 95.4366 94.9714 95.5567 94.1356C95.6128 93.7177 95.6602 93.2982 95.6712 92.8795C95.6878 92.4608 95.6886 92.0405 95.6507 91.6266C95.627 91.2102 95.5559 90.8002 95.4793 90.3926L95.3315 89.7898L95.134 89.2021C94.9816 88.8197 94.8331 88.4318 94.6213 88.0779C94.4357 87.709 94.1947 87.3724 93.9617 87.0311C93.6978 86.7128 93.46 86.3731 93.1567 86.0863L92.7198 85.6423L92.245 85.2355C91.9409 84.9519 91.5806 84.7291 91.2496 84.4755C90.9044 84.2377 90.5386 84.0291 90.1847 83.8032L89.3623 83.2786L90.2376 82.8592C90.6579 82.6577 91.1011 82.4112 91.5222 82.1624C91.9448 81.908 92.3619 81.6433 92.768 81.3637C93.5825 80.8067 94.3567 80.1937 95.0811 79.5325C95.4429 79.2007 95.789 78.8554 96.1247 78.5007C96.4549 78.1413 96.7709 77.7716 97.0695 77.3884C97.3611 77.0013 97.6439 76.6087 97.8943 76.1971C98.1424 75.7855 98.392 75.3731 98.5863 74.9362C98.802 74.5089 98.9663 74.0601 99.1243 73.6122L99.329 72.9296L99.4767 72.2337C99.5494 71.7668 99.6315 71.2967 99.6323 70.8219C99.6663 70.3479 99.6323 69.8731 99.6054 69.3991C99.5407 68.9275 99.5043 68.4503 99.3827 67.9858L99.2207 67.2859L99.0003 66.5986C98.8715 66.1349 98.6543 65.6964 98.4805 65.2469C98.2861 64.8029 98.0515 64.3747 97.8398 63.9379L96.7125 61.6074L98.8739 62.9986C99.2563 63.245 99.6916 63.4963 100.117 63.723C100.547 63.9521 100.983 64.1725 101.426 64.3739C102.312 64.7808 103.22 65.1347 104.146 65.4167C104.609 65.5574 105.075 65.683 105.544 65.7825C106.012 65.8836 106.485 65.9713 106.957 66.0195C107.43 66.0819 107.903 66.1056 108.372 66.104C108.843 66.1096 109.308 66.0701 109.769 66.0116L110.451 65.8915L111.118 65.7162C111.551 65.5668 111.98 65.4081 112.382 65.1916C112.593 65.1023 112.778 64.9672 112.973 64.8487C113.171 64.7342 113.359 64.6054 113.533 64.4561C113.905 64.1907 114.224 63.8565 114.559 63.5413C114.856 63.1842 115.183 62.8548 115.435 62.4558C115.717 62.0814 115.955 61.6729 116.183 61.2558C116.43 60.8529 116.595 60.3963 116.808 59.9689C116.991 59.5257 117.147 59.0675 117.32 58.6172L118.312 56.0292L118.798 58.7318C118.87 59.1315 118.998 59.6039 119.137 60.0345C119.277 60.4737 119.442 60.9066 119.63 61.3277C120.004 62.1714 120.462 62.9764 121.017 63.7024C121.569 64.4292 122.211 65.081 122.935 65.6214C123.294 65.8955 123.678 66.1341 124.076 66.3482C124.472 66.5662 124.892 66.736 125.314 66.9012C125.747 67.0378 126.179 67.1761 126.631 67.2582C127.075 67.3625 127.535 67.4052 127.992 67.4518C128.452 67.4786 128.914 67.5055 129.38 67.4794C129.844 67.4834 130.31 67.4194 130.776 67.3775C131.241 67.3278 131.704 67.229 132.168 67.1579L133.549 66.8293L134.915 66.4177L136.263 65.9358L138.14 65.2651L137.062 66.9296C136.871 67.2251 136.666 67.5758 136.486 67.9139C136.306 68.2584 136.137 68.6076 135.982 68.9646C135.67 69.6764 135.422 70.4143 135.246 71.1624C135.071 71.9105 134.975 72.6729 134.986 73.4281C134.998 74.1826 135.121 74.9283 135.372 75.6307L135.582 76.1481L135.842 76.6434C136.042 76.9586 136.243 77.2762 136.495 77.559C136.722 77.8592 137.013 78.1113 137.288 78.3727C137.583 78.6169 137.875 78.8641 138.205 79.0695C138.516 79.2986 138.865 79.4764 139.203 79.6699C139.544 79.8587 139.91 80.0065 140.263 80.1779L141.37 80.6005L142.506 80.9529L143.324 81.2065L142.656 81.7176C142.228 82.0462 141.793 82.446 141.404 82.8576C141.005 83.266 140.644 83.7116 140.307 84.1706C140.126 84.3933 139.984 84.6398 139.831 84.8792C139.668 85.1154 139.543 85.3698 139.416 85.6242C139.278 85.8738 139.162 86.1329 139.072 86.4015C138.976 86.6677 138.857 86.9284 138.808 87.2081C138.752 87.4846 138.658 87.7564 138.629 88.0376L138.552 88.8837C138.549 89.1657 138.583 89.4493 138.597 89.7329C138.595 90.0197 138.672 90.2954 138.737 90.5735C138.814 90.8476 138.834 91.1399 138.957 91.4006L139.281 92.2001C139.37 92.4766 139.548 92.7105 139.688 92.9625L140.131 93.7114L140.293 93.9847L139.991 93.9863C138.834 93.9918 137.657 94.1404 136.531 94.4445C135.971 94.6065 135.415 94.8016 134.901 95.0852C134.769 95.1492 134.652 95.2377 134.526 95.3135C134.399 95.387 134.281 95.4754 134.17 95.571C134.061 95.6682 133.932 95.7464 133.839 95.8602L133.537 96.1833L133.822 95.8436C133.91 95.7235 134.034 95.6382 134.14 95.5347C134.247 95.4312 134.361 95.3364 134.486 95.255C134.609 95.1721 134.724 95.0749 134.854 95.003C135.359 94.687 135.913 94.4587 136.476 94.2628C137.609 93.8836 138.79 93.6972 139.991 93.6395L139.85 93.9144L139.361 93.1592C139.206 92.9024 139.013 92.6662 138.906 92.3818L138.532 91.5555C138.392 91.2853 138.355 90.9764 138.262 90.688C138.181 90.3942 138.09 90.1019 138.077 89.7946C138.049 89.4912 138.003 89.1863 137.993 88.8813L138.04 87.9626C138.059 87.6568 138.146 87.3598 138.196 87.0572C138.24 86.7507 138.354 86.4663 138.447 86.1748C138.533 85.8793 138.647 85.5957 138.784 85.3224C138.909 85.0427 139.034 84.7638 139.196 84.5047C139.35 84.2417 139.494 83.9715 139.675 83.7266C140.012 83.2186 140.392 82.7422 140.804 82.2951C141.216 81.8408 141.639 81.4253 142.137 81.024L142.286 81.7887L141.091 81.4498L139.914 81.0335C139.532 80.8612 139.14 80.7135 138.767 80.5184C138.395 80.3193 138.015 80.1352 137.665 79.8927C137.3 79.6755 136.965 79.4092 136.629 79.143C136.31 78.8562 135.977 78.5781 135.704 78.2392C135.408 77.9209 135.162 77.559 134.921 77.1941L134.602 76.6197L134.339 76.017C134.023 75.1977 133.858 74.3264 133.824 73.4613C133.789 72.5947 133.878 71.7328 134.051 70.8986C134.226 70.0635 134.478 69.2514 134.798 68.4685C134.956 68.0767 135.132 67.6927 135.318 67.3135C135.512 66.9312 135.701 66.5725 135.951 66.1862L136.75 67.18L135.344 67.6951L133.91 68.1399C133.425 68.2694 132.933 68.3808 132.445 68.5009C131.946 68.5831 131.452 68.6913 130.948 68.749C130.442 68.7995 129.939 68.8714 129.426 68.873C128.915 68.9046 128.402 68.8809 127.887 68.854C127.376 68.8066 126.858 68.7616 126.351 68.6486C125.84 68.5586 125.34 68.4061 124.841 68.2513C124.351 68.0664 123.866 67.8721 123.402 67.624C122.939 67.3791 122.489 67.105 122.069 66.7906C121.224 66.1696 120.477 65.4231 119.843 64.6007C119.205 63.7791 118.684 62.8801 118.261 61.9431C118.046 61.4754 117.859 60.9959 117.698 60.5069C117.536 60.0092 117.398 59.5407 117.292 58.9806L118.77 59.0944C118.588 59.585 118.423 60.0795 118.227 60.5654C117.997 61.0409 117.82 61.5363 117.547 61.9945C117.297 62.4621 117.031 62.9227 116.713 63.358C116.429 63.8115 116.052 64.2088 115.706 64.6228C115.319 65.0052 114.934 65.3923 114.485 65.7098C114.273 65.8844 114.047 66.0377 113.808 66.1751C113.573 66.3166 113.347 66.473 113.093 66.582C112.605 66.8372 112.091 67.026 111.571 67.1982L110.778 67.4004C110.512 67.4534 110.244 67.4905 109.977 67.5347C109.44 67.5995 108.902 67.639 108.367 67.6295C107.833 67.6264 107.299 67.594 106.776 67.5213C106.249 67.4621 105.732 67.3625 105.22 67.2472C104.707 67.1342 104.203 66.9936 103.706 66.838C102.711 66.5251 101.746 66.1404 100.809 65.7011C100.339 65.4831 99.8804 65.2461 99.4253 64.9988C98.9663 64.7484 98.5326 64.4948 98.0721 64.193L99.1062 63.2537C99.3329 63.7277 99.5802 64.1907 99.7879 64.6749C99.976 65.1687 100.203 65.6443 100.344 66.1578L100.58 66.917L100.755 67.6967C100.884 68.2133 100.926 68.7513 100.991 69.2798C101.019 69.8155 101.05 70.3503 101.009 70.8883C101.001 71.4255 100.907 71.9587 100.819 72.4865L100.644 73.2733L100.408 74.042C100.227 74.5452 100.037 75.0468 99.7935 75.5216C99.5691 76.0051 99.2966 76.4641 99.0082 76.9081C98.7214 77.3544 98.4023 77.7755 98.0744 78.1879C97.741 78.5955 97.3903 78.9858 97.0269 79.3626C96.658 79.7339 96.2795 80.0934 95.8869 80.4362C95.1009 81.1204 94.269 81.7453 93.4 82.3093C92.9663 82.5929 92.5231 82.8599 92.072 83.1159C91.6146 83.3695 91.1682 83.6065 90.6713 83.8309L90.7243 82.8876C91.0979 83.1364 91.4803 83.3687 91.8437 83.6326C92.1953 83.9138 92.5713 84.1611 92.8968 84.4771L93.3992 84.9313L93.8653 85.4267C94.1853 85.7466 94.4436 86.1266 94.7217 86.4837C94.9705 86.8652 95.2249 87.2429 95.4216 87.6552C95.6444 88.0526 95.8 88.4847 95.9572 88.9105L96.1579 89.5631L96.304 90.2283C96.3783 90.6754 96.4439 91.1249 96.4589 91.576C96.5474 93.3843 96.1626 95.1642 95.5425 96.8145C95.232 97.6416 94.8599 98.4427 94.4381 99.2145C94.0138 99.9871 93.5572 100.731 93.02 101.442L92.7901 101.126L93.325 100.978C93.5019 100.922 93.6852 100.901 93.8653 100.862C94.2248 100.783 94.5905 100.756 94.9531 100.713C95.6815 100.654 96.4099 100.651 97.1343 100.685C98.5824 100.771 100.017 100.984 101.422 101.317Z" fill="white"/>
</svg>
