<svg width="1655" height="620" viewBox="0 0 1655 620" fill="none" xmlns="http://www.w3.org/2000/svg">
<rect width="1655" height="620" fill="#C4C4C4" fill-opacity="0.1"/>
<path d="M1372.55 168.144V320.32C1372.55 321.354 1371.76 322.191 1370.77 322.191H1061.28C1060.3 322.191 1059.5 321.354 1059.5 320.32V168.144C1059.5 167.111 1060.3 166.273 1061.28 166.273H1370.77C1371.76 166.273 1372.55 167.111 1372.55 168.144Z" fill="#E0E0E0"/>
<path d="M1368.9 168.124H1063.15C1062.16 168.124 1061.36 168.962 1061.36 169.996V318.466C1061.36 319.5 1062.16 320.338 1063.15 320.338H1368.9C1369.89 320.338 1370.68 319.5 1370.68 318.466V169.997C1370.69 168.962 1369.89 168.124 1368.9 168.124Z" fill="white"/>
<path d="M1055.4 290.648C1055.4 290.648 1055.27 288.966 1055.46 288.182C1055.79 286.826 1055.31 284.632 1056.93 283.567C1058.55 282.502 1063.22 286.962 1063.59 288.206C1063.96 289.452 1062.21 291.577 1058.56 293.36C1054.91 295.143 1055.4 290.648 1055.4 290.648Z" fill="#EEA886"/>
<path d="M1056.43 284.009C1056.43 284.009 1058.01 281.519 1060.09 278.975C1061.91 276.744 1064.48 274.241 1065.02 274.717C1065.84 275.438 1063.52 277.238 1061.85 279.578C1060.31 281.734 1060.96 281.581 1060.96 281.581C1060.96 281.581 1060.78 281.613 1062.89 279.609C1065.16 277.454 1067.69 275.239 1068.14 275.62C1068.69 276.091 1068.73 276.199 1068.02 277.124C1068.54 276.683 1068.73 276.768 1068.92 276.977C1069.95 278.055 1067.09 281.771 1065.95 283.247C1066.83 282.119 1067.59 281.391 1067.81 282.476C1068.06 283.715 1063.79 288.776 1062.43 290.743C1060.94 292.89 1056.43 284.009 1056.43 284.009Z" fill="#EEA886"/>
<path d="M1001.83 462.798C1001.83 462.798 1006.27 465.555 1008.28 466.58C1010.29 467.605 1018.11 467.899 1018.88 468.669C1019.65 469.439 1019.37 471.892 1018.07 472.141C1016.78 472.392 1007.28 473.294 1004.11 472.516C1000.94 471.738 995.012 473.046 993.699 472.579C992.386 472.112 993.233 464.682 993.741 463.015C994.248 461.348 1001.83 462.798 1001.83 462.798Z" fill="#181929"/>
<path d="M1002.2 459.761L1001.83 462.798C1001.83 462.798 995.888 463.964 994.087 463.005L994.533 459.847L1002.2 459.761Z" fill="#22243B"/>
<path d="M1026.02 356.005C1025.96 358.108 1025.6 362.672 1025.17 367.465C1025.08 368.53 1024.98 369.607 1024.88 370.67C1024.29 377.119 1023.69 383.085 1023.69 383.085C1022.94 388.22 1021.39 397.134 1019.66 403.873V403.874C1019.16 405.82 1018.65 407.584 1018.13 409.022C1017.63 410.424 1017.13 411.518 1016.64 412.172C1012.96 417.108 1004.52 460.863 1004.52 460.863L993 460.77C993 460.77 995.534 431.142 998.08 423.632C1000.92 415.245 1005.86 403.94 1004.63 395.851C1003.86 390.774 1002.88 374.616 1002.88 374.616C1002.88 374.616 1001.91 356.458 1006.44 343.159C1007.57 339.837 1026.02 356.005 1026.02 356.005Z" fill="#292C47"/>
<path d="M1034.2 463.934C1034.2 463.934 1038.61 466.748 1040.61 467.798C1042.61 468.847 1050.42 469.24 1051.18 470.02C1051.95 470.799 1051.64 473.249 1050.34 473.482C1049.04 473.716 1039.53 474.498 1036.37 473.68C1033.21 472.862 1027.27 474.096 1025.96 473.612C1024.65 473.128 1025.59 465.71 1026.11 464.049C1026.64 462.388 1034.2 463.934 1034.2 463.934Z" fill="#181929"/>
<path d="M1034.6 460.902L1034.2 463.934C1034.2 463.934 1028.25 465.026 1026.46 464.042L1026.94 460.892L1034.6 460.902Z" fill="#22243B"/>
<path d="M1020.83 417.513C1020.53 407.836 1019.72 401.406 1017.35 395.816C1015.36 391.12 1013.65 376.376 1013.65 376.376C1013.65 376.376 1008.25 359.098 1009.35 345.022C1009.62 341.506 1030.49 350.344 1030.49 350.344C1030.95 352.393 1032.34 358.843 1032.84 363.627C1035.66 390.958 1034.6 408.763 1034.6 408.763C1032.99 414.799 1037.07 462.281 1037.07 462.281H1025.32C1025.32 462.281 1022.24 445.39 1021.92 434.885C1021.92 434.887 1020.72 419.186 1020.83 417.513Z" fill="#292C47"/>
<path d="M1020.57 292.292C1020.57 292.292 1026.04 301.71 1027.64 306.965C1029.24 312.22 1027.96 327.5 1028.24 330.571C1029.11 340.099 1030.39 350.589 1030.39 350.589L1012.05 362.891C1012.05 362.891 1008.75 354.816 1005.88 344.763C1003.01 334.71 1002.78 325.658 1002.81 319.611C1002.89 300.64 1012.66 289.928 1012.66 289.928L1020.57 292.292Z" fill="#CFBEB6"/>
<path d="M1027.31 267.031C1027.31 267.031 1031.08 271.258 1030.01 272.369C1029.14 273.287 1032.59 277.5 1033.09 278.207C1033.58 278.915 1031.55 280.087 1031.22 280.722C1030.88 281.357 1031.08 287.987 1029.34 288.668C1027.6 289.35 1018.8 288.629 1016.01 286.839C1013.22 285.05 1008.71 274.731 1009.04 269.765C1009.36 264.798 1020.7 259.661 1027.31 267.031Z" fill="#EEA886"/>
<path d="M1023.76 287.235C1023.76 287.235 1023.69 287.798 1023.61 288.671C1023.58 289.037 1023.53 289.454 1023.49 289.91C1023.41 290.916 1022.98 295.7 1023.33 297.548C1023.8 300.003 1013.72 289.64 1013.72 289.64C1013.72 289.64 1014.57 281.603 1014.16 272.568C1013.74 263.534 1023.76 287.235 1023.76 287.235Z" fill="#EEA886"/>
<path d="M1028.09 267.958C1028.09 267.958 1029.87 263.551 1024.38 260.491C1017.92 256.89 1011.07 265.933 1010.16 266.465C1009.25 266.998 1005.12 271.878 1009.16 278.347C1014.26 286.509 1013.99 286.236 1013.99 286.236C1013.99 286.236 1014.5 280.215 1014.47 279.053C1014.41 276.93 1019.72 276.678 1019.72 276.678C1019.72 276.678 1017.54 273.633 1019.96 272.266C1022.38 270.9 1025.21 267.66 1028.09 267.958Z" fill="#3A3F47"/>
<path d="M1016.93 275.907C1016.54 275.337 1015.12 272.821 1013.3 275.031C1011.48 277.238 1016.37 281.369 1016.77 281.329C1017.18 281.288 1020.18 280.701 1016.93 275.907Z" fill="#EEA886"/>
<path d="M1031.39 354.649C1031.39 354.649 1030.48 350.143 1030.3 349.469L1003.47 354.154L1003.75 357.795C1003.75 357.796 1023.08 356.581 1031.39 354.649Z" fill="#23263D"/>
<path d="M1001.09 334.8C1001.09 334.8 1005.21 353.486 998.752 375.283C997.965 377.944 1016.62 374.869 1016.62 374.869L1001.09 334.8Z" fill="#90919E"/>
<path d="M1024.79 373.5C1024.79 373.5 1011.53 376.552 1007.81 375.172C1007.81 375.172 1002.4 354.492 1000.51 333.5C1000.36 331.878 1000.24 330.254 1000.14 328.641C1000.14 328.637 1000.14 328.637 1000.14 328.637C999.082 311.561 1003.22 294.236 1012.66 289.928C1012.92 290.117 1026.21 302.414 1025.96 313.671C1025.94 314.433 1025.93 315.198 1025.93 315.962C1025.92 317.347 1025.93 318.734 1025.96 320.117L1025.96 320.119C1026.04 324.401 1026.3 328.673 1026.66 332.82C1026.69 333.252 1026.73 333.684 1026.77 334.113C1026.84 334.81 1026.9 335.502 1026.97 336.19C1027.07 337.106 1027.17 338.015 1027.27 338.915C1029.41 357.704 1024.79 373.5 1024.79 373.5Z" fill="#90919E"/>
<path d="M1024.24 300.517C1024.24 300.517 1026.74 310.891 1027.69 323.945C1028.48 334.866 1029.55 342.589 1029.55 342.589L1031.14 347.995L1031.8 342.781C1031.8 342.781 1031.21 328.686 1030.43 322.954C1029.65 317.173 1029.3 309.834 1024.9 300.314L1024.24 300.517Z" fill="#D44040"/>
<path d="M1023.96 300.525C1023.96 300.525 1024.26 300.828 1024.69 300.893C1025.11 300.96 1025.72 300.245 1023.55 297.229L1023.96 300.525Z" fill="#D44040"/>
<path d="M1013.84 288.369C1013.84 288.369 1020.01 294.469 1023.68 295.815L1024.38 301.659L1012.66 289.929L1013.84 288.369Z" fill="#EDDAD3"/>
<path d="M1017.98 311.986C1015.55 311.078 1005.44 305.927 1008.13 299.915C1010.81 293.901 1017.74 297.1 1022.96 299.546C1028.42 302.105 1041.3 309.97 1042.32 309.237C1043.34 308.504 1047.8 301.809 1048.61 300.317C1049.41 298.826 1054.28 289.289 1054.73 288.571C1055.18 287.868 1062.25 294.097 1062.25 294.097C1062.25 294.097 1049.56 317.753 1046.15 321.52C1042.73 325.286 1017.98 311.986 1017.98 311.986Z" fill="#90919E"/>
<path d="M1019.66 403.873C1019.16 405.82 1018.65 407.583 1018.13 409.022C1018.13 409.02 1018.13 409.02 1018.13 409.02L1014.11 383.86C1015.13 386.247 1019.66 403.873 1019.66 403.873Z" fill="#181929"/>
<path d="M1025.96 320.118L1014.33 310.15C1017.41 311.883 1024.98 315.51 1025.93 315.963C1025.92 317.348 1025.93 318.735 1025.96 320.118Z" fill="#64656E"/>
<path d="M1023.61 288.737C1023.61 288.739 1023.42 290.76 1023.42 290.76C1019.57 290.49 1016.59 287.268 1016.41 287.072C1017.98 288.379 1023.61 288.737 1023.61 288.737Z" fill="#A77860"/>
<g opacity="0.7">
<path opacity="0.7" d="M1184.57 170.134V231.044C1184.57 233.177 1182.92 234.906 1180.89 234.906H1073.77C1071.74 234.906 1070.09 233.177 1070.09 231.044V170.134C1070.09 168.001 1071.74 166.271 1073.77 166.271H1180.89C1182.92 166.272 1184.57 168.001 1184.57 170.134Z" fill="#E0E0E0"/>
</g>
<path d="M1362.58 312.936H1228.69C1227.71 312.936 1226.91 312.098 1226.91 311.064V175.303C1226.91 174.27 1227.71 173.432 1228.69 173.432H1362.58C1363.56 173.432 1364.36 174.27 1364.36 175.303V311.064C1364.36 312.098 1363.56 312.936 1362.58 312.936Z" fill="#E0E0E0"/>
<g opacity="0.79">
<path opacity="0.79" d="M1177.37 230.673H1070.25C1068.22 230.673 1066.57 228.945 1066.57 226.812V148.863C1066.57 146.73 1068.22 145 1070.25 145H1177.37C1179.4 145 1181.05 146.73 1181.05 148.863V226.813C1181.05 228.945 1179.4 230.673 1177.37 230.673Z" fill="white"/>
</g>
<path d="M1168.69 195.046H1150.24C1149.46 195.046 1148.83 194.383 1148.83 193.564V190.574C1148.83 189.755 1149.46 189.092 1150.24 189.092H1168.69C1169.47 189.092 1170.1 189.755 1170.1 190.574V193.564C1170.1 194.382 1169.47 195.046 1168.69 195.046Z" fill="#78C2FF"/>
<path d="M1168.69 206.192H1150.24C1149.46 206.192 1148.83 205.529 1148.83 204.711V201.72C1148.83 200.902 1149.46 200.239 1150.24 200.239H1168.69C1169.47 200.239 1170.1 200.901 1170.1 201.72V204.711C1170.1 205.529 1169.47 206.192 1168.69 206.192Z" fill="#78C2FF"/>
<path d="M1168.69 217.338H1150.24C1149.46 217.338 1148.83 216.676 1148.83 215.856V212.866C1148.83 212.047 1149.46 211.384 1150.24 211.384H1168.69C1169.47 211.384 1170.1 212.047 1170.1 212.866V215.856C1170.1 216.676 1169.47 217.338 1168.69 217.338Z" fill="#78C2FF"/>
<path d="M1312.11 317.022C1312.12 317.02 1312.12 317.019 1312.13 317.021C1312.06 317.05 1312.05 317.052 1312.11 317.022Z" fill="#323657"/>
<path d="M1382.53 304.418C1382.53 304.418 1383.97 325.594 1380.03 328.129C1377.56 329.715 1367.72 335.071 1368.01 336.075C1368.3 337.08 1373.57 345.01 1373.57 345.01C1373.57 345.01 1392.48 331.938 1393.09 327.819C1393.68 323.794 1392.16 296.813 1389.56 295.57C1387.61 294.639 1386.58 295.41 1384.13 297.321C1380.69 300.004 1382.53 304.418 1382.53 304.418Z" fill="#E8734D"/>
<path d="M1384.73 458.52C1384.73 458.52 1385.32 462.805 1385.39 463.449C1385.47 464.092 1391.93 463.07 1391.93 463.07L1392.46 457.969C1392.46 457.968 1385.54 457.915 1384.73 458.52Z" fill="#424773"/>
<path d="M1385.32 462.904C1385.32 462.904 1383.27 465.485 1381.29 466.611C1379.31 467.736 1376.19 468.182 1375.02 469.347C1374.18 470.188 1371.94 473.808 1380.17 473.734C1388.41 473.662 1392.37 474.246 1393.26 472.857C1394.14 471.47 1391.98 462.613 1391.98 462.613C1391.98 462.613 1390.03 463.35 1385.32 462.904Z" fill="#292C47"/>
<path d="M1352.36 458.52C1352.36 458.52 1352.95 462.805 1353.02 463.449C1353.09 464.092 1359.56 463.07 1359.56 463.07L1360.09 457.969C1360.09 457.968 1353.17 457.915 1352.36 458.52Z" fill="#424773"/>
<path d="M1352.95 462.904C1352.95 462.904 1350.9 465.485 1348.92 466.611C1346.94 467.736 1339.65 468.66 1338.47 469.825C1337.63 470.666 1336.22 474.051 1347.8 473.734C1356.03 473.509 1360 474.246 1360.89 472.858C1361.77 471.47 1359.61 462.613 1359.61 462.613C1359.61 462.613 1357.77 463.399 1352.95 462.904Z" fill="#292C47"/>
<path d="M1382.41 348.425C1382.41 348.425 1388.49 358.561 1388.03 367.723C1387.58 376.886 1388.58 386.672 1389.49 396.243C1390.51 406.915 1393.28 429.119 1393.43 434.827C1393.58 440.534 1393.23 462.011 1393.23 462.011L1382.69 461.929C1382.69 461.929 1378.95 418.541 1377.13 414.036C1375.32 409.529 1367.88 376.933 1367.57 373.329C1367.27 369.724 1382.41 348.425 1382.41 348.425Z" fill="#292C47"/>
<path d="M1350.42 349.798C1350.42 349.798 1348.02 374.706 1347.41 380.315C1346.81 385.922 1347.22 410.22 1346.92 413.726C1346.62 417.231 1348.94 454.301 1349.51 461.36L1361.1 461.283C1361.1 461.283 1361.9 431.296 1361.9 416.726C1361.9 402.155 1365.46 385.196 1369.54 375.582C1373.62 365.97 1382.96 365.742 1385.47 347.906C1385.47 347.906 1353.81 344.141 1350.42 349.798Z" fill="#292C47"/>
<path d="M1375.99 262.964C1375.99 262.964 1368.75 257.887 1363.66 263.325C1358.58 268.764 1356.08 281.553 1359.73 284.106C1363.38 286.657 1369.58 287.327 1372.52 283.865C1375.46 280.402 1378.6 275.119 1379.37 271.262C1380.14 267.406 1377.83 264.588 1375.99 262.964Z" fill="#EEA886"/>
<path d="M1362.19 284.968C1362.19 284.968 1362.29 290.31 1361.73 291.449C1361.17 292.589 1372.3 292.618 1372.3 292.618C1372.3 292.618 1373.2 286.423 1374.91 281.189C1376.62 275.955 1362.19 284.968 1362.19 284.968Z" fill="#EEA886"/>
<path d="M1374.63 281.103C1374.63 281.103 1373.59 282.213 1370.66 280.956C1367.72 279.698 1364.95 274.515 1363.78 273.732C1362.61 272.949 1362.78 272.16 1362.78 272.16L1361.7 273.186L1360.33 272.941C1360.33 272.941 1362.42 269.434 1360.91 267.418C1359.39 265.402 1365.61 255.555 1374.59 261.567C1374.59 261.567 1381.62 265.602 1380.34 270.021C1379.06 274.443 1376.82 279.283 1374.63 281.103Z" fill="#754836"/>
<path d="M1361.07 291.312C1361.07 291.312 1361.1 289.136 1362.04 288.927C1362.98 288.719 1372.41 287.767 1373.57 288.242V290.777C1373.57 290.776 1371.34 292.213 1361.07 291.312Z" fill="#E2D2CA"/>
<path d="M1363.35 270.577C1363.68 269.867 1365.99 268.167 1366.17 270.642C1366.35 273.119 1363.91 275.783 1362.99 275.276C1362.07 274.769 1362.48 272.378 1363.35 270.577Z" fill="#EEA886"/>
<path d="M1378.08 264.272C1378.08 264.272 1388.44 267.187 1375.05 280.682L1378.08 264.272Z" fill="#754836"/>
<path d="M1096.54 241.444H1070.09V244.287H1096.54V241.444Z" fill="#E0E0E0"/>
<path d="M1120.47 241.444H1101.69V244.287H1120.47V241.444Z" fill="#547DFE"/>
<path d="M1214.54 241.444H1195.76V244.287H1214.54V241.444Z" fill="#78C2FF"/>
<path d="M1204.06 177.839H1191.65C1191.23 177.839 1190.89 177.483 1190.89 177.042V174.228C1190.89 173.788 1191.23 173.432 1191.65 173.432H1204.06C1204.48 173.432 1204.82 173.788 1204.82 174.228V177.042C1204.82 177.482 1204.48 177.839 1204.06 177.839Z" fill="#E0E0E0"/>
<path d="M1204.06 188.406H1191.65C1191.23 188.406 1190.89 188.05 1190.89 187.61V184.796C1190.89 184.355 1191.23 183.999 1191.65 183.999H1204.06C1204.48 183.999 1204.82 184.355 1204.82 184.796V187.61C1204.82 188.049 1204.48 188.406 1204.06 188.406Z" fill="#E0E0E0"/>
<path d="M1204.06 198.973H1191.65C1191.23 198.973 1190.89 198.617 1190.89 198.177V195.363C1190.89 194.922 1191.23 194.565 1191.65 194.565H1204.06C1204.48 194.565 1204.82 194.922 1204.82 195.363V198.177C1204.82 198.616 1204.48 198.973 1204.06 198.973Z" fill="#E0E0E0"/>
<path d="M1204.06 209.54H1191.65C1191.23 209.54 1190.89 209.183 1190.89 208.743V205.93C1190.89 205.489 1191.23 205.133 1191.65 205.133H1204.06C1204.48 205.133 1204.82 205.49 1204.82 205.93V208.743C1204.82 209.183 1204.48 209.54 1204.06 209.54Z" fill="#E0E0E0"/>
<path d="M1204.06 220.107H1191.65C1191.23 220.107 1190.89 219.75 1190.89 219.31V216.497C1190.89 216.057 1191.23 215.7 1191.65 215.7H1204.06C1204.48 215.7 1204.82 216.057 1204.82 216.497V219.31C1204.82 219.75 1204.48 220.107 1204.06 220.107Z" fill="#E0E0E0"/>
<path d="M1204.06 230.673H1191.65C1191.23 230.673 1190.89 230.317 1190.89 229.877V227.063C1190.89 226.623 1191.23 226.267 1191.65 226.267H1204.06C1204.48 226.267 1204.82 226.623 1204.82 227.063V229.877C1204.82 230.318 1204.48 230.673 1204.06 230.673Z" fill="#E0E0E0"/>
<path d="M1213.78 177.839H1211.33C1210.91 177.839 1210.57 177.483 1210.57 177.042V174.228C1210.57 173.788 1210.91 173.432 1211.33 173.432H1213.78C1214.2 173.432 1214.54 173.788 1214.54 174.228V177.042C1214.54 177.482 1214.2 177.839 1213.78 177.839Z" fill="#E0E0E0"/>
<path d="M1213.78 188.406H1211.33C1210.91 188.406 1210.57 188.05 1210.57 187.61V184.796C1210.57 184.355 1210.91 183.999 1211.33 183.999H1213.78C1214.2 183.999 1214.53 184.355 1214.53 184.796V187.61C1214.53 188.049 1214.2 188.406 1213.78 188.406Z" fill="#E0E0E0"/>
<path d="M1213.78 198.973H1211.33C1210.91 198.973 1210.57 198.617 1210.57 198.177V195.363C1210.57 194.922 1210.91 194.565 1211.33 194.565H1213.78C1214.2 194.565 1214.53 194.922 1214.53 195.363V198.177C1214.53 198.616 1214.2 198.973 1213.78 198.973Z" fill="#E0E0E0"/>
<path d="M1213.78 209.54H1211.33C1210.91 209.54 1210.57 209.183 1210.57 208.743V205.93C1210.57 205.489 1210.91 205.133 1211.33 205.133H1213.78C1214.2 205.133 1214.53 205.49 1214.53 205.93V208.743C1214.53 209.183 1214.2 209.54 1213.78 209.54Z" fill="#E0E0E0"/>
<path d="M1213.78 220.107H1211.33C1210.91 220.107 1210.57 219.75 1210.57 219.31V216.497C1210.57 216.057 1210.91 215.7 1211.33 215.7H1213.78C1214.2 215.7 1214.53 216.057 1214.53 216.497V219.31C1214.53 219.75 1214.2 220.107 1213.78 220.107Z" fill="#E0E0E0"/>
<path d="M1213.78 230.673H1211.33C1210.91 230.673 1210.57 230.317 1210.57 229.877V227.063C1210.57 226.623 1210.91 226.267 1211.33 226.267H1213.78C1214.2 226.267 1214.53 226.623 1214.53 227.063V229.877C1214.53 230.318 1214.2 230.673 1213.78 230.673Z" fill="#E0E0E0"/>
<path d="M1149.45 241.444H1125.52V244.287H1149.45V241.444Z" fill="#1487E3"/>
<path d="M1191.07 241.444H1167.14V244.287H1191.07V241.444Z" fill="#FF8761"/>
<path d="M1162.63 241.444H1153.87V244.287H1162.63V241.444Z" fill="#E0E0E0"/>
<path d="M1083.79 252.147H1070.09V254.99H1083.79V252.147Z" fill="#1487E3"/>
<path d="M1091.58 252.147H1087.15V254.99H1091.58V252.147Z" fill="#1487E3"/>
<path d="M1214.53 252.147H1177.97V254.99H1214.53V252.147Z" fill="#E0E0E0"/>
<path d="M1099.34 252.147H1094.83V254.99H1099.34V252.147Z" fill="#FF8761"/>
<path d="M1174.59 252.147H1162.63V254.99H1174.59V252.147Z" fill="#1487E3"/>
<path d="M1159.46 252.147H1134.01V254.99H1159.46V252.147Z" fill="#1487E3"/>
<path d="M1130.4 252.147H1121.64V254.99H1130.4V252.147Z" fill="#78C2FF"/>
<path d="M1118.3 252.147H1103.04V254.99H1118.3V252.147Z" fill="#1487E3"/>
<path d="M1172.75 288.608H1166.99V312.989H1172.75V288.608Z" fill="#FF8761"/>
<path d="M1182.88 280.714H1177.11V312.989H1182.88V280.714Z" fill="#78C2FF"/>
<path d="M1193 272.109H1187.23V312.988H1193V272.109Z" fill="#FF8761"/>
<path d="M1203.62 276.598H1197.85V312.976H1203.62V276.598Z" fill="#78C2FF"/>
<path d="M1214.54 266.118H1208.77V312.99H1214.54V266.118Z" fill="#FF8761"/>
<path d="M1070.36 266.118H1069.82V312.99H1070.36V266.118Z" fill="#E0E0E0"/>
<path d="M1087.99 266.118H1087.45V312.99H1087.99V266.118Z" fill="#E0E0E0"/>
<path d="M1105.63 266.118H1105.08V312.99H1105.63V266.118Z" fill="#E0E0E0"/>
<path d="M1123.26 266.118H1122.72V312.99H1123.26V266.118Z" fill="#E0E0E0"/>
<path d="M1140.89 266.118H1140.35V312.99H1140.89V266.118Z" fill="#E0E0E0"/>
<path d="M1158.52 266.118H1157.98V312.99H1158.52V266.118Z" fill="#E0E0E0"/>
<path d="M1076.23 312.989C1076.23 312.989 1084.07 282.9 1094.35 286.086C1104.64 289.271 1101.34 303.153 1109.82 303.153C1116.94 303.153 1116.94 279.713 1126.05 279.979C1135.15 280.245 1134.35 297.589 1144.53 286.439C1154.71 275.289 1153.03 273.969 1158.25 273.969V312.988H1076.23V312.989Z" fill="#1487E3"/>
<path d="M1070.09 312.989C1070.09 312.989 1074.29 294.405 1081.7 297.06C1089.12 299.715 1084.65 310.157 1092.87 310.157C1101.09 310.157 1099.41 288.149 1108.68 289.684C1117.95 291.219 1112.68 303.786 1119.28 304.139C1125.88 304.492 1126.37 275.951 1141.72 277.125C1157.07 278.299 1158.25 312.989 1158.25 312.989H1070.09Z" fill="#78C2FF"/>
<path d="M1239.65 296.853L1238.7 295.793L1263.34 271.386L1288.28 277.058L1312.1 248.542L1332.88 249.773L1349.06 226.343L1350.18 227.199L1333.56 251.272L1312.7 250.038L1288.79 278.665L1263.76 272.973L1239.65 296.853Z" fill="#FF8761"/>
<path d="M1288.53 281.749C1290.58 281.749 1292.24 280.009 1292.24 277.863C1292.24 275.716 1290.58 273.977 1288.53 273.977C1286.49 273.977 1284.83 275.716 1284.83 277.863C1284.83 280.009 1286.49 281.749 1288.53 281.749Z" fill="#E6E6E6"/>
<path d="M1289.46 282.373C1287.09 282.91 1284.75 281.326 1284.24 278.838C1283.72 276.352 1285.23 273.89 1287.6 273.352C1289.97 272.814 1292.32 274.398 1292.83 276.886C1293.34 279.372 1291.83 281.834 1289.46 282.373ZM1287.9 274.776C1286.28 275.144 1285.24 276.829 1285.59 278.53C1285.95 280.232 1287.55 281.317 1289.17 280.947C1290.79 280.579 1291.83 278.895 1291.47 277.193C1291.12 275.493 1289.52 274.407 1287.9 274.776Z" fill="#FF8761"/>
<path d="M1312.39 253.422C1314.44 253.422 1316.1 251.682 1316.1 249.536C1316.1 247.39 1314.44 245.65 1312.39 245.65C1310.35 245.65 1308.69 247.39 1308.69 249.536C1308.69 251.682 1310.35 253.422 1312.39 253.422Z" fill="#E6E6E6"/>
<path d="M1313.33 254.046C1310.96 254.584 1308.61 252.999 1308.1 250.512C1307.59 248.025 1309.09 245.563 1311.46 245.024C1313.83 244.487 1316.18 246.071 1316.69 248.559C1317.2 251.046 1315.69 253.507 1313.33 254.046ZM1311.76 246.449C1310.14 246.817 1309.1 248.502 1309.45 250.203C1309.81 251.904 1311.41 252.99 1313.03 252.62C1314.65 252.251 1315.69 250.568 1315.33 248.866C1314.98 247.166 1313.38 246.081 1311.76 246.449Z" fill="#FF8761"/>
<path d="M1333.02 254.288C1335.06 254.288 1336.72 252.548 1336.72 250.401C1336.72 248.255 1335.06 246.515 1333.02 246.515C1330.97 246.515 1329.32 248.255 1329.32 250.401C1329.32 252.548 1330.97 254.288 1333.02 254.288Z" fill="#E6E6E6"/>
<path d="M1333.95 254.912C1331.58 255.451 1329.23 253.866 1328.72 251.378C1328.21 248.891 1329.72 246.43 1332.09 245.891C1334.46 245.353 1336.8 246.938 1337.31 249.425C1337.83 251.913 1336.32 254.374 1333.95 254.912ZM1332.38 247.316C1330.76 247.684 1329.73 249.369 1330.08 251.07C1330.43 252.771 1332.03 253.856 1333.65 253.487C1335.28 253.119 1336.31 251.435 1335.96 249.733C1335.61 248.032 1334 246.948 1332.38 247.316Z" fill="#FF8761"/>
<path d="M1263.53 276.425C1265.58 276.425 1267.23 274.685 1267.23 272.539C1267.23 270.393 1265.58 268.653 1263.53 268.653C1261.49 268.653 1259.83 270.393 1259.83 272.539C1259.83 274.685 1261.49 276.425 1263.53 276.425Z" fill="#E6E6E6"/>
<path d="M1264.46 277.05C1262.09 277.588 1259.75 276.003 1259.24 273.515C1258.72 271.029 1260.23 268.567 1262.6 268.029C1264.97 267.491 1267.32 269.076 1267.83 271.563C1268.34 274.049 1266.83 276.511 1264.46 277.05ZM1262.9 269.453C1261.28 269.822 1260.24 271.506 1260.59 273.207C1260.94 274.908 1262.55 275.994 1264.17 275.625C1265.79 275.255 1266.82 273.572 1266.47 271.87C1266.12 270.17 1264.52 269.085 1262.9 269.453Z" fill="#FF8761"/>
<path d="M1274.99 286.985H1259.83V290.048H1274.99V286.985Z" fill="white"/>
<path d="M1285.53 255.546H1270.37V258.61H1285.53V255.546Z" fill="white"/>
<path d="M1316.96 277.454H1301.81V280.518H1316.96V277.454Z" fill="white"/>
<path d="M1330.56 234.429H1315.4V237.493H1330.56V234.429Z" fill="white"/>
<path d="M1352.57 260.067H1337.41V263.131H1352.57V260.067Z" fill="white"/>
<path d="M1291 184.094H1237.02V189.654H1291V184.094Z" fill="#FF8761"/>
<path d="M1291 199.055H1237.02V204.615H1291V199.055Z" fill="white"/>
<path d="M1291 214.017H1237.02V219.577H1291V214.017Z" fill="white"/>
<path d="M1311.02 184.094H1302.01V189.654H1311.02V184.094Z" fill="#FF8761"/>
<path d="M1311.02 199.055H1302.01V204.615H1311.02V199.055Z" fill="white"/>
<path d="M1311.02 214.017H1302.01V219.577H1311.02V214.017Z" fill="white"/>
<path d="M1138.55 175.814C1133.82 161.928 1121.18 153.399 1107.85 153.819C1104.62 153.922 1101.36 154.548 1098.16 155.75C1088.45 159.395 1081.49 167.51 1078.63 177.096C1076.65 183.741 1076.64 191.091 1079.04 198.153C1079.28 198.854 1079.54 199.546 1079.82 200.22C1081.09 203.279 1082.75 206.045 1084.72 208.477C1092.99 218.682 1106.71 222.994 1119.44 218.216C1135.87 212.047 1144.42 193.063 1138.55 175.814ZM1116.77 210.4C1107.23 213.984 1096.94 210.749 1090.74 203.1C1089.27 201.276 1088.02 199.202 1087.07 196.908C1086.86 196.402 1086.67 195.884 1086.49 195.358C1084.69 190.064 1084.7 184.553 1086.18 179.572C1088.32 172.383 1093.54 166.298 1100.82 163.569C1103.22 162.667 1105.67 162.197 1108.09 162.12C1118.08 161.804 1127.56 168.199 1131.1 178.61C1135.51 191.541 1129.09 205.774 1116.77 210.4Z" fill="#4AAFFF"/>
<path d="M1086.18 179.571L1078.63 177.097C1081.49 167.51 1088.45 159.395 1098.15 155.751C1101.36 154.548 1104.62 153.922 1107.85 153.82L1108.09 162.118C1105.67 162.196 1103.22 162.665 1100.82 163.567C1093.54 166.298 1088.32 172.383 1086.18 179.571Z" fill="#1A598C"/>
<path d="M1087.07 196.907L1079.82 200.22C1079.54 199.546 1079.28 198.855 1079.04 198.152C1076.64 191.091 1076.65 183.741 1078.63 177.096L1086.18 179.571C1084.69 184.551 1084.68 190.063 1086.49 195.357C1086.67 195.884 1086.86 196.401 1087.07 196.907Z" fill="#2273B5"/>
<path d="M1084.72 208.477C1082.75 206.046 1081.09 203.279 1079.82 200.22L1087.07 196.907C1088.02 199.201 1089.27 201.276 1090.75 203.099L1084.72 208.477Z" fill="#3788CC"/>
<path d="M1397.36 283.047H1388.59V281.909H1396.28V254.72H1381.36V154.388H1193V153.251H1382.45V253.582H1397.36V283.047Z" fill="#4AAFFF"/>
<path d="M1137.49 333.298H1046.35V327.166H1047.43V332.162H1137.49V333.298Z" fill="#4AAFFF"/>
<path d="M1237.02 146.706H1193V147.843H1237.02V146.706Z" fill="#4AAFFF"/>
<path d="M1161.94 388.592C1161.94 388.592 1164.57 389.703 1165.16 390.052C1165.74 390.402 1166.32 390.732 1166.55 390.673C1166.78 390.615 1168.92 388.822 1169.58 388.437C1170.24 388.053 1175.17 384.169 1174.87 384.095C1174.56 384.022 1171.78 383.865 1168.81 385.576C1165.83 387.288 1163.81 385.415 1162.77 385.681C1161.72 385.947 1161.94 388.592 1161.94 388.592Z" fill="#EEA886"/>
<path d="M1243.85 385.779C1243.85 385.779 1241.18 385.709 1240.68 385.994C1240.19 386.279 1239.56 386.24 1239.37 386.189C1239.18 386.138 1237.41 384.612 1236.86 384.281C1236.32 383.951 1232.23 380.643 1232.49 380.584C1232.75 380.525 1235.22 380.723 1237.68 382.203C1240.68 384.003 1242.44 382.672 1243.53 382.676C1244.44 382.679 1243.85 385.779 1243.85 385.779Z" fill="#EEA886"/>
<path d="M1268.11 463.275C1268.11 463.275 1268.67 468.595 1268.27 470.301C1267.87 472.007 1267.34 474.014 1265.78 474.219C1264.22 474.424 1263.17 472.462 1263.27 470.686C1263.36 468.968 1263.88 467.817 1264.46 466.485C1265.05 465.155 1265.24 463.567 1265.24 463.567L1268.11 463.275Z" fill="#4D5285"/>
<path d="M1276.56 464.439C1276.56 464.439 1277.7 467.613 1278.42 468.126C1279.13 468.638 1282.24 469.218 1282.33 469.969C1282.42 470.72 1282.03 471.949 1280.37 472.052C1278.71 472.155 1276.33 472.325 1275.36 471.403C1274.38 470.48 1273.86 467.476 1273.11 467.339C1273.11 467.339 1272.24 468.603 1272.24 469.866C1272.24 469.866 1271.81 470.071 1271.72 469.662C1271.62 469.252 1271.95 463.994 1273.83 461.263C1275.72 458.531 1276.56 464.439 1276.56 464.439Z" fill="#4D5285"/>
<path d="M1274.22 418.245C1274.22 418.245 1271.43 426.235 1271.63 427.822C1271.83 429.409 1271.63 434.219 1270.99 436.627C1270.36 439.035 1270.75 444.134 1269.68 448.281C1268.6 452.43 1268.07 462.697 1268.07 464.029C1268.07 465.361 1265.39 466.282 1265.24 463.568C1265.1 460.854 1262.71 447.539 1263.19 443.955C1263.68 440.368 1265.05 435.863 1264.37 433.149C1263.68 430.435 1262.85 427.054 1262.85 425.262C1262.85 423.47 1274.22 418.245 1274.22 418.245Z" fill="#EEA987"/>
<path d="M1275.1 418.449C1275.1 418.449 1282.37 430.228 1282.9 431.458C1283.44 432.687 1283.39 435.298 1282.9 436.169C1282.42 437.04 1277.39 444.466 1276.71 447.18C1276.02 449.894 1274.37 459.624 1273.98 460.649C1273.59 461.674 1274.09 463.79 1274.87 464.199C1275.65 464.609 1275.87 464.046 1275.87 464.046C1275.87 464.046 1279.55 455.212 1281.25 452.131C1282.63 449.649 1288.42 440.006 1289 439.242C1289.74 438.272 1290.64 435.464 1290.81 433.302C1290.93 431.725 1288.32 419.987 1288.32 419.987C1288.32 419.987 1289.2 414.916 1275.1 418.449Z" fill="#EEA987"/>
<path d="M1263.68 401.038C1263.68 401.038 1259.93 408.617 1261 415.223C1262.07 421.83 1262.56 427.053 1261.49 428.948C1261.49 428.948 1269.58 429.205 1276.95 426.132C1284.32 423.059 1289.39 421.318 1289.39 421.318C1289.39 421.318 1286.61 408.105 1285.44 404.93C1284.27 401.756 1283.38 398.189 1283.29 396.771C1283.21 395.354 1263.68 401.038 1263.68 401.038Z" fill="#292C47"/>
<path d="M1260.3 376.243C1260.3 376.243 1254.24 380.922 1253.59 381.128C1252.94 381.333 1243 382.574 1241.15 383.182C1239.39 383.762 1241.83 385.737 1241.83 385.737C1241.83 385.737 1252.61 385.995 1253.68 385.737C1254.81 385.464 1255.16 385.811 1258.28 384C1261.41 382.191 1263.49 381.031 1263.49 381.031C1263.49 381.031 1264.11 377.174 1260.3 376.243Z" fill="#EEA987"/>
<path d="M1286.36 380.734C1286.36 380.734 1291.72 388.029 1291.72 388.609C1291.72 389.19 1285.64 395.301 1284.92 395.882L1285.99 398.784C1285.99 398.784 1297.57 392.194 1298.12 390.59C1298.68 388.985 1294.38 382.044 1290.42 376.484C1286.45 370.924 1284.49 378.492 1286.36 380.734Z" fill="#292C47"/>
<path d="M1290.61 376.76C1290.61 376.97 1289.99 376.859 1289.87 376.954C1289.57 377.2 1289.26 377.439 1288.96 377.676C1288.29 378.192 1287.61 378.695 1286.94 379.195C1286.75 379.337 1286.42 379.489 1286.27 379.683C1286.11 379.902 1286.23 380.083 1286.3 380.401C1286.51 381.43 1286.54 381.074 1286.61 382.127C1286.76 384.331 1285.66 387.532 1284.6 389.333C1284.18 390.046 1283.62 390.795 1283.39 391.61C1283.11 392.596 1283.17 393.729 1283.19 394.746C1283.2 395.246 1283.23 395.745 1283.26 396.244C1283.26 396.337 1283.35 396.701 1283.29 396.769C1283.27 396.804 1283.02 396.8 1282.98 396.806C1282.24 396.906 1281.5 397.059 1280.77 397.225C1277.2 398.038 1273.8 399.471 1270.23 400.297C1268.12 400.786 1265.86 401.191 1263.68 401.037C1264.27 399.925 1264.67 398.781 1264.92 397.787C1265.42 395.841 1265.81 393.846 1266.1 391.852C1266.38 389.929 1266.53 387.844 1265.86 385.987C1265.52 385.037 1264.95 384.246 1264.43 383.404C1263.87 382.504 1263.63 381.633 1263.41 380.605C1263.01 378.743 1261.82 376.916 1260.11 376.147C1260.35 375.807 1260.77 375.556 1261.09 375.312C1261.63 374.913 1262.18 374.531 1262.74 374.153C1263.26 373.796 1263.85 373.253 1264.44 373.033C1264.83 372.885 1265.31 372.855 1265.73 372.773C1266.64 372.594 1267.55 372.421 1268.46 372.253C1270.99 371.787 1273.52 371.358 1276.07 371.007C1278.41 370.685 1280.79 370.364 1283.15 370.406C1284.1 370.423 1284.95 370.512 1285.79 371.008C1287.79 372.188 1289.41 374.744 1290.61 376.76Z" fill="#292C47"/>
<path d="M1274.81 348.425C1274.81 348.425 1279.29 348.297 1280.37 352.727C1281.33 356.657 1280.76 360.067 1280.72 362.798C1280.69 365.53 1283.4 369.962 1283.4 369.962C1283.4 369.962 1278.9 369.489 1278.48 368.021C1278.06 366.554 1269.89 370.139 1269.89 370.139C1269.89 370.139 1272.59 368.295 1270.09 363.106C1267.59 357.917 1267.56 355.639 1267.49 353.956C1267.44 352.864 1268.53 348.459 1274.81 348.425Z" fill="#464240"/>
<path d="M1271.13 349.758C1271.13 349.758 1266.61 353.206 1268.59 360.034C1270.58 366.862 1271.88 366.453 1275.1 364.916C1278.32 363.38 1279.42 359.215 1279.55 357.133C1279.68 355.049 1279.75 346.104 1271.13 349.758Z" fill="#EEA987"/>
<path d="M1284.68 370.545C1282.2 372.436 1263.15 374.239 1264.4 373.041C1265.52 371.965 1271.07 369.49 1272.53 368.603C1273.07 368.276 1273.38 367.762 1273.57 367.243C1273.89 366.367 1273.84 365.483 1273.84 365.483V365.482C1273.87 365.398 1277.5 356.181 1278 362.146C1278.43 367.302 1280.14 368.228 1280.14 368.228C1283.54 370.14 1284.68 370.545 1284.68 370.545Z" fill="#EEA987"/>
<path d="M1270.45 352.353C1270.45 352.353 1271.32 352.233 1272.05 355.588C1272.37 357.049 1273.19 359.07 1275.81 361.093C1278.65 363.288 1279.13 363.449 1279.13 363.449C1279.13 363.449 1282.74 349.603 1275.19 348.847C1267.65 348.09 1267.71 354.432 1267.78 355.967C1267.84 357.503 1268.11 357.261 1268.11 357.261C1268.11 357.261 1268.21 352.543 1270.45 352.353Z" fill="#464240"/>
<path d="M1284.92 395.882C1284.92 395.882 1284.54 396.128 1284.16 396.057C1283.5 395.935 1282.88 395.102 1282.07 395.617C1281.27 396.134 1282.22 399.1 1282.68 399.509C1283.15 399.918 1284.45 400.073 1285.99 398.792C1287.54 397.512 1284.92 395.882 1284.92 395.882Z" fill="#EEA987"/>
<path d="M1282.39 395.459C1282.39 395.459 1280.98 395.687 1279.43 396.117C1278.07 396.494 1276.56 397.187 1276.52 397.486C1276.49 397.819 1277.94 397.31 1279.32 397.025C1280.58 396.762 1281.76 396.607 1281.76 396.607C1281.76 396.607 1280.43 396.947 1279.11 397.499C1277.69 398.093 1276.29 398.843 1276.29 399.202C1276.29 399.377 1276.83 399.31 1277.58 399.138C1277.01 399.359 1276.63 399.558 1276.68 399.688C1276.94 400.36 1280.75 399.397 1281.64 399.178C1280.96 399.351 1278.89 399.963 1279.32 400.277C1279.8 400.635 1282.69 399.789 1283.86 399.802C1285.03 399.817 1282.39 395.459 1282.39 395.459Z" fill="#EEA987"/>
<path d="M1277.21 363.26C1277.21 363.26 1276.76 365.542 1273.57 367.243C1273.89 366.367 1273.84 365.483 1273.84 365.483V365.482C1273.88 365.467 1276.57 364.378 1277.21 363.26Z" fill="#A87860"/>
<path d="M1263.49 381.031C1263.49 381.031 1258.13 385.854 1254.51 385.852C1250.89 385.85 1241.86 386.224 1241.86 386.224L1240.51 382.954C1240.51 382.954 1252.65 381.309 1253.41 381.048C1254.18 380.786 1260.11 376.148 1260.11 376.148C1260.11 376.148 1264.63 376.504 1263.49 381.031Z" fill="#292C47"/>
<path d="M1243.7 422.25C1243.7 428.476 1242.54 434.418 1240.43 439.852V439.861C1239.01 443.519 1237.17 446.951 1234.95 450.081C1226.84 461.567 1213.83 469.003 1199.17 469.003C1174.56 469.003 1154.62 448.07 1154.62 422.25C1154.62 396.421 1174.56 375.487 1199.17 375.487C1207.55 375.487 1215.4 377.918 1222.09 382.15C1233.14 389.131 1241.08 401.016 1243.16 414.933C1243.52 417.318 1243.7 419.765 1243.7 422.25Z" fill="#33A4FF"/>
<path d="M1252.18 413.432L1199.2 422.246L1226.81 373.945C1240.12 382.353 1249.68 396.67 1252.18 413.432Z" fill="#007FE6"/>
<path d="M1245.2 422.246C1245.2 428.676 1244 434.814 1241.82 440.427L1199.2 422.246L1244.63 414.687C1245.01 417.151 1245.2 419.68 1245.2 422.246Z" fill="#0064B5"/>
<path d="M1244.43 441.54V441.55C1242.87 445.56 1240.85 449.322 1238.42 452.754L1199.2 422.246L1244.43 441.54Z" fill="#004E8C"/>
<path d="M1139.14 468.236C1139.14 468.236 1141.14 470.657 1143.2 471.19C1145.26 471.724 1147.56 472.749 1147.56 474.119C1147.55 475.488 1140.71 475.933 1138.36 474.513C1134.86 472.395 1134.49 473.011 1134.11 471.974C1133.74 470.938 1134.64 468.197 1134.62 467.869C1134.59 467.462 1139.14 468.236 1139.14 468.236Z" fill="#292C47"/>
<path d="M1138.92 467.091C1138.92 467.091 1139.18 468.213 1139.14 468.236C1139.1 468.26 1134.47 468.763 1134.62 467.868C1134.74 467.142 1134.92 466.354 1134.92 466.354L1138.92 467.091Z" fill="#424773"/>
<path d="M1096.45 461.921C1096.45 461.921 1097.33 464.922 1098.97 466.257C1100.62 467.592 1101.27 469.455 1100.75 470.681C1100.23 471.907 1094.92 470.959 1093.39 467.223C1092.34 464.666 1091.04 463.661 1091.09 462.575C1091.15 461.49 1092.44 460.016 1092.54 459.713C1092.67 459.339 1096.45 461.921 1096.45 461.921Z" fill="#292C47"/>
<path d="M1096.92 460.873C1096.92 460.873 1096.5 461.916 1096.45 461.92C1096.41 461.924 1092.12 460.482 1092.54 459.712C1092.88 459.101 1093.51 458.457 1093.51 458.457L1096.92 460.873Z" fill="#424773"/>
<path d="M1092.34 409.557C1092.34 409.557 1093.7 406.589 1094.65 406.447C1095.6 406.304 1094.79 407.055 1094.79 407.055C1094.79 407.055 1093.5 409.077 1093.05 409.928C1093.03 409.971 1092.34 409.557 1092.34 409.557Z" fill="#292C47"/>
<path d="M1098.56 404.238C1098.56 404.238 1098.25 405.693 1098.13 407.177C1098.01 408.661 1098.21 409.235 1097.76 409.92C1097.41 410.438 1096.64 410.601 1096.55 410.352C1096.47 410.104 1097.25 407.862 1096.38 407.497C1095.5 407.133 1095.57 410.345 1095.13 409.922C1094.69 409.499 1093.14 407.49 1093.7 406.43C1094.26 405.37 1095.37 404.909 1095.97 403.224C1096.51 401.693 1097.21 401.256 1097.21 401.256L1098.56 404.238Z" fill="#EEA886"/>
<path d="M1096.5 407.44C1096.5 407.44 1097.54 408.251 1095.86 412.345L1094.64 411.549C1094.64 411.549 1095.55 409.28 1095.64 407.87C1095.64 407.87 1096.02 407.092 1096.5 407.44Z" fill="#292C47"/>
<path d="M1099.23 414.879L1090.18 407.427L1085.04 420.68L1092.73 431.474L1099.23 414.879Z" fill="#292C47"/>
<path d="M1131.96 408.188C1131.96 408.188 1141.52 428.267 1143.24 433.098C1144.84 437.574 1143.21 442.003 1142.92 445.391C1142.6 449.27 1139.85 465.801 1140.02 466.945C1140.18 468.09 1134.21 467.16 1134.21 467.16C1134.21 467.16 1136.64 440.78 1135.04 436.883C1133.97 434.283 1123.49 416.656 1122.65 417.666C1121.82 418.675 1112.53 433.905 1111.25 436.926C1110.06 439.757 1097.5 461.361 1097.5 461.361C1097.5 461.361 1094.25 460.911 1092.15 458.657C1092.15 458.657 1103.71 434.767 1104.81 430.656C1105.37 428.564 1110.47 413.934 1114.19 404.52C1116.16 399.546 1131.96 408.188 1131.96 408.188Z" fill="#292C47"/>
<path d="M1095.25 403.608C1095.25 403.608 1097.36 406.022 1098.39 405.876C1099.43 405.73 1106.54 392.376 1107.46 390.363C1108.38 388.351 1112.87 383.858 1112.87 383.858C1112.87 383.858 1112.87 383.861 1112.87 383.868C1112.87 383.87 1112.87 383.872 1112.87 383.875C1112.87 383.877 1112.87 383.881 1112.87 383.884C1112.97 384.331 1114.26 390.522 1114.18 393.463C1114.1 396.512 1114.59 402.189 1114.59 402.189L1115.48 402.367L1130.25 405.314L1131.57 405.578C1131.57 405.578 1132.37 404.569 1132.37 402.196C1132.37 400.686 1132.32 397.846 1132.51 395.224C1132.51 395.21 1132.52 395.198 1132.52 395.184C1132.52 395.15 1132.52 395.117 1132.52 395.083C1132.53 395.07 1132.53 395.058 1132.53 395.045C1132.64 393.604 1131.86 392.334 1132.17 391.309C1133.01 388.44 1132.66 385.819 1132.65 385.703L1133 379.995C1133.13 380.329 1142.64 382.689 1143.43 383.038C1144.23 383.395 1159.7 387.637 1160.59 386.841C1161.55 385.991 1160.25 384.412 1160.25 384.412L1144.19 380.216L1135.49 374.795C1135.38 374.686 1133.61 373.853 1132.58 373.27C1130.98 372.371 1128.76 371.156 1127.33 370.381C1126.5 369.927 1125.94 369.623 1125.94 369.623C1125.94 369.623 1119.87 368.703 1119.4 368.71C1119.25 368.712 1118.51 368.941 1117.53 369.275C1115.43 369.995 1112.24 371.202 1111.58 371.648C1110.61 372.301 1103.69 386.327 1103.09 387.316C1102.5 388.303 1095.25 403.608 1095.25 403.608Z" fill="#DECBC4"/>
<path d="M1131.57 405.575C1131.57 405.575 1131.94 406.09 1131.96 408.189C1131.96 408.189 1115.87 405.389 1114.19 404.521C1114.19 404.521 1114.23 402.21 1114.6 402.189C1115 402.165 1131.57 405.575 1131.57 405.575Z" fill="#363A5E"/>
<path d="M1119.45 368.133C1119.38 370.802 1124.23 372.51 1124.23 372.51C1124.23 372.51 1126.41 369.906 1125.93 369.622C1125.75 369.511 1125.69 369.103 1125.68 368.649C1125.68 368.216 1125.73 367.742 1125.77 367.441C1125.79 367.252 1125.81 367.131 1125.81 367.131C1125.81 367.131 1125.14 366.318 1124.29 365.346C1122.8 363.646 1120.75 361.46 1120.71 362.286C1120.71 362.33 1120.71 362.383 1120.72 362.444C1121.01 364.322 1119.45 368.133 1119.45 368.133Z" fill="#EEA886"/>
<path d="M1118.27 402.784C1118.27 402.784 1117.81 405.105 1117.76 405.713L1117.01 405.519C1117.01 405.519 1117.33 403.055 1117.47 402.646L1118.27 402.784Z" fill="#5D676C"/>
<path d="M1130.23 405.234C1130.23 405.234 1130.42 407.374 1130.39 408.178L1129.6 408.03C1129.6 408.03 1129.56 405.367 1129.48 405.085L1130.23 405.234Z" fill="#292C47"/>
<path d="M1121.53 364.323C1121.54 364.34 1121.73 364.678 1122.06 365.165C1122.77 366.2 1124.12 367.91 1125.68 368.649C1125.68 368.216 1125.73 367.742 1125.77 367.441C1125.93 367.445 1126.09 367.433 1126.26 367.403C1125.86 366.58 1125.26 365.706 1125.26 365.706L1124.29 365.347L1121.53 364.323Z" fill="#A77860"/>
<path d="M1120.67 362.32C1121.05 363.313 1121.42 364.038 1121.53 364.322C1121.59 364.509 1121.78 364.815 1122.07 365.165C1122.83 366.123 1124.28 367.408 1125.77 367.44C1125.93 367.444 1126.1 367.432 1126.26 367.403C1126.86 367.296 1127.58 367.041 1128.01 366.261C1131.36 360.111 1129.38 354.841 1129.38 354.841C1129.38 354.841 1121.11 351.926 1119.67 354.512C1118.66 356.326 1119.78 359.987 1120.67 362.32Z" fill="#EEA886"/>
<path d="M1129.38 354.842C1129.38 354.842 1130.16 354.836 1130.42 353.296C1130.68 351.773 1130.32 351.329 1130.32 351.329C1130.32 351.329 1130.1 352.357 1125.86 349.884C1124.76 349.241 1121.41 348.766 1120.65 349.591C1120.65 349.591 1118.93 349.077 1118.31 352.088C1117.34 356.866 1120.45 361.709 1120.45 361.709C1120.45 361.709 1120.56 358.562 1121.24 358.178C1121.92 357.795 1122.45 358.816 1122.45 358.816L1123.79 359.138C1123.79 359.138 1121.95 354.379 1124.42 354.332C1126.89 354.284 1127.96 355.041 1129.38 354.842Z" fill="#FCCCA2"/>
<path d="M1122.47 357.558C1122.4 356.166 1120.04 355.516 1120.13 356.977C1120.22 358.437 1121.34 359.893 1121.88 359.871C1122.43 359.85 1122.52 358.62 1122.47 357.558Z" fill="#EEA886"/>
<path d="M1107.46 390.362C1106.43 392.317 1099.96 405.414 1098.93 405.561C1097.89 405.708 1095.27 403.088 1095.27 403.088C1095.27 403.088 1102.5 388.302 1103.09 387.315C1103.69 386.326 1110.61 372.3 1111.58 371.647C1112.13 371.269 1114.5 370.348 1116.49 369.638C1116.86 369.508 1117.21 369.384 1117.53 369.274C1117.93 369.779 1124.23 378.022 1123.28 384.999C1123 387.095 1122.59 390.516 1121.86 394.105C1121.12 397.832 1120 402.033 1119.25 405.208C1117.9 410.951 1115.25 416.355 1115.25 416.355L1109.16 412.762C1108.2 412.195 1107.8 410.969 1108.22 409.901C1109.81 405.846 1113 397.651 1113.16 394.03C1113.16 394.03 1113.32 385.843 1112.87 383.867C1112.87 383.867 1108.64 388.12 1107.46 390.362Z" fill="#323657"/>
<path d="M1146 379.97L1166.46 385.529C1166.46 385.529 1164.68 388.708 1164.06 389.591C1163.72 390.067 1145.03 384.975 1144.2 384.681C1143.14 384.303 1133.97 381.243 1133.84 380.91L1133.34 385.941C1133.25 390.487 1132.54 393.579 1132.64 397.114C1132.83 403.928 1135.01 411.653 1135.69 414.422C1135.81 414.885 1135.66 415.374 1135.31 415.681L1133.28 417.466C1133.28 417.466 1130.98 408.588 1130.8 405.416C1130.63 402.353 1129.85 398.221 1129.61 394.219V394.217C1129.3 389.141 1128.97 384.111 1128.71 381.151C1128.02 373.45 1127.3 370.409 1127.3 370.409L1127.34 370.379C1127.8 370.63 1128.34 370.927 1128.92 371.244C1130.13 371.907 1133.38 373.273 1134.66 373.919C1134.66 373.92 1144.49 379.476 1146 379.97Z" fill="#323657"/>
<path d="M1118.6 375.96L1120.92 377.497L1119.85 378.54L1121.87 394.104C1122.59 390.516 1123 387.094 1123.28 384.998C1124.23 378.022 1117.93 369.778 1117.53 369.273C1117.21 369.384 1116.86 369.508 1116.49 369.637L1118.6 375.96Z" fill="#3C4169"/>
<path d="M1127.26 370.341C1127.26 370.341 1128.01 373.451 1128.7 381.152C1128.97 384.111 1129.3 389.142 1129.61 394.218L1130.83 379.798L1129.75 378.444L1130.82 377.166L1128.92 371.245C1128.34 370.928 1127.79 370.631 1127.33 370.38L1127.26 370.341Z" fill="#3C4169"/>
<path d="M1116.49 369.637C1114.5 370.347 1110.65 371.418 1110.1 371.796C1109.14 372.448 1103.69 386.326 1103.09 387.315L1116.49 369.637Z" fill="#323657"/>
<path d="M1092.73 431.474L1091.35 431.172L1083.96 420.438L1089.3 407.122L1090.18 407.427L1092.73 431.474Z" fill="#292C47"/>
<path d="M1125.17 404.899L1125.55 404.853C1125.34 402.878 1125.89 396.361 1126.34 391.125C1126.48 389.43 1126.62 387.83 1126.71 386.622C1127.06 381.788 1124.74 374.536 1124.71 374.464L1124.35 374.593C1124.38 374.664 1126.68 381.839 1126.33 386.592C1126.24 387.796 1126.1 389.396 1125.96 391.09C1125.51 396.344 1124.95 402.883 1125.17 404.899Z" fill="#AD9F99"/>
<path d="M1123.46 403.779C1123.46 403.779 1125.82 404.198 1126.6 404.444L1126.37 407.239L1123.27 406.733L1123.46 403.779Z" fill="#5B629E"/>
<path d="M1125.65 374.806C1125.65 374.806 1124.64 382.347 1119.09 383.023C1113.53 383.699 1105.94 387.381 1103.63 389.584L1100.8 392.463L1101.05 389.022C1101.05 389.022 1102.54 383.45 1118.92 382.369C1118.92 382.369 1123.59 382.494 1123.98 374.526C1123.98 374.526 1125.7 374.477 1125.65 374.806Z" fill="#FAB46C"/>
<path d="M1126.05 374.894C1126.05 374.894 1124.67 375.862 1123.17 374.931C1123.17 374.931 1123.86 372.577 1124.21 372.511C1124.56 372.446 1126.24 374.469 1126.05 374.894Z" fill="#E09A55"/>
<path d="M1117.41 369.299L1119.45 368.134C1119.45 368.134 1119.46 369.28 1124.23 372.511L1122.65 376.565L1117.41 369.299Z" fill="#F5E2D9"/>
<path d="M1125.7 369.026C1125.7 369.026 1125.57 370.255 1124.23 372.51L1126.78 376.373L1127.26 370.341L1125.7 369.026Z" fill="#F5E2D9"/>
<path d="M1285.61 321.678L1296.16 321.979C1295.26 321.386 1293.83 320.331 1294.17 319.888C1294.66 319.255 1297.59 320.796 1298.8 320.972C1299.91 321.133 1301.78 321.054 1303.18 321.65L1306.46 323.266L1303.3 326.115C1303.3 326.115 1297.76 326.736 1296.14 326.795C1293.51 326.89 1285.59 323.3 1285.47 322.797C1285.26 321.89 1285.61 321.678 1285.61 321.678Z" fill="#EEA886"/>
<path d="M1347.29 294.328C1354 293.09 1361.07 291.312 1361.07 291.312L1373.57 290.777C1373.57 290.777 1385.04 293.428 1389.56 295.57C1389.98 295.774 1389.99 306.314 1391.16 309.078L1387.42 317.373C1387.42 317.373 1385.25 333.805 1384.8 341.113C1384.6 344.468 1389.27 372.572 1389.27 372.572C1389.27 372.572 1384.26 374.118 1375.73 375.106C1367.2 376.092 1345.89 374.749 1345.75 373.692C1345.62 372.633 1349.88 334.307 1350.07 332.322C1350.36 329.276 1349.23 315.199 1349.23 315.199C1347.62 317.465 1338.33 325.968 1333.79 328.669C1330.57 330.59 1322.65 329.416 1320.32 329.167C1315.27 328.626 1301.33 327.579 1301.06 327.058C1300.84 326.745 1301.86 321.41 1302.44 321.205C1302.95 321.026 1320.95 320.093 1325.46 320.339C1327.3 320.439 1333.27 313.434 1333.27 313.434C1333.27 313.434 1343.59 296.074 1347.29 294.328Z" fill="#E8734D"/>
</svg>
