<svg width="395" height="395" viewBox="0 0 395 395" fill="none" xmlns="http://www.w3.org/2000/svg">
<path d="M395 302.094H0V302.292H395V302.094Z" fill="#EBEBEB"/>
<path d="M102.99 309.618H41.4424V309.816H102.99V309.618Z" fill="#EBEBEB"/>
<path d="M355.422 315.627H325.48V315.825H355.422V315.627Z" fill="#EBEBEB"/>
<path d="M118.942 316.954H103.781V317.152H118.942V316.954Z" fill="#EBEBEB"/>
<path d="M193.834 307.474H159.712V307.672H193.834V307.474Z" fill="#EBEBEB"/>
<path d="M205.871 307.474H200.868V307.672H205.871V307.474Z" fill="#EBEBEB"/>
<path d="M293.001 312.292H258.856V312.489H293.001V312.292Z" fill="#EBEBEB"/>
<path d="M187.241 266.862H34.6929C32.2068 266.862 30.1836 264.839 30.1836 262.353V47.9214C30.1836 45.4353 32.2068 43.4121 34.6929 43.4121H187.241C189.726 43.4121 191.75 45.4353 191.75 47.9214V262.353C191.75 264.839 189.726 266.862 187.241 266.862ZM34.6929 43.6104C32.3158 43.6104 30.3811 45.5443 30.3811 47.9222V262.353C30.3811 264.731 32.3158 266.665 34.6929 266.665H187.241C189.618 266.665 191.552 264.731 191.552 262.353V47.9214C191.552 45.5443 189.618 43.6096 187.241 43.6096H34.6929V43.6104Z" fill="#EBEBEB"/>
<path d="M358.116 266.862H205.568C203.082 266.862 201.059 264.839 201.059 262.353V47.9214C201.059 45.4353 203.082 43.4121 205.568 43.4121H358.116C360.602 43.4121 362.625 45.4353 362.625 47.9214V262.353C362.625 264.839 360.602 266.862 358.116 266.862ZM205.568 43.6104C203.191 43.6104 201.257 45.5443 201.257 47.9222V262.353C201.257 264.731 203.191 266.665 205.568 266.665H358.116C360.494 266.665 362.428 264.731 362.428 262.353V47.9214C362.428 45.5443 360.494 43.6096 358.116 43.6096H205.568V43.6104Z" fill="#EBEBEB"/>
<path d="M104.965 284.035H66.1498C64.4197 284.035 62.9511 282.766 62.7007 281.054L52.9852 214.636C52.6771 212.532 54.3077 210.646 56.4344 210.646H95.2486C96.9787 210.646 98.4474 211.915 98.6978 213.626L108.413 280.044C108.722 282.148 107.091 284.035 104.965 284.035Z" fill="#F0F0F0"/>
<path d="M70.7673 284.035H52.4662C50.7361 284.035 49.2675 282.766 49.017 281.054L39.3016 214.637C38.9935 212.533 40.6249 210.646 42.7508 210.646H61.0511C62.7812 210.646 64.2498 211.916 64.5003 213.627L74.2157 280.045C74.5238 282.148 72.8932 284.035 70.7673 284.035Z" fill="#FAFAFA"/>
<path d="M302.431 193.813H113.775C108.983 193.813 104.767 197.406 104.356 201.838L99.6085 253.118C99.1977 257.55 102.75 261.143 107.541 261.143H296.196C300.987 261.143 305.204 257.55 305.614 253.118L310.362 201.838C310.773 197.406 307.222 193.813 302.431 193.813Z" fill="#E0E0E0"/>
<path d="M289.625 193.813H100.969C96.1783 193.813 91.9612 197.406 91.5504 201.838L86.8017 253.118C86.3917 257.55 89.9428 261.143 94.7349 261.143H283.391C288.182 261.143 292.398 257.55 292.809 253.118L297.557 201.838C297.967 197.406 294.416 193.813 289.625 193.813Z" fill="#E6E6E6"/>
<path d="M77.1523 278.351V260.093C77.1523 256.954 79.6977 254.41 82.8364 254.41H153.892C157.031 254.41 159.575 256.955 159.575 260.093V278.351C159.575 281.49 157.031 284.035 153.892 284.035H82.8364C79.6969 284.035 77.1523 281.49 77.1523 278.351Z" fill="#EBEBEB"/>
<path d="M179.896 278.834V259.611C179.896 256.739 182.225 254.411 185.098 254.411H268.027C270.899 254.411 273.228 256.74 273.228 259.611V278.834C273.228 281.707 270.899 284.035 268.027 284.035H185.098C182.225 284.035 179.896 281.706 179.896 278.834Z" fill="#E0E0E0"/>
<path d="M159.575 278.834V259.611C159.575 256.739 161.904 254.411 164.777 254.411H247.705C250.578 254.411 252.907 256.74 252.907 259.611V278.834C252.907 281.707 250.578 284.035 247.705 284.035H164.777C161.904 284.035 159.575 281.706 159.575 278.834Z" fill="#EBEBEB"/>
<path d="M301.911 284.035H273.036C270.91 284.035 269.52 282.148 270.096 280.045L288.282 213.627C288.75 211.915 290.381 210.646 292.112 210.646H320.986C323.112 210.646 324.502 212.534 323.927 214.637L305.741 281.054C305.271 282.765 303.641 284.035 301.911 284.035Z" fill="#F0F0F0"/>
<path d="M277.653 284.035H259.351C257.225 284.035 255.835 282.148 256.411 280.045L274.596 213.627C275.065 211.915 276.695 210.646 278.426 210.646H296.727C298.853 210.646 300.244 212.534 299.668 214.637L281.483 281.054C281.013 282.765 279.383 284.035 277.653 284.035Z" fill="#FAFAFA"/>
<path d="M262.341 302.094H259.563L252.907 284.035H259.788L262.341 302.094Z" fill="#E0E0E0"/>
<path d="M297.59 302.094H294.812L288.156 284.035H295.036L297.59 302.094Z" fill="#E0E0E0"/>
<path d="M97.2266 302.094H100.003L106.66 284.035H99.7798L97.2266 302.094Z" fill="#E0E0E0"/>
<path d="M61.9775 302.094H64.7552L71.4117 284.035H64.5308L61.9775 302.094Z" fill="#E0E0E0"/>
<path d="M302.831 77.1569H92.1685V152.295H302.831V77.1569Z" fill="#E0E0E0"/>
<path d="M300.901 77.1569H90.2378V152.295H300.901V77.1569Z" fill="#F0F0F0"/>
<path d="M294.581 83.4769H96.5576V145.975H294.581V83.4769Z" fill="#FAFAFA"/>
<path d="M195.569 133.467C205.92 133.467 214.31 125.076 214.31 114.726C214.31 104.376 205.92 95.9858 195.569 95.9858C185.219 95.9858 176.829 104.376 176.829 114.726C176.829 125.076 185.219 133.467 195.569 133.467Z" fill="#F0F0F0"/>
<path d="M128.704 145.975L141.828 83.4769H170.794L157.67 145.975H128.704Z" fill="white"/>
<path d="M169.892 145.975L183.017 83.4769H197.5L184.376 145.975H169.892Z" fill="white"/>
<path d="M258.326 145.975L271.45 83.4769H285.934L272.809 145.975H258.326Z" fill="white"/>
<path d="M349.4 198.892C344.484 220.193 356.508 242.194 351.593 263.495C349.97 263.428 348.348 263.36 346.726 263.293C345.103 263.226 343.48 263.158 341.858 263.091C350.018 241.925 341.239 220.058 349.4 198.892Z" fill="#F0F0F0"/>
<path d="M336.803 208.129C340.831 228.494 327.904 248.858 331.931 269.223C333.556 269.223 335.179 269.223 336.803 269.223C338.427 269.223 340.051 269.223 341.675 269.223C334.4 248.858 344.079 228.494 336.803 208.129Z" fill="#F0F0F0"/>
<path d="M345.795 191.197C339.352 212.914 351.329 236.351 344.886 258.069C343.122 257.904 341.357 257.739 339.593 257.574C337.829 257.41 336.064 257.245 334.3 257.079C344.272 235.693 335.823 212.585 345.795 191.197Z" fill="#E6E6E6"/>
<path d="M355.286 222.47C357.364 234.213 345.776 243.447 347.854 255.191C349.163 255.431 350.472 255.671 351.781 255.912C353.09 256.152 354.399 256.392 355.709 256.633C351.013 244.409 359.982 234.694 355.286 222.47Z" fill="#E6E6E6"/>
<path d="M359.582 254.41C348.973 254.41 338.364 254.41 327.755 254.41C320.387 269.451 320.387 287.054 327.755 302.094C338.364 302.094 348.973 302.094 359.582 302.094C366.95 287.054 366.95 269.451 359.582 254.41Z" fill="#E0E0E0"/>
<path d="M197.5 337.774C282.095 337.774 350.672 333.769 350.672 328.828C350.672 323.887 282.095 319.882 197.5 319.882C112.905 319.882 44.3276 323.887 44.3276 328.828C44.3276 333.769 112.905 337.774 197.5 337.774Z" fill="#F5F5F5"/>
<path d="M303.199 216.929H132.482C130.642 216.929 129.219 215.424 129.32 213.583L135.069 108.92C135.17 107.08 136.759 105.574 138.599 105.574H309.317C311.157 105.574 312.58 107.081 312.479 108.92L306.73 213.583C306.628 215.424 305.04 216.929 303.199 216.929Z" fill="#263238"/>
<path d="M231.387 123.373H214.884C209.382 123.373 205.126 118.878 205.428 113.382L205.596 110.329C205.888 105.006 210.49 100.651 215.821 100.651H232.313C237.821 100.651 242.081 105.151 241.778 110.651L241.611 113.694C241.319 119.017 236.718 123.373 231.387 123.373Z" fill="#263238"/>
<path d="M246.409 325.53H241.121L226.565 102.982H231.853L246.409 325.53Z" fill="#263238"/>
<path d="M206.723 325.53H212.01L226.566 102.982H221.278L206.723 325.53Z" fill="#263238"/>
<path d="M302.29 216.929H131.574C129.733 216.929 128.31 215.424 128.411 213.583L134.161 108.92C134.262 107.08 135.851 105.574 137.691 105.574H308.407C310.248 105.574 311.671 107.081 311.57 108.92L305.821 213.583C305.719 215.424 304.131 216.929 302.29 216.929Z" fill="#407BFF"/>
<path opacity="0.4" d="M134.283 213.723C132.809 213.723 131.676 212.523 131.757 211.05L137.228 111.453C137.309 109.98 138.574 108.781 140.046 108.781H305.698C307.171 108.781 308.304 109.98 308.223 111.453L302.752 211.05C302.671 212.523 301.407 213.723 299.934 213.723H134.283Z" fill="#263238"/>
<path opacity="0.1" d="M300.961 160.931H251.098C249.844 160.931 248.884 159.914 248.953 158.66L251.443 113.325C251.453 113.149 251.317 113.005 251.14 113.005C250.963 113.005 250.811 113.149 250.802 113.325L248.312 158.66C248.243 159.914 247.171 160.931 245.917 160.931H194.101C192.847 160.931 191.886 159.914 191.955 158.66L194.445 113.325C194.455 113.149 194.319 113.005 194.142 113.005C193.965 113.005 193.814 113.149 193.804 113.325L191.314 158.66C191.245 159.914 190.173 160.931 188.919 160.931H139.056C138.878 160.931 138.727 161.075 138.717 161.252C138.707 161.429 138.843 161.572 139.02 161.572H188.883C190.136 161.572 191.097 162.589 191.028 163.843L188.538 209.178C188.529 209.355 188.664 209.499 188.841 209.499C189.018 209.499 189.17 209.355 189.18 209.178L191.67 163.843C191.738 162.589 192.81 161.572 194.064 161.572H245.881C247.135 161.572 248.095 162.589 248.027 163.843L245.537 209.178C245.526 209.355 245.662 209.499 245.839 209.499C246.017 209.499 246.168 209.355 246.177 209.178L248.667 163.843C248.736 162.589 249.808 161.572 251.063 161.572H300.925C301.103 161.572 301.254 161.429 301.264 161.252C301.273 161.075 301.138 160.931 300.961 160.931Z" fill="white"/>
<path opacity="0.4" d="M219.663 121.222H199.635L198.515 141.591L218.515 142.126L219.663 121.222Z" fill="#263238"/>
<path d="M217.491 141.25C210.791 140.924 204.09 140.597 197.389 140.27C198.501 133.346 199.199 126.406 199.479 119.485C206.22 119.811 212.96 120.138 219.699 120.464C219.38 127.388 218.643 134.329 217.491 141.25Z" fill="white"/>
<path opacity="0.4" d="M243.807 134.829L223.753 136.359L224.193 156.669L244.258 155.673L243.807 134.829Z" fill="#263238"/>
<path d="M243.167 154.881C236.433 155.068 229.699 155.256 222.964 155.443C223.548 148.484 223.714 141.539 223.466 134.646C230.24 134.455 237.013 134.264 243.786 134.074C243.995 140.972 243.789 147.921 243.167 154.881Z" fill="#407BFF"/>
<path opacity="0.4" d="M185.238 171.875L148.263 170.463L144.945 203.355L181.832 205.63L185.238 171.875Z" fill="#263238"/>
<path d="M179.996 204.141C167.648 203.14 155.298 202.138 142.947 201.137C145.426 190.009 147.141 178.824 148.084 167.641C160.508 168.644 172.93 169.649 185.351 170.652C184.336 181.834 182.548 193.019 179.996 204.141Z" fill="white"/>
<g opacity="0.3">
<path opacity="0.3" d="M147.182 125.824C146.035 125.824 145.15 124.886 145.212 123.739C145.275 122.593 146.265 121.655 147.411 121.655C148.558 121.655 149.444 122.593 149.382 123.739C149.319 124.886 148.329 125.824 147.182 125.824Z" fill="#263238"/>
<path opacity="0.8" d="M179.854 125.824H154.199C153.053 125.824 152.167 124.886 152.23 123.739C152.293 122.593 153.282 121.655 154.428 121.655H180.084C181.23 121.655 182.116 122.593 182.053 123.739C181.99 124.886 181 125.824 179.854 125.824Z" fill="#263238"/>
<path opacity="0.3" d="M146.683 134.915C145.537 134.915 144.649 133.976 144.713 132.83C144.776 131.684 145.765 130.746 146.911 130.746C148.058 130.746 148.944 131.684 148.881 132.83C148.819 133.976 147.829 134.915 146.683 134.915Z" fill="#263238"/>
<path opacity="0.8" d="M183.898 134.915H153.7C152.554 134.915 151.667 133.976 151.73 132.83C151.793 131.684 152.783 130.746 153.929 130.746H184.127C185.273 130.746 186.16 131.684 186.097 132.83C186.033 133.976 185.044 134.915 183.898 134.915Z" fill="#263238"/>
<path opacity="0.3" d="M146.183 144.004C145.037 144.004 144.15 143.067 144.214 141.92C144.277 140.773 145.267 139.836 146.413 139.836C147.559 139.836 148.446 140.773 148.383 141.92C148.32 143.067 147.33 144.004 146.183 144.004Z" fill="#263238"/>
<path opacity="0.8" d="M167.898 144.004H153.2C152.054 144.004 151.167 143.067 151.23 141.92C151.293 140.773 152.283 139.836 153.43 139.836H168.128C169.274 139.836 170.16 140.773 170.098 141.92C170.034 143.067 169.045 144.004 167.898 144.004Z" fill="#263238"/>
<path opacity="0.8" d="M181.509 153.095H166.811C165.664 153.095 164.778 152.156 164.841 151.01C164.904 149.864 165.893 148.925 167.04 148.925H181.738C182.884 148.925 183.77 149.864 183.708 151.01C183.645 152.157 182.655 153.095 181.509 153.095Z" fill="#263238"/>
<path opacity="0.3" d="M145.685 153.095C144.538 153.095 143.652 152.156 143.715 151.01C143.778 149.864 144.767 148.925 145.914 148.925C147.06 148.925 147.947 149.864 147.884 151.01C147.821 152.157 146.831 153.095 145.685 153.095Z" fill="#263238"/>
<path opacity="0.8" d="M159.489 153.095H152.701C151.555 153.095 150.669 152.156 150.731 151.01C150.794 149.864 151.784 148.925 152.93 148.925H159.718C160.864 148.925 161.751 149.864 161.688 151.01C161.624 152.157 160.635 153.095 159.489 153.095Z" fill="#263238"/>
</g>
<path d="M209.464 180.145H199.516L198.148 205.037H208.097L209.464 180.145Z" fill="#407BFF"/>
<path d="M224.553 185.276H214.605L213.52 205.037H223.468L224.553 185.276Z" fill="#407BFF"/>
<path d="M240.653 172.021H230.705L228.892 205.037H238.839L240.653 172.021Z" fill="#407BFF"/>
<path d="M201.731 194.19C200.745 194.19 199.752 194.164 198.748 194.112C197.01 194.023 194.756 193.804 192.729 192.892C192.406 192.747 192.262 192.367 192.408 192.044C192.553 191.721 192.932 191.577 193.255 191.722C195.087 192.547 197.188 192.748 198.813 192.832C210.749 193.446 221.202 190.337 231.721 183.049C234.23 181.312 237.974 178.098 240.275 174.757C240.476 174.464 240.876 174.393 241.167 174.592C241.458 174.793 241.532 175.193 241.331 175.484C238.935 178.964 235.173 182.218 232.451 184.103C222.572 190.949 212.736 194.19 201.731 194.19Z" fill="white"/>
<path d="M242.813 179.671C242.732 179.671 242.649 179.655 242.568 179.622C242.24 179.487 242.085 179.112 242.221 178.784C243.129 176.585 243.32 174.112 242.773 171.875C240.272 173.556 237.603 174.973 234.825 176.093C234.496 176.225 234.123 176.067 233.99 175.739C233.858 175.41 234.016 175.036 234.345 174.904C237.306 173.709 240.141 172.167 242.771 170.318C242.936 170.202 243.147 170.17 243.339 170.233C243.532 170.296 243.683 170.446 243.748 170.638C244.669 173.369 244.545 176.516 243.406 179.273C243.304 179.522 243.065 179.671 242.813 179.671Z" fill="white"/>
<path d="M295.199 155.132H258.192C257.564 155.132 256.985 154.886 256.564 154.44C256.141 153.994 255.927 153.401 255.962 152.773L257.68 121.488C257.75 120.206 258.85 119.164 260.132 119.164H297.139C297.767 119.164 298.345 119.41 298.766 119.856C299.19 120.302 299.403 120.894 299.368 121.523L297.65 152.808C297.58 154.089 296.48 155.132 295.199 155.132ZM260.133 119.806C259.186 119.806 258.374 120.576 258.321 121.523L256.603 152.808C256.579 153.259 256.73 153.683 257.03 154C257.329 154.316 257.742 154.491 258.193 154.491H295.199C296.146 154.491 296.959 153.721 297.011 152.773L298.729 121.489C298.754 121.037 298.602 120.614 298.302 120.297C298.002 119.981 297.59 119.807 297.14 119.807H260.133V119.806Z" fill="#407BFF"/>
<path d="M298.702 128.14H257.655C257.478 128.14 257.334 127.997 257.334 127.82C257.334 127.642 257.478 127.499 257.655 127.499H298.702C298.879 127.499 299.023 127.643 299.023 127.82C299.022 127.997 298.879 128.14 298.702 128.14Z" fill="#407BFF"/>
<path d="M265.864 155.132C265.857 155.132 265.851 155.132 265.846 155.132C265.669 155.122 265.533 154.97 265.543 154.793L267.026 127.802C267.034 127.625 267.184 127.488 267.364 127.5C267.541 127.509 267.676 127.661 267.666 127.837L266.184 154.828C266.174 154.999 266.033 155.132 265.864 155.132Z" fill="#407BFF"/>
<path d="M294 131.347H271.715C271.538 131.347 271.395 131.203 271.395 131.026C271.395 130.849 271.538 130.706 271.715 130.706H294C294.177 130.706 294.321 130.849 294.321 131.026C294.321 131.203 294.177 131.347 294 131.347Z" fill="#407BFF"/>
<path d="M290.643 135.283H271.499C271.322 135.283 271.178 135.139 271.178 134.962C271.178 134.785 271.322 134.641 271.499 134.641H290.643C290.82 134.641 290.964 134.785 290.964 134.962C290.964 135.139 290.82 135.283 290.643 135.283Z" fill="#407BFF"/>
<path d="M282.419 139.344H271.276C271.099 139.344 270.955 139.2 270.955 139.023C270.955 138.846 271.099 138.703 271.276 138.703H282.419C282.596 138.703 282.74 138.846 282.74 139.023C282.74 139.2 282.596 139.344 282.419 139.344Z" fill="#407BFF"/>
<path d="M284.443 147.269H270.841C270.664 147.269 270.52 147.126 270.52 146.949C270.52 146.772 270.664 146.628 270.841 146.628H284.443C284.62 146.628 284.764 146.772 284.764 146.949C284.764 147.126 284.62 147.269 284.443 147.269Z" fill="#407BFF"/>
<path d="M281.76 151.332H270.617C270.44 151.332 270.296 151.188 270.296 151.011C270.296 150.834 270.44 150.69 270.617 150.69H281.76C281.937 150.69 282.08 150.834 282.08 151.011C282.08 151.188 281.937 151.332 281.76 151.332Z" fill="#407BFF"/>
<path d="M288.283 151.332H284.713C284.536 151.332 284.393 151.188 284.393 151.011C284.393 150.834 284.536 150.69 284.713 150.69H288.283C288.461 150.69 288.604 150.834 288.604 151.011C288.604 151.188 288.46 151.332 288.283 151.332Z" fill="#407BFF"/>
<path d="M291.927 143.279H271.06C270.883 143.279 270.739 143.135 270.739 142.958C270.739 142.781 270.883 142.638 271.06 142.638H291.927C292.104 142.638 292.247 142.781 292.247 142.958C292.247 143.135 292.104 143.279 291.927 143.279Z" fill="#407BFF"/>
<path d="M272.474 200.645C267.639 200.645 263.678 199.216 261.218 196.558C258.591 193.721 257.501 189.26 258.227 184.317C258.672 181.29 259.661 178.75 261.168 176.767C262.68 174.777 264.867 173.137 267.668 171.892C273.849 169.143 281.003 169.239 286.806 172.15C289.407 173.455 291.036 175.105 291.65 177.055C291.756 177.392 291.568 177.752 291.23 177.859C290.892 177.966 290.533 177.778 290.426 177.44C289.921 175.833 288.509 174.439 286.23 173.296C280.767 170.555 274.023 170.469 268.188 173.064C265.587 174.22 263.569 175.728 262.189 177.543C260.815 179.351 259.909 181.692 259.496 184.503C258.826 189.06 259.796 193.136 262.158 195.686C265.441 199.232 270.875 199.485 273.823 199.323C279.302 199.02 284.016 197.106 287.096 193.934C290.699 190.225 291.709 184.676 289.446 181.027C289.006 180.32 288.064 179.114 286.678 178.975C286.326 178.941 286.069 178.626 286.104 178.274C286.139 177.921 286.456 177.665 286.806 177.699C288.239 177.842 289.563 178.783 290.536 180.351C293.1 184.485 292.017 190.708 288.017 194.827C284.711 198.231 279.696 200.282 273.895 200.604C273.413 200.632 272.939 200.645 272.474 200.645Z" fill="white"/>
<path d="M108.482 133.775L106.203 137.745L103.971 141.799C102.501 144.508 101.096 147.239 99.8139 149.984C99.1756 151.36 98.5681 152.73 98.0135 154.107L97.9108 154.356C97.9021 154.375 97.8911 154.395 97.8777 154.415C97.8421 154.455 97.8303 154.49 97.8105 154.524C97.7671 154.594 97.7402 154.661 97.7031 154.751C97.6438 154.928 97.6675 155.233 97.7979 155.636C98.0491 156.456 98.7909 157.526 99.701 158.521C100.593 159.522 101.747 160.546 102.786 161.444L100.934 165.389C99.9933 165.121 99.2104 164.849 98.3809 164.487C97.5601 164.141 96.7645 163.722 95.969 163.25C94.3993 162.28 92.8224 161.083 91.5166 159.12C90.8822 158.138 90.3371 156.923 90.1238 155.516C90.0266 154.816 89.9919 154.083 90.0819 153.369C90.1214 153.01 90.1744 152.654 90.2629 152.316L90.3924 151.802L90.4904 151.49C90.9983 149.875 91.5237 148.277 92.1399 146.735C93.3407 143.635 94.6932 140.638 96.1697 137.721C96.9067 136.262 97.6707 134.821 98.4765 133.401C99.2862 131.97 100.075 130.588 101.001 129.145L108.482 133.775Z" fill="#FFC3BD"/>
<path d="M100.803 160.999L104.955 159.92L105.192 166.621C105.192 166.621 101.945 167.104 99.957 165.117L100.803 160.999Z" fill="#FFC3BD"/>
<path d="M110.836 158.79L109.9 164.674L105.192 166.622L104.955 159.92L110.836 158.79Z" fill="#FFC3BD"/>
<path d="M128.375 101.255C128.075 101.316 127.907 101.737 128 102.196C128.093 102.655 128.412 102.977 128.712 102.917C129.013 102.856 129.18 102.434 129.087 101.975C128.994 101.517 128.675 101.194 128.375 101.255Z" fill="#263238"/>
<path d="M128.376 102.982C128.376 102.982 129.957 105.417 131.365 106.46C130.706 107.382 129.257 107.316 129.257 107.316L128.376 102.982Z" fill="#ED847E"/>
<path d="M125.808 99.9863C125.742 99.9863 125.675 99.9618 125.622 99.9137C125.511 99.8102 125.503 99.6364 125.607 99.525C126.639 98.4079 127.892 98.6062 127.945 98.6157C128.095 98.641 128.196 98.7832 128.171 98.9325C128.144 99.0818 128.001 99.1813 127.855 99.1576C127.813 99.1513 126.834 99.0075 126.011 99.8986C125.957 99.9571 125.883 99.9863 125.808 99.9863Z" fill="#263238"/>
<path d="M114.939 108.645C115.771 112.891 116.602 120.67 113.631 123.503C113.631 123.503 114.793 127.81 122.682 127.81C131.357 127.81 126.828 123.504 126.828 123.504C122.093 122.373 122.215 118.861 123.039 115.562L114.939 108.645Z" fill="#FFC3BD"/>
<path d="M111.92 124.291C111.286 123.111 110.587 121.761 112.032 121.338C113.622 120.873 123.832 120.01 126.831 120.883C125.909 122.523 127.47 124.537 127.47 124.537L111.92 124.291Z" fill="#263238"/>
<path d="M86.2192 322.227C86.8014 322.352 87.3844 322.386 87.6641 322.147C87.7818 322.047 87.9003 321.855 87.7968 321.509C87.7431 321.327 87.6238 321.191 87.4429 321.104C86.6592 320.73 84.858 321.464 84.7814 321.496C84.7316 321.517 84.6984 321.565 84.6968 321.618C84.6953 321.673 84.7253 321.723 84.7743 321.746C85.05 321.879 85.6346 322.1 86.2192 322.227ZM87.1632 321.299C87.2225 321.312 87.277 321.329 87.3244 321.352C87.4334 321.404 87.5021 321.481 87.5337 321.587C87.6072 321.834 87.5156 321.912 87.4847 321.938C87.1727 322.202 86.0146 321.958 85.1977 321.632C85.7515 321.437 86.6481 321.187 87.1632 321.299Z" fill="#407BFF"/>
<path d="M84.8057 321.757C84.8278 321.762 84.8507 321.761 84.8728 321.754C85.5293 321.563 86.9332 320.566 86.9497 319.908C86.9521 319.789 86.911 319.572 86.5982 319.463C86.3952 319.392 86.1906 319.41 85.9891 319.512C85.2141 319.908 84.7235 321.516 84.703 321.585C84.6888 321.633 84.7014 321.685 84.737 321.72C84.7559 321.739 84.7796 321.751 84.8057 321.757ZM86.4481 319.705C86.4678 319.709 86.4884 319.715 86.5081 319.722C86.6788 319.781 86.6764 319.864 86.6748 319.899C86.6653 320.289 85.7387 321.071 85.0601 321.388C85.2291 320.924 85.617 320.009 86.1139 319.756C86.2277 319.698 86.3375 319.681 86.4481 319.705Z" fill="#407BFF"/>
<path d="M129.068 323.2C129.813 323.2 130.533 323.097 130.774 322.762C130.858 322.645 130.925 322.446 130.762 322.162C130.671 322.002 130.524 321.894 130.326 321.84C129.36 321.577 127.332 322.734 127.246 322.783C127.197 322.811 127.17 322.867 127.179 322.924C127.189 322.981 127.232 323.025 127.288 323.037C127.658 323.111 128.374 323.2 129.068 323.2ZM129.988 322.074C130.086 322.074 130.175 322.084 130.254 322.106C130.381 322.141 130.469 322.204 130.522 322.299C130.62 322.469 130.585 322.554 130.549 322.603C130.279 322.978 128.812 322.987 127.734 322.833C128.272 322.557 129.311 322.074 129.988 322.074Z" fill="#407BFF"/>
<path d="M127.315 323.04C127.334 323.04 127.353 323.036 127.371 323.028C128.072 322.713 129.459 321.458 129.353 320.802C129.328 320.648 129.219 320.456 128.841 320.418C128.559 320.389 128.304 320.469 128.079 320.654C127.34 321.26 127.185 322.823 127.177 322.89C127.173 322.939 127.194 322.986 127.233 323.014C127.258 323.031 127.286 323.04 127.315 323.04ZM128.731 320.687C128.757 320.687 128.785 320.688 128.813 320.691C129.06 320.716 129.076 320.813 129.081 320.845C129.145 321.239 128.201 322.225 127.486 322.655C127.561 322.198 127.768 321.263 128.252 320.866C128.4 320.746 128.556 320.687 128.731 320.687Z" fill="#407BFF"/>
<path d="M120.933 322.902H126.736L127.314 309.463H121.511L120.933 322.902Z" fill="#FFC3BD"/>
<path d="M78.3364 320.215L84.0086 321.444L89.7029 308.925L84.0307 307.697L78.3364 320.215Z" fill="#FFC3BD"/>
<path d="M84.5538 320.874L78.1816 319.494C77.9502 319.444 77.714 319.561 77.6152 319.777L75.4032 324.576C75.1733 325.074 75.4775 325.658 76.0155 325.764C78.2488 326.208 79.3572 326.311 82.1601 326.918C83.8839 327.291 87.7762 328.239 90.1572 328.755C92.4862 329.259 93.3591 326.983 92.4301 326.559C88.266 324.657 86.5264 322.982 85.3999 321.422C85.196 321.141 84.8927 320.948 84.5538 320.874Z" fill="#263238"/>
<path d="M126.698 322.231H120.36C120.123 322.231 119.918 322.395 119.866 322.627L118.72 327.785C118.601 328.32 119.007 328.826 119.555 328.818C121.841 328.779 125.145 328.645 128.018 328.645C131.378 328.645 134.28 328.828 138.22 328.828C140.603 328.828 141.264 326.419 140.266 326.201C135.726 325.208 132.02 325.102 128.096 322.683C127.67 322.42 127.199 322.231 126.698 322.231Z" fill="#263238"/>
<path d="M103.24 124.815C97.8011 126.063 93.3154 139.948 93.3154 139.948L104.239 148.274C104.239 148.274 108.248 144.494 110.032 137.548C111.902 130.27 108.802 123.54 103.24 124.815Z" fill="#407BFF"/>
<path opacity="0.2" d="M103.24 124.815C97.8011 126.063 93.3154 139.948 93.3154 139.948L104.239 148.274C104.239 148.274 108.248 144.494 110.032 137.548C111.902 130.27 108.802 123.54 103.24 124.815Z" fill="#FAFAFA"/>
<path opacity="0.2" d="M107.901 135.027C104.947 137.95 103.983 143.274 103.754 147.904L104.236 148.275C104.236 148.275 108.249 144.491 110.034 137.547C110.145 137.112 110.24 136.678 110.319 136.251L107.901 135.027Z" fill="black"/>
<path d="M135.753 125.115C135.753 125.115 141.93 132.092 136.096 175.277C126.744 175.277 109.606 175.277 105.056 175.277C104.842 170.512 107.836 147.267 103.24 124.815C103.24 124.815 108.561 123.747 113.631 123.503C117.598 123.312 123.34 123.185 126.827 123.503C131.423 123.923 135.753 125.115 135.753 125.115Z" fill="#407BFF"/>
<path opacity="0.2" d="M135.753 125.115C135.753 125.115 141.93 132.092 136.096 175.277C126.744 175.277 109.606 175.277 105.056 175.277C104.842 170.512 107.836 147.267 103.24 124.815C103.24 124.815 108.561 123.747 113.631 123.503C117.598 123.312 123.34 123.185 126.827 123.503C131.423 123.923 135.753 125.115 135.753 125.115Z" fill="#FAFAFA"/>
<path opacity="0.2" d="M138.467 138.313L138.348 138.211L131.293 139.901C130.89 144.673 135.796 150.377 138.324 152.984C138.673 146.893 138.664 142.089 138.467 138.313Z" fill="black"/>
<path opacity="0.2" d="M127.313 309.466L127.016 316.394H121.21L121.507 309.466H127.313Z" fill="black"/>
<path opacity="0.2" d="M84.0283 307.7L89.7029 308.929L86.7649 315.381L81.0903 314.152L84.0283 307.7Z" fill="black"/>
<path d="M112.509 104.33C113.999 109.893 114.59 113.225 118.023 115.538C123.187 119.018 129.617 115.025 129.818 109.127C129.999 103.819 127.531 95.6129 121.561 94.4919C115.677 93.3882 111.017 98.7666 112.509 104.33Z" fill="#FFC3BD"/>
<path d="M115.062 113.402C117.428 114.755 126.052 110.232 124.28 103.375C124.28 103.375 127.566 99.4239 127.195 95.0639C126.823 90.7039 123.831 89.0417 120.647 89.9779C117.841 90.8026 117.923 92.3392 117.923 92.3392C117.923 92.3392 104.66 93.901 107.491 99.292C102.093 105.177 112.11 111.713 115.062 113.402Z" fill="#263238"/>
<path d="M107.863 99.7399C107.863 99.7399 106.283 97.0057 103.979 98.5367C105.066 98.5525 106.844 98.7381 107.863 99.7399Z" fill="#263238"/>
<path d="M126.773 97.9379C126.773 97.9379 129.663 91.4133 125.157 89.3127C126.676 91.4259 127.503 94.8387 126.773 97.9379Z" fill="#263238"/>
<path d="M121.974 104.563C122.352 106.024 123.312 107.279 124.316 108.026C125.826 109.15 126.954 108.044 126.847 106.335C126.751 104.797 125.849 102.358 124.183 101.902C122.541 101.453 121.542 102.894 121.974 104.563Z" fill="#FFC3BD"/>
<path d="M125.085 175.277C125.085 175.277 118.499 219.63 114.883 236.246C110.924 254.442 89.6917 314.642 89.6917 314.642L79.3032 312.393C79.3032 312.393 94.1497 263.333 97.4732 237.895C100.026 218.355 105.056 175.277 105.056 175.277H125.085V175.277Z" fill="#263238"/>
<path d="M92.1803 311.174C92.2245 311.183 90.244 314.93 90.244 314.93L78.5552 312.4L79.5403 308.886L92.1803 311.174Z" fill="#407BFF"/>
<path opacity="0.3" d="M120.923 191.08C113.307 192.573 114.113 220.973 115.03 235.58C117.226 225.255 120.441 205.387 122.637 191.285C122.132 191.032 121.563 190.953 120.923 191.08Z" fill="black"/>
<path d="M136.097 175.277C136.097 175.277 136.896 218.67 136.265 236.368C135.608 254.777 129.178 315.053 129.178 315.053H119.347C119.347 315.053 118.986 255.853 118.549 237.773C118.072 218.064 115.692 175.277 115.692 175.277H136.097Z" fill="#263238"/>
<path opacity="0.4" d="M190.677 144.685H170.649L169.53 165.055L189.529 165.59L190.677 144.685Z" fill="#263238"/>
<path d="M180.15 157.791C173.464 156.966 166.779 156.141 160.091 155.316C161.712 148.522 162.92 141.682 163.707 134.829C170.434 135.657 177.159 136.484 183.884 137.312C183.056 144.164 181.81 151.004 180.15 157.791Z" fill="#407BFF"/>
<path d="M131.07 311.136C131.116 311.136 130.516 315.218 130.516 315.218H118.557L118.233 311.575L131.07 311.136Z" fill="#407BFF"/>
<path d="M138.617 130.408C139.508 131.798 140.526 133.359 141.541 134.801C142.577 136.255 143.611 137.71 144.701 139.107C146.86 141.905 149.149 144.594 151.615 146.825C152.225 147.39 152.851 147.912 153.481 148.395L153.955 148.752C153.913 148.727 153.762 148.676 153.677 148.657C153.471 148.617 153.371 148.653 153.426 148.681C153.546 148.744 154.123 148.644 154.727 148.383C155.339 148.123 156.035 147.77 156.724 147.345C159.503 145.623 162.372 143.217 165.069 140.878L168.459 143.616C166.356 147.005 164.042 150.069 160.862 152.886C160.053 153.58 159.188 154.27 158.146 154.883C157.099 155.488 155.908 156.106 154.161 156.364C153.288 156.478 152.231 156.456 151.14 156.108C150.607 155.951 150.045 155.669 149.605 155.399L148.92 154.966C148.015 154.379 147.155 153.763 146.338 153.119C143.071 150.531 140.344 147.613 137.828 144.578C136.59 143.047 135.39 141.498 134.278 139.888C133.152 138.263 132.095 136.708 131.048 134.897L138.617 130.408Z" fill="#FFC3BD"/>
<path d="M127.216 133.892C125.36 141.673 139.438 149.293 139.438 149.293L148.582 138.579C148.582 138.579 144.418 132.271 139.24 127.3C132.842 121.16 128.629 127.97 127.216 133.892Z" fill="#407BFF"/>
<path opacity="0.2" d="M127.216 133.892C125.36 141.673 139.438 149.293 139.438 149.293L148.582 138.579C148.582 138.579 144.418 132.271 139.24 127.3C132.842 121.16 128.629 127.97 127.216 133.892Z" fill="#FAFAFA"/>
<path d="M164.149 142.496L166.307 135.566L171.987 138.397C171.987 138.397 171.159 143.454 167.025 144.33L164.149 142.496Z" fill="#FFC3BD"/>
<path d="M168.585 133.645L173.708 135.055L171.987 138.397L166.307 135.566L168.585 133.645Z" fill="#FFC3BD"/>
</svg>
