<svg width="395" height="395" viewBox="0 0 395 395" fill="none" xmlns="http://www.w3.org/2000/svg">
<path d="M395 302.094H0V302.292H395V302.094Z" fill="#EBEBEB"/>
<path d="M355.422 314.81H313.498V315.008H355.422V314.81Z" fill="#EBEBEB"/>
<path d="M261.664 312.335H215.318V312.533H261.664V312.335Z" fill="#EBEBEB"/>
<path d="M315.516 311.194H300.354V311.391H315.516V311.194Z" fill="#EBEBEB"/>
<path d="M113.496 308.802H79.3738V309H113.496V308.802Z" fill="#EBEBEB"/>
<path d="M74.9735 308.802H62.7727V309H74.9735V308.802Z" fill="#EBEBEB"/>
<path d="M146.676 312.138H103.862V312.335H146.676V312.138Z" fill="#EBEBEB"/>
<path d="M187.241 266.862H34.6929C32.2068 266.862 30.1836 264.839 30.1836 262.353V47.9214C30.1836 45.4361 32.2068 43.4129 34.6929 43.4129H187.241C189.726 43.4129 191.75 45.4361 191.75 47.9214V262.353C191.75 264.839 189.726 266.862 187.241 266.862ZM34.6929 43.6104C32.3158 43.6104 30.3811 45.5435 30.3811 47.9214V262.353C30.3811 264.731 32.3158 266.664 34.6929 266.664H187.241C189.618 266.664 191.552 264.731 191.552 262.353V47.9214C191.552 45.5435 189.618 43.6104 187.241 43.6104H34.6929V43.6104Z" fill="#EBEBEB"/>
<path d="M358.116 266.862H205.568C203.082 266.862 201.059 264.839 201.059 262.353V47.9214C201.059 45.4361 203.082 43.4129 205.568 43.4129H358.116C360.602 43.4129 362.625 45.4361 362.625 47.9214V262.353C362.625 264.839 360.602 266.862 358.116 266.862ZM205.568 43.6104C203.191 43.6104 201.257 45.5435 201.257 47.9214V262.353C201.257 264.731 203.191 266.664 205.568 266.664H358.116C360.494 266.664 362.428 264.731 362.428 262.353V47.9214C362.428 45.5435 360.494 43.6104 358.116 43.6104H205.568V43.6104Z" fill="#EBEBEB"/>
<path d="M92.792 254.565H44.8232C42.5969 254.565 40.7744 252.742 40.7744 250.516V248.773C40.7744 246.547 42.5962 244.725 44.8232 244.725H92.792C95.0182 244.725 96.8407 246.547 96.8407 248.773V250.516C96.8407 252.743 95.0182 254.565 92.792 254.565Z" fill="#EBEBEB"/>
<path d="M56.3279 254.565H48.4365L39.459 302.094H47.3511L56.3279 254.565Z" fill="#E0E0E0"/>
<path d="M72.0828 254.565H64.1907L59.7683 302.094H67.6604L72.0828 254.565Z" fill="#E0E0E0"/>
<path d="M81.2871 254.565H89.1784L98.156 302.094H90.2639L81.2871 254.565Z" fill="#E0E0E0"/>
<path d="M340.339 55.8159H155.753V216.623H340.339V55.8159Z" fill="#E6E6E6"/>
<path d="M345.877 55.8159H158.341V216.623H345.877V55.8159Z" fill="#F0F0F0"/>
<path d="M340.339 216.623H155.753V219.738H340.339V216.623Z" fill="#E6E6E6"/>
<path d="M348.829 216.623H161.293V219.738H348.829V216.623Z" fill="#F0F0F0"/>
<path d="M338.123 60.8134H166.094V211.626H338.123V60.8134Z" fill="#FAFAFA"/>
<path d="M221.092 211.626L253.519 60.8134H275L242.573 211.626H221.092Z" fill="white"/>
<path d="M196.015 211.626L228.441 60.8134H249.922L217.496 211.626H196.015Z" fill="white"/>
<path d="M170.143 61.2211V202.146C170.143 202.371 170.425 202.554 170.775 202.554H171.614C171.963 202.554 172.246 202.372 172.246 202.146V61.2211C172.246 60.9959 171.963 60.8126 171.614 60.8126H170.775C170.426 60.8134 170.143 60.9959 170.143 61.2211Z" fill="#F0F0F0"/>
<path d="M276.328 211.626L308.754 60.8134H317.129L284.702 211.626H276.328Z" fill="white"/>
<path d="M338.123 60.8134H337.139V211.626H338.123V60.8134Z" fill="#E6E6E6"/>
<path opacity="0.5" d="M347.71 67.0695H163.124L162.411 62.756H346.996L347.71 67.0695Z" fill="#E0E0E0"/>
<path opacity="0.5" d="M347.71 81.8717H163.124L162.411 77.5575H346.996L347.71 81.8717Z" fill="#E0E0E0"/>
<path opacity="0.5" d="M347.71 96.6731H163.124L162.411 92.3589H346.996L347.71 96.6731Z" fill="#E0E0E0"/>
<path opacity="0.5" d="M347.71 111.475H163.124L162.411 107.16H346.996L347.71 111.475Z" fill="#E0E0E0"/>
<path opacity="0.5" d="M347.71 126.276H163.124L162.411 121.961H346.996L347.71 126.276Z" fill="#E0E0E0"/>
<path opacity="0.5" d="M347.71 141.077H163.124L162.411 136.762H346.996L347.71 141.077Z" fill="#E0E0E0"/>
<path opacity="0.5" d="M347.71 74.4709H163.124L162.411 70.1568H346.996L347.71 74.4709Z" fill="#E0E0E0"/>
<path opacity="0.5" d="M347.71 89.2724H163.124L162.411 84.9574H346.996L347.71 89.2724Z" fill="#E0E0E0"/>
<path opacity="0.5" d="M347.71 104.073H163.124L162.411 99.7589H346.996L347.71 104.073Z" fill="#E0E0E0"/>
<path opacity="0.5" d="M347.71 118.875H163.124L162.411 114.561H346.996L347.71 118.875Z" fill="#E0E0E0"/>
<path opacity="0.5" d="M347.71 133.677H163.124L162.411 129.363H346.996L347.71 133.677Z" fill="#E0E0E0"/>
<path opacity="0.5" d="M347.71 148.478H163.124L162.411 144.163H346.996L347.71 148.478Z" fill="#E0E0E0"/>
<path d="M340.339 228.814H315.894V302.095H340.339V228.814Z" fill="#E6E6E6"/>
<path d="M325.451 302.094H340.339V293.686H309.841L325.451 302.094Z" fill="#EBEBEB"/>
<path d="M267.082 228.814H242.637V302.095H267.082V228.814Z" fill="#E6E6E6"/>
<path d="M340.339 228.814H254.088V300.347H340.339V228.814Z" fill="#EBEBEB"/>
<path d="M268.976 302.094H254.088V293.686H284.585L268.976 302.094Z" fill="#EBEBEB"/>
<path d="M328.789 237.065H265.638V273.92H328.789V237.065Z" fill="#FAFAFA"/>
<path d="M328.789 277.668H265.638V295.205H328.789V277.668Z" fill="#FAFAFA"/>
<path d="M303.098 238.94H291.33C289.455 238.94 287.936 237.421 287.936 235.546H306.492C306.492 237.421 304.972 238.94 303.098 238.94Z" fill="#EBEBEB"/>
<path d="M303.098 279.544H291.33C289.455 279.544 287.936 278.025 287.936 276.15H306.492C306.492 278.025 304.972 279.544 303.098 279.544Z" fill="#EBEBEB"/>
<path d="M247.48 228.814H223.035V302.095H247.48V228.814Z" fill="#E6E6E6"/>
<path d="M232.591 302.094H247.479V293.686H216.982L232.591 302.094Z" fill="#EBEBEB"/>
<path d="M174.222 228.814H149.777V302.095H174.222V228.814Z" fill="#E6E6E6"/>
<path d="M247.479 228.814H161.229V300.347H247.479V228.814Z" fill="#EBEBEB"/>
<path d="M176.117 302.094H161.229V293.686H191.726L176.117 302.094Z" fill="#EBEBEB"/>
<path d="M235.93 237.065H172.778V273.92H235.93V237.065Z" fill="#FAFAFA"/>
<path d="M235.93 277.668H172.778V295.205H235.93V277.668Z" fill="#FAFAFA"/>
<path d="M210.239 238.94H198.471C196.596 238.94 195.077 237.421 195.077 235.546H213.633C213.632 237.421 212.113 238.94 210.239 238.94Z" fill="#EBEBEB"/>
<path d="M210.239 279.544H198.471C196.596 279.544 195.077 278.025 195.077 276.15H213.633C213.632 278.025 212.113 279.544 210.239 279.544Z" fill="#EBEBEB"/>
<path d="M340.338 225.738H161.485V228.814H340.338V225.738Z" fill="#F0F0F0"/>
<path d="M161.485 225.738H149.777V228.814H161.485V225.738Z" fill="#E0E0E0"/>
<path d="M66.6703 232.954C65.5564 204.247 64.3683 175.702 66.8007 161.305L70.7697 158.503C70.7697 158.503 69.8991 161.188 69.4432 205.17C68.9874 249.153 68.4202 226.418 68.906 232.954H66.6703V232.954Z" fill="#E6E6E6"/>
<path d="M73.0514 131.141C79.1565 115.228 93.3836 99.8623 108.839 93.5779C114.908 91.1099 106.165 145.374 84.1643 148.872C73.4196 150.58 70.0747 178.083 68.2632 191.296C67.6486 165.308 66.9455 147.053 73.0514 131.141Z" fill="#E6E6E6"/>
<path d="M71.7454 171.531C76.0414 164.72 83.0668 155.183 93.3289 155.173C104.962 155.162 94.7818 174.317 81.1084 180.437C74.4314 183.424 68.8658 192.905 67.4209 198.84C67.5418 186.814 67.4493 178.343 71.7454 171.531Z" fill="#E6E6E6"/>
<path d="M61.2866 150.942C53.8148 137.701 37.1616 124.386 19.4316 118.329C12.4701 115.95 11.7844 155.173 49.3142 164.559C61.4343 167.59 66.2944 189.048 68.8066 199.836C68.5981 178.883 68.7576 164.183 61.2866 150.942Z" fill="#E6E6E6"/>
<path d="M65.3773 182.343C60.6152 173.903 47.6695 169.777 36.0273 170.566C31.4563 170.875 30.9562 188.197 56.3832 194.886C64.0952 196.915 67.2062 210.495 68.8083 217.372C68.674 204.016 70.1394 190.783 65.3773 182.343Z" fill="#E6E6E6"/>
<path d="M65.871 137.762C62.1691 125.961 51.2584 115.382 41.2428 111.009C37.3109 109.293 36.1022 128.863 57.5958 148.023C64.1149 153.834 66.1704 170.764 67.233 179.347C67.7204 164.024 69.573 149.563 65.871 137.762Z" fill="#E6E6E6"/>
<path d="M67.8317 244.725C60.0123 244.725 53.5493 244.155 53.1014 233.579L51.7979 219.696H83.8663L82.5628 233.579C82.1133 244.156 75.6519 244.725 67.8317 244.725Z" fill="#F0F0F0"/>
<path d="M83.9825 225.417H51.6809L50.7559 218.915H84.9076L83.9825 225.417Z" fill="#F0F0F0"/>
<path d="M197.5 337.773C282.095 337.773 350.672 333.768 350.672 328.828C350.672 323.888 282.095 319.883 197.5 319.883C112.905 319.883 44.3276 323.888 44.3276 328.828C44.3276 333.768 112.905 337.773 197.5 337.773Z" fill="#F5F5F5"/>
<path d="M58.0844 93.0183L57.3115 77.1339L56.5233 77.1722L57.2962 93.0566L58.0844 93.0183Z" fill="#407BFF"/>
<path d="M58.7281 106.189L58.3474 98.382L57.5592 98.4205L57.9398 106.227L58.7281 106.189Z" fill="#407BFF"/>
<path d="M305.523 238.358H68.4709C67.7244 238.358 67.1082 237.772 67.0718 237.025L58.5691 62.3745C58.5303 61.575 59.1679 60.9059 59.9681 60.9059H297.02C297.768 60.9059 298.383 61.492 298.419 62.2386L306.923 236.889C306.961 237.688 306.323 238.358 305.523 238.358Z" fill="#407BFF"/>
<path opacity="0.8" d="M69.7989 234.159L61.5742 65.2406C61.5355 64.4411 62.173 63.7728 62.9733 63.7728H294.294C295.041 63.7728 295.657 64.3589 295.693 65.1047L303.918 234.024C303.956 234.824 303.319 235.492 302.519 235.492H71.1972C70.4506 235.492 69.8344 234.906 69.7989 234.159Z" fill="white"/>
<path d="M127.899 226.053C127.52 226.053 127.203 225.754 127.184 225.371L119.813 73.963C119.794 73.568 120.099 73.2314 120.494 73.2125C120.874 73.1959 121.225 73.4977 121.244 73.8935L128.616 225.302C128.636 225.697 128.33 226.033 127.935 226.052C127.923 226.052 127.911 226.053 127.899 226.053Z" fill="white"/>
<path d="M244.963 226.053C244.583 226.053 244.267 225.754 244.248 225.371L236.875 73.963C236.856 73.568 237.161 73.2314 237.556 73.2125C237.931 73.1959 238.287 73.4977 238.307 73.8935L245.679 225.302C245.698 225.697 245.393 226.033 244.998 226.052C244.986 226.052 244.974 226.053 244.963 226.053Z" fill="white"/>
<path d="M186.431 226.053C186.051 226.053 185.735 225.754 185.716 225.371L178.344 73.963C178.325 73.568 178.629 73.2314 179.025 73.2125C179.415 73.1959 179.756 73.4977 179.776 73.8935L187.147 225.302C187.166 225.697 186.861 226.033 186.466 226.052C186.454 226.052 186.442 226.053 186.431 226.053Z" fill="white"/>
<path d="M289.65 89.5655H69.9238C69.528 89.5655 69.2073 89.2447 69.2073 88.849C69.2073 88.4532 69.528 88.1324 69.9238 88.1324H289.65C290.045 88.1324 290.366 88.4532 290.366 88.849C290.366 89.2447 290.045 89.5655 289.65 89.5655Z" fill="white"/>
<path d="M76.5425 80.7159C77.6114 80.298 78.7576 80.377 79.7459 80.9821C80.5691 81.4862 81.0123 82.5969 82.0101 82.7991C83.1429 83.0274 83.4882 82.1016 84.2845 81.5738C85.2957 80.9039 86.8393 81.2033 87.9683 81.2887C90.9647 81.5146 93.9588 81.7729 96.9498 82.0644C99.9004 82.3512 102.891 82.856 105.836 82.2777C106.854 82.0787 106.423 80.5239 105.408 80.7238C102.392 81.3163 99.191 80.6653 96.17 80.377C93.1325 80.0871 90.0894 79.8058 87.0447 79.6083C86.0098 79.542 84.9244 79.5293 83.9535 79.9441C83.4668 80.1518 83.0876 80.4497 82.7219 80.8257C82.5986 80.9529 82.4683 81.2112 82.2676 81.1773C82.1396 81.1559 81.83 80.6827 81.7486 80.5911C80.3606 79.0356 78.079 78.3925 76.1159 79.1604C75.1592 79.5341 75.5747 81.0935 76.5425 80.7159Z" fill="white"/>
<path d="M129.883 83.0859C131.082 82.1805 132.891 80.9845 133.885 82.7841C134.381 83.6847 134.86 84.7678 136.101 84.5782C137.29 84.3957 138.164 82.8497 139.034 82.1173C140.331 81.0256 141.641 80.6985 143.152 81.5849C144.452 82.3472 145.591 83.1333 147.122 83.3474C148.529 83.5441 149.828 83.2628 151.119 82.7043C151.859 82.3836 152.608 81.9854 153.431 81.957C154.288 81.9277 155.152 82.2264 156.009 82.2983C157.845 82.4507 159.691 82.1031 161.49 81.769C162.509 81.5801 162.076 80.0262 161.061 80.2142C159.068 80.5847 157.122 80.8857 155.102 80.5579C154.357 80.437 153.657 80.2885 152.897 80.3959C152.19 80.4955 151.544 80.7672 150.895 81.0508C149.24 81.7737 147.643 82.1205 145.912 81.3566C144.572 80.7657 143.527 79.6668 142.029 79.4464C140.754 79.2583 139.542 79.7347 138.523 80.4789C137.94 80.9047 137.413 81.4 136.911 81.9191C136.682 82.1561 136.464 82.4823 136.202 82.679C135.812 82.9705 135.774 82.9413 135.544 82.5092C134.963 81.4261 134.413 80.5421 133.117 80.283C131.578 79.9741 130.247 80.8059 129.071 81.6947C128.252 82.3109 129.054 83.7124 129.883 83.0859Z" fill="white"/>
<path d="M190.418 82.6395C191.356 82.1963 192.31 81.7942 193.287 81.445C194.218 81.1117 195.297 80.6369 196.298 80.6179C197.206 80.6013 198.008 81.1425 198.876 81.3265C199.564 81.4727 200.229 81.4166 200.869 81.1227C201.437 80.8612 202.016 80.2245 202.639 80.1234C203.345 80.0096 203.934 80.8312 204.536 81.1117C205.155 81.3992 205.821 81.4103 206.487 81.3352C207.098 81.2665 207.995 80.9489 208.56 81.3123C209.087 81.6512 209.245 82.3859 209.814 82.728C210.309 83.0243 210.924 83.0487 211.44 82.7944C212.01 82.5131 212.322 81.9815 212.793 81.5865C213.487 81.005 214.298 81.3273 215.092 81.5161C215.827 81.6907 216.54 81.8235 217.295 81.7231C218.128 81.6125 219.088 81.0848 219.932 81.2523C221.315 81.5272 222.036 82.9982 223.586 82.239C224.517 81.784 223.701 80.392 222.772 80.847C222.379 81.039 221.234 80.0278 220.851 79.8674C220.156 79.5767 219.45 79.5909 218.722 79.7379C217.823 79.9188 217.044 80.2498 216.11 80.0957C215.357 79.9717 214.637 79.6857 213.869 79.6399C213.183 79.5988 212.547 79.7505 211.992 80.1613C211.68 80.392 211.015 81.4071 210.615 81.325C210.431 81.287 210.143 80.6835 210.026 80.5358C209.839 80.2995 209.633 80.0807 209.374 79.9203C208.823 79.5822 208.175 79.5238 207.546 79.5775C206.861 79.6359 206.081 79.9172 205.401 79.7228C204.717 79.5269 204.27 78.8625 203.592 78.6271C202.061 78.0954 201.324 79.3539 200.015 79.7379C199.168 79.9867 198.297 79.3895 197.501 79.1746C196.645 78.9431 195.831 79.0032 194.977 79.2157C193.126 79.6754 191.323 80.4354 189.604 81.2468C188.666 81.6907 189.484 83.0811 190.418 82.6395Z" fill="white"/>
<path d="M244.232 82.2106C245.665 81.8014 247.1 81.3921 248.534 80.9829C249.215 80.7886 249.9 80.5476 250.591 80.3959C251.376 80.2229 251.847 80.49 252.548 80.7522C253.694 81.1828 254.953 81.1765 256.16 81.1654C257.594 81.1528 259.028 81.1299 260.461 81.1125C266.326 81.0398 272.191 80.9671 278.056 80.8952C279.093 80.8818 279.096 79.2694 278.056 79.2828C272.061 79.3579 266.065 79.4314 260.07 79.5056C258.656 79.5222 257.242 79.5538 255.829 79.557C255.134 79.5593 254.423 79.5664 253.739 79.4219C253.093 79.286 252.548 78.9226 251.919 78.7488C250.745 78.4249 249.405 79.0569 248.292 79.3737C246.796 79.8011 245.3 80.2285 243.803 80.6551C242.807 80.9411 243.231 82.4966 244.232 82.2106Z" fill="white"/>
<path opacity="0.3" d="M129.206 144.888L91.0546 146.946C88.8553 133.755 87.9302 119.001 88.0123 108.074L125.287 106.636C125.715 118.548 127.185 131.454 129.206 144.888Z" fill="#407BFF"/>
<path d="M130.076 143.137L91.9244 145.195C89.725 132.004 88.352 119.22 88.0044 106.942L126.157 104.885C126.586 116.797 128.055 129.703 130.076 143.137Z" fill="#407BFF"/>
<path opacity="0.3" d="M177.251 158.911L138.901 156.598L138.902 118.577L177.252 120.89L177.251 158.911Z" fill="#407BFF"/>
<path d="M176.748 158.052L138.398 155.74L138.85 117.501L177.199 119.815L176.748 158.052Z" fill="white"/>
<path opacity="0.3" d="M213.817 151.456L252.152 150.203C253.103 141.379 248.932 119.201 246.63 111.317L209.441 113.678C212.618 127.674 213.984 140.834 213.817 151.456Z" fill="#407BFF"/>
<path d="M214.472 150.203L251.567 148.294C252.519 139.471 250.057 125.022 247.286 110.063L209.173 112.483C212.348 126.479 214.64 139.58 214.472 150.203Z" fill="#407BFF"/>
<path opacity="0.3" d="M108.669 210.228L147.811 206.25C147.709 197.325 143.119 176.599 140.398 168.832L103.492 173.217C107.416 187.055 107.58 199.598 108.669 210.228Z" fill="#407BFF"/>
<path d="M109.595 209.685L147.329 205.584C147.796 196.699 144.557 182.367 140.983 167.541L103.158 172.035C106.221 185.912 109.183 199.041 109.595 209.685Z" fill="#407BFF"/>
<path opacity="0.3" d="M203.794 167.65L241.888 174.794C244.754 166.483 245.484 144.164 244.935 136.051L207.73 130.227C207.806 144.429 206.279 157.43 203.794 167.65Z" fill="#407BFF"/>
<path d="M204.714 166.582L241.728 172.823C244.594 164.512 245.322 150.028 245.856 134.983L207.726 129.013C207.802 143.217 207.2 156.363 204.714 166.582Z" fill="white"/>
<path d="M294.383 132.149C295.14 132.945 295.78 133.651 296.433 134.426C297.082 135.186 297.716 135.953 298.34 136.73C299.582 138.287 300.771 139.888 301.895 141.551C303.01 143.223 304.106 144.911 305.078 146.712C306.066 148.501 306.993 150.343 307.753 152.325L308.045 153.061L308.118 153.247L308.21 153.518L308.384 154.061C308.476 154.405 308.553 154.738 308.622 155.068C308.673 155.38 308.732 155.703 308.769 156.006C308.912 157.221 308.922 158.33 308.887 159.403C308.822 161.543 308.533 163.551 308.2 165.523C307.488 169.466 306.47 173.211 305.148 176.951L300.988 175.999C301.297 172.282 301.58 168.49 301.684 164.841C301.746 163.018 301.718 161.209 301.598 159.531C301.534 158.694 301.421 157.894 301.262 157.224L301.142 156.757L301.01 156.381L300.56 155.468C299.047 152.409 297.044 149.399 294.909 146.483C293.837 145.022 292.708 143.588 291.568 142.164C290.999 141.45 290.418 140.745 289.828 140.052L288.092 138.033L294.383 132.149Z" fill="#B65B52"/>
<path d="M301.496 174.439L298.615 177.531L304.236 180.848C304.236 180.848 306.18 178.261 305.419 175.618L301.496 174.439Z" fill="#B55B52"/>
<path d="M294.875 182.098L300.349 184.018L304.236 180.848L298.615 177.531L294.875 182.098Z" fill="#B55B52"/>
<path d="M310.646 194.749L274.487 186.863C276.417 174.177 278.995 162.077 282.374 150.704L318.534 158.59C315.34 169.647 312.816 181.885 310.646 194.749Z" fill="#407BFF"/>
<path d="M316.333 160.338L280.862 149.775L270.3 185.245L305.77 195.808L316.333 160.338Z" fill="white"/>
<path d="M273.894 108.452C273.87 108.91 273.608 109.271 273.308 109.259C273.009 109.246 272.786 108.865 272.81 108.407C272.835 107.95 273.097 107.588 273.397 107.6C273.696 107.613 273.919 107.994 273.894 108.452Z" fill="#263238"/>
<path d="M273.649 109.273C273.649 109.273 272.468 111.874 271.253 113.103C272.023 113.893 273.419 113.603 273.419 113.603L273.649 109.273Z" fill="#A02724"/>
<path d="M275.707 105.975C275.772 105.966 275.833 105.932 275.877 105.877C275.971 105.76 275.952 105.59 275.836 105.498C274.676 104.579 273.491 104.966 273.439 104.983C273.298 105.031 273.221 105.184 273.267 105.325C273.314 105.466 273.467 105.54 273.605 105.494C273.644 105.481 274.573 105.189 275.498 105.922C275.56 105.971 275.635 105.988 275.707 105.975Z" fill="#263238"/>
<path d="M287.641 115.027C286.772 119.186 286.206 124.948 289.08 127.722C289.08 127.722 287.889 131.94 280.162 131.94C271.665 131.94 276.122 128.238 276.122 128.238C279.667 127.141 279.688 123.119 278.921 119.888L287.641 115.027Z" fill="#B55B52"/>
<path d="M269.65 323.315C268.92 323.315 268.217 323.215 267.985 322.886C267.904 322.772 267.841 322.577 268.004 322.299C268.095 322.143 268.24 322.036 268.435 321.984C269.384 321.727 271.356 322.859 271.44 322.907C271.488 322.935 271.513 322.99 271.504 323.046C271.494 323.101 271.451 323.145 271.396 323.157C271.032 323.228 270.329 323.315 269.65 323.315ZM268.762 322.213C268.668 322.213 268.58 322.222 268.502 322.243C268.377 322.277 268.29 322.338 268.236 322.431C268.138 322.599 268.172 322.681 268.206 322.728C268.465 323.097 269.902 323.105 270.961 322.955C270.437 322.686 269.427 322.213 268.762 322.213Z" fill="#407BFF"/>
<path d="M271.369 323.158C271.35 323.158 271.331 323.154 271.313 323.146C270.632 322.838 269.289 321.609 269.4 320.966C269.427 320.816 269.536 320.627 269.906 320.59C270.183 320.561 270.432 320.64 270.65 320.82C271.366 321.414 271.499 322.946 271.505 323.01C271.509 323.058 271.486 323.105 271.447 323.132C271.424 323.15 271.396 323.158 271.369 323.158ZM270.012 320.854C269.985 320.854 269.959 320.855 269.931 320.859C269.688 320.882 269.672 320.978 269.666 321.009C269.599 321.394 270.51 322.361 271.204 322.781C271.137 322.334 270.947 321.418 270.477 321.028C270.335 320.911 270.182 320.854 270.012 320.854Z" fill="#407BFF"/>
<path d="M277.859 323.024H272.174L271.776 309.86H277.461L277.859 323.024Z" fill="#B55B52"/>
<path d="M271.983 322.365H278.191C278.423 322.365 278.622 322.527 278.67 322.754L279.727 327.807C279.837 328.33 279.433 328.827 278.896 328.818C276.657 328.779 273.423 328.648 270.609 328.648C267.318 328.648 265.242 328.828 261.383 328.828C259.049 328.828 258.432 326.468 259.412 326.255C263.87 325.283 266.735 325.178 270.608 322.808C271.029 322.55 271.492 322.365 271.983 322.365Z" fill="#263238"/>
<path d="M291.364 128.401C296.814 128.46 304.433 142.288 304.433 142.288L295.985 150.91C295.985 150.91 290.449 148.331 287.373 142.04C284.15 135.448 285.791 128.343 291.364 128.401Z" fill="#407BFF"/>
<path opacity="0.3" d="M291.364 128.401C296.814 128.46 304.433 142.288 304.433 142.288L295.985 150.91C295.985 150.91 290.449 148.331 287.373 142.04C284.15 135.448 285.791 128.343 291.364 128.401Z" fill="black"/>
<path d="M265.501 134.705C264.261 140.845 263.372 153.456 266.425 178.433H296.829C297.062 174.386 295.107 156.729 297.703 137.771C298.403 132.654 294.569 128.025 289.412 127.74C289.3 127.734 289.19 127.728 289.079 127.723C285.196 127.537 279.574 127.411 276.155 127.723C274.727 127.854 273.324 128.06 272.074 128.28C268.774 128.862 266.166 131.419 265.501 134.705Z" fill="#407BFF"/>
<path opacity="0.2" d="M265.501 134.705C264.261 140.845 263.372 153.456 266.425 178.433H296.829C297.062 174.386 295.107 156.729 297.703 137.771C298.403 132.654 294.569 128.025 289.412 127.74C289.3 127.734 289.19 127.728 289.079 127.723C285.196 127.537 279.574 127.411 276.155 127.723C274.727 127.854 273.324 128.06 272.074 128.28C268.774 128.862 266.166 131.419 265.501 134.705Z" fill="black"/>
<path opacity="0.2" d="M272.499 147.352L268.406 144.572C264.453 145.853 264.245 149.692 264.464 155.241C267.846 154.387 271.736 151.168 272.499 147.352Z" fill="black"/>
<path opacity="0.2" d="M271.778 309.863L271.982 316.648H277.669L277.465 309.863H271.778Z" fill="black"/>
<path d="M289.218 108.102C288.572 113.714 288.479 117.027 285.485 119.8C280.981 123.97 274.178 121.112 273.136 115.441C272.198 110.338 273.412 102.017 279.035 100.001C284.576 98.0153 289.865 102.488 289.218 108.102Z" fill="#B55B52"/>
<path d="M277.244 110.501C275.499 110.896 274.709 106.781 276.487 105.201C274.907 104.411 272.621 103.268 271.86 101.547C270.985 99.5724 273.36 97.2024 275.401 97.3012C274.742 95.985 276.203 92.4608 280.363 93.7912C284.62 95.1516 286.494 97.17 286.494 97.17C286.494 97.17 287.868 92.6062 290.764 96.2923C293.337 99.5677 292.32 102.366 292.32 102.366C292.32 102.366 296.138 105.991 295.151 108.691C294.163 111.39 291.991 112.345 291.991 112.345C291.991 112.345 292.568 118.686 287.923 120.211C283.278 121.737 280.351 118.599 280.74 116.789C277.737 116.952 274.676 112.938 277.244 110.501Z" fill="#263238"/>
<path d="M279.262 110.088C279.071 111.552 278.289 112.894 277.402 113.75C276.067 115.038 274.833 114.117 274.729 112.449C274.635 110.948 275.217 108.469 276.785 107.807C278.33 107.153 279.48 108.414 279.262 110.088Z" fill="#B55B52"/>
<path d="M326.11 315.854L321.059 317.666L316.032 304.656L321.084 302.845L326.11 315.854Z" fill="#B55B52"/>
<path d="M318.816 318.49C318.242 318.941 317.627 319.297 317.242 319.183C317.108 319.143 316.938 319.029 316.893 318.709C316.867 318.53 316.916 318.357 317.036 318.195C317.623 317.406 319.873 317.077 319.969 317.063C320.023 317.055 320.078 317.082 320.105 317.132C320.132 317.182 320.125 317.243 320.088 317.285C319.848 317.567 319.35 318.071 318.816 318.49ZM317.436 318.172C317.362 318.231 317.299 318.293 317.25 318.357C317.173 318.462 317.142 318.564 317.157 318.67C317.184 318.861 317.262 318.906 317.318 318.922C317.749 319.051 318.883 318.169 319.623 317.397C319.045 317.509 317.958 317.762 317.436 318.172Z" fill="#407BFF"/>
<path d="M320.069 317.303C320.054 317.316 320.037 317.323 320.019 317.328C319.292 317.509 317.476 317.373 317.167 316.798C317.094 316.663 317.064 316.449 317.332 316.189C317.532 315.996 317.776 315.904 318.059 315.911C318.988 315.935 320.039 317.055 320.084 317.104C320.116 317.138 320.128 317.188 320.115 317.235C320.108 317.264 320.091 317.287 320.069 317.303ZM317.577 316.333C317.557 316.349 317.536 316.367 317.517 316.386C317.341 316.555 317.387 316.64 317.402 316.668C317.588 317.013 318.901 317.209 319.706 317.11C319.377 316.8 318.661 316.198 318.051 316.182C317.868 316.178 317.712 316.227 317.577 316.333Z" fill="#407BFF"/>
<path d="M320.092 316.278L324.971 312.44C325.154 312.296 325.418 312.294 325.606 312.435L329.799 315.566C330.234 315.889 330.246 316.511 329.819 316.835C328.034 318.191 324.591 320.967 322.487 322.837C320.027 325.024 321.942 323.561 319.057 326.125C317.313 327.675 315.179 326.415 315.76 325.614C318.403 321.963 318.967 319.79 319.306 317.461C319.376 316.985 319.707 316.581 320.092 316.278Z" fill="#263238"/>
<path d="M237.057 148.81L234.836 144.033L228.79 147.771C228.79 147.771 230.781 151.84 234.907 151.392L237.057 148.81Z" fill="#B55B52"/>
<path d="M229.152 142.736L227.804 143.899C226.928 144.653 226.9 145.999 227.743 146.79L228.79 147.772L234.837 144.034L231.208 142.431C230.521 142.126 229.721 142.246 229.152 142.736Z" fill="#B55B52"/>
<path opacity="0.2" d="M316.035 304.66L318.625 311.366L323.679 309.554L321.088 302.847L316.035 304.66Z" fill="black"/>
<path d="M277.21 178.432C277.21 178.432 286.695 222.095 290.324 238.302C294.298 256.051 315.203 310.01 315.203 310.01L324.381 305.035C324.381 305.035 314.563 262.703 307.387 239.609C304.785 220.518 296.829 178.433 296.829 178.433H277.21V178.432Z" fill="#263238"/>
<path d="M312.617 307.321C312.573 307.338 314.5 310.881 314.5 310.881L325.862 306.613L324.958 303.144L312.617 307.321Z" fill="#407BFF"/>
<path opacity="0.3" d="M282.789 198.668C289.945 199.622 290.754 224.836 290.621 239.634C290.522 239.165 290.414 238.721 290.323 238.3C288.343 229.451 284.618 212.399 281.641 198.75C281.99 198.636 282.378 198.612 282.789 198.668Z" fill="black"/>
<path d="M266.425 178.432C266.425 178.432 264.009 220.933 264.405 238.267C264.817 256.297 269.881 315.335 269.881 315.335H279.51C279.51 315.335 281.085 257.351 281.739 239.643C282.454 220.338 286.411 178.432 286.411 178.432H266.425V178.432Z" fill="#263238"/>
<path d="M268.077 311.499C268.033 311.499 268.569 315.498 268.569 315.498H280.282L280.645 311.928L268.077 311.499Z" fill="#407BFF"/>
<path d="M274.621 137.645C273.314 140 271.815 142.229 270.239 144.38C268.643 146.515 266.918 148.535 265.107 150.452C263.304 152.376 261.405 154.19 259.456 155.912C257.534 157.637 255.461 159.282 253.629 160.789L252.98 161.325L252.448 161.516C251.033 162.026 249.593 162.114 248.362 161.968C247.121 161.826 246.038 161.502 245.062 161.117C243.111 160.333 241.541 159.282 240.087 158.186C238.647 157.073 237.351 155.878 236.144 154.621C235.541 153.992 234.972 153.337 234.411 152.679C233.843 152.016 233.326 151.365 232.784 150.613L235.899 147.697C237.115 148.601 238.416 149.577 239.715 150.418C241.009 151.283 242.317 152.093 243.622 152.777C244.913 153.465 246.234 154.023 247.389 154.308C247.963 154.455 248.49 154.512 248.885 154.489C249.287 154.462 249.519 154.377 249.635 154.288L248.454 155.015C250.383 153.208 252.127 151.602 253.866 149.901C255.586 148.209 257.238 146.479 258.813 144.7C260.376 142.909 261.883 141.089 263.271 139.197C264.673 137.315 265.931 135.352 267.141 133.371L274.621 137.645Z" fill="#B65B52"/>
<path d="M278.662 136.45C278.12 144.625 268.743 151.489 268.743 151.489L256.573 144.816C256.573 144.816 261.056 135.183 267.095 130.635C274.554 125.018 279.074 130.228 278.662 136.45Z" fill="#407BFF"/>
<path opacity="0.2" d="M278.662 136.45C278.12 144.625 268.743 151.489 268.743 151.489L256.573 144.816C256.573 144.816 261.056 135.183 267.095 130.635C274.554 125.018 279.074 130.228 278.662 136.45Z" fill="black"/>
</svg>
